ISO-10303-21;
HEADER;
/* Generated by software containing ST-Developer
 * from STEP Tools, Inc. (www.steptools.com) 
 */
/* OPTION: using custom renumber hook */

FILE_DESCRIPTION(
/* description */ ('STEP AP242 Edition 2',
'CAx-IF Rec.Pracs.---Representation and Presentation of Product Manufa
cturing Information (PMI)---4.0---2014-10-13',
'CAx-IF Rec.Pracs.---3D Tessellated Geometry---0.4---2014-09-14','2;1',
'CAx-IF Rec.Pracs.---User Defined Attributes---1.5---2016-08-15'),
/* implementation_level */ '2;1');

FILE_NAME(
/* name */ 
'Part Studio 1 - 11 Removable ESP32 carrier - header-body openings',
/* time_stamp */ '2026-09-06T19:29:18Z',
/* author */ (''),
/* organization */ (''),
/* preprocessor_version */ 'ST-DEVELOPER v20',
/* originating_system */ 'ONSHAPE BY PTC INC, 1.220',
/* authorisation */ '  ');

FILE_SCHEMA (('AP242_MANAGED_MODEL_BASED_3D_ENGINEERING_MIM_LF { 1 0 10303 442 3 1 4 }'));
ENDSEC;

DATA;
#10=SHAPE_REPRESENTATION_RELATIONSHIP('','',#1109,#11);
#11=ADVANCED_BREP_SHAPE_REPRESENTATION('',(#1107),#1755);
#12=CYLINDRICAL_SURFACE('',#1129,0.0027);
#13=CYLINDRICAL_SURFACE('',#1130,0.0027);
#14=CYLINDRICAL_SURFACE('',#1131,0.0027);
#15=CYLINDRICAL_SURFACE('',#1132,0.0027);
#16=CIRCLE('',#1115,0.0027);
#17=CIRCLE('',#1116,0.0027);
#18=CIRCLE('',#1122,0.0027);
#19=CIRCLE('',#1123,0.0027);
#20=CIRCLE('',#1125,0.0027);
#21=CIRCLE('',#1126,0.0027);
#22=CIRCLE('',#1127,0.0027);
#23=CIRCLE('',#1128,0.0027);
#24=ORIENTED_EDGE('',*,*,#324,.F.);
#25=ORIENTED_EDGE('',*,*,#325,.T.);
#26=ORIENTED_EDGE('',*,*,#326,.T.);
#27=ORIENTED_EDGE('',*,*,#327,.T.);
#28=ORIENTED_EDGE('',*,*,#328,.T.);
#29=ORIENTED_EDGE('',*,*,#329,.T.);
#30=ORIENTED_EDGE('',*,*,#330,.F.);
#31=ORIENTED_EDGE('',*,*,#331,.F.);
#32=ORIENTED_EDGE('',*,*,#332,.F.);
#33=ORIENTED_EDGE('',*,*,#333,.F.);
#34=ORIENTED_EDGE('',*,*,#334,.F.);
#35=ORIENTED_EDGE('',*,*,#335,.T.);
#36=ORIENTED_EDGE('',*,*,#336,.T.);
#37=ORIENTED_EDGE('',*,*,#337,.F.);
#38=ORIENTED_EDGE('',*,*,#338,.F.);
#39=ORIENTED_EDGE('',*,*,#331,.T.);
#40=ORIENTED_EDGE('',*,*,#339,.T.);
#41=ORIENTED_EDGE('',*,*,#340,.T.);
#42=ORIENTED_EDGE('',*,*,#341,.F.);
#43=ORIENTED_EDGE('',*,*,#342,.F.);
#44=ORIENTED_EDGE('',*,*,#343,.T.);
#45=ORIENTED_EDGE('',*,*,#344,.T.);
#46=ORIENTED_EDGE('',*,*,#345,.F.);
#47=ORIENTED_EDGE('',*,*,#346,.F.);
#48=ORIENTED_EDGE('',*,*,#347,.T.);
#49=ORIENTED_EDGE('',*,*,#348,.T.);
#50=ORIENTED_EDGE('',*,*,#349,.F.);
#51=ORIENTED_EDGE('',*,*,#350,.F.);
#52=ORIENTED_EDGE('',*,*,#351,.T.);
#53=ORIENTED_EDGE('',*,*,#352,.T.);
#54=ORIENTED_EDGE('',*,*,#328,.F.);
#55=ORIENTED_EDGE('',*,*,#353,.T.);
#56=ORIENTED_EDGE('',*,*,#354,.T.);
#57=ORIENTED_EDGE('',*,*,#355,.T.);
#58=ORIENTED_EDGE('',*,*,#356,.T.);
#59=ORIENTED_EDGE('',*,*,#357,.T.);
#60=ORIENTED_EDGE('',*,*,#358,.T.);
#61=ORIENTED_EDGE('',*,*,#359,.T.);
#62=ORIENTED_EDGE('',*,*,#360,.F.);
#63=ORIENTED_EDGE('',*,*,#361,.T.);
#64=ORIENTED_EDGE('',*,*,#354,.F.);
#65=ORIENTED_EDGE('',*,*,#362,.F.);
#66=ORIENTED_EDGE('',*,*,#363,.F.);
#67=ORIENTED_EDGE('',*,*,#364,.T.);
#68=ORIENTED_EDGE('',*,*,#365,.F.);
#69=ORIENTED_EDGE('',*,*,#366,.T.);
#70=ORIENTED_EDGE('',*,*,#367,.T.);
#71=ORIENTED_EDGE('',*,*,#368,.T.);
#72=ORIENTED_EDGE('',*,*,#369,.T.);
#73=ORIENTED_EDGE('',*,*,#370,.T.);
#74=ORIENTED_EDGE('',*,*,#356,.F.);
#75=ORIENTED_EDGE('',*,*,#371,.T.);
#76=ORIENTED_EDGE('',*,*,#372,.F.);
#77=ORIENTED_EDGE('',*,*,#373,.F.);
#78=ORIENTED_EDGE('',*,*,#374,.T.);
#79=ORIENTED_EDGE('',*,*,#375,.T.);
#80=ORIENTED_EDGE('',*,*,#376,.F.);
#81=ORIENTED_EDGE('',*,*,#377,.T.);
#82=ORIENTED_EDGE('',*,*,#378,.F.);
#83=ORIENTED_EDGE('',*,*,#375,.F.);
#84=ORIENTED_EDGE('',*,*,#379,.T.);
#85=ORIENTED_EDGE('',*,*,#358,.F.);
#86=ORIENTED_EDGE('',*,*,#380,.T.);
#87=ORIENTED_EDGE('',*,*,#365,.T.);
#88=ORIENTED_EDGE('',*,*,#381,.T.);
#89=ORIENTED_EDGE('',*,*,#382,.T.);
#90=ORIENTED_EDGE('',*,*,#383,.F.);
#91=ORIENTED_EDGE('',*,*,#384,.F.);
#92=ORIENTED_EDGE('',*,*,#385,.T.);
#93=ORIENTED_EDGE('',*,*,#386,.T.);
#94=ORIENTED_EDGE('',*,*,#387,.F.);
#95=ORIENTED_EDGE('',*,*,#388,.F.);
#96=ORIENTED_EDGE('',*,*,#389,.T.);
#97=ORIENTED_EDGE('',*,*,#390,.T.);
#98=ORIENTED_EDGE('',*,*,#391,.F.);
#99=ORIENTED_EDGE('',*,*,#392,.F.);
#100=ORIENTED_EDGE('',*,*,#393,.T.);
#101=ORIENTED_EDGE('',*,*,#394,.T.);
#102=ORIENTED_EDGE('',*,*,#395,.F.);
#103=ORIENTED_EDGE('',*,*,#396,.F.);
#104=ORIENTED_EDGE('',*,*,#397,.T.);
#105=ORIENTED_EDGE('',*,*,#398,.T.);
#106=ORIENTED_EDGE('',*,*,#399,.F.);
#107=ORIENTED_EDGE('',*,*,#400,.F.);
#108=ORIENTED_EDGE('',*,*,#401,.T.);
#109=ORIENTED_EDGE('',*,*,#402,.T.);
#110=ORIENTED_EDGE('',*,*,#403,.F.);
#111=ORIENTED_EDGE('',*,*,#404,.F.);
#112=ORIENTED_EDGE('',*,*,#405,.T.);
#113=ORIENTED_EDGE('',*,*,#406,.T.);
#114=ORIENTED_EDGE('',*,*,#407,.F.);
#115=ORIENTED_EDGE('',*,*,#408,.F.);
#116=ORIENTED_EDGE('',*,*,#373,.T.);
#117=ORIENTED_EDGE('',*,*,#409,.T.);
#118=ORIENTED_EDGE('',*,*,#410,.F.);
#119=ORIENTED_EDGE('',*,*,#411,.F.);
#120=ORIENTED_EDGE('',*,*,#324,.T.);
#121=ORIENTED_EDGE('',*,*,#412,.T.);
#122=ORIENTED_EDGE('',*,*,#369,.F.);
#123=ORIENTED_EDGE('',*,*,#413,.T.);
#124=ORIENTED_EDGE('',*,*,#367,.F.);
#125=ORIENTED_EDGE('',*,*,#414,.T.);
#126=ORIENTED_EDGE('',*,*,#360,.T.);
#127=ORIENTED_EDGE('',*,*,#415,.T.);
#128=ORIENTED_EDGE('',*,*,#357,.F.);
#129=ORIENTED_EDGE('',*,*,#370,.F.);
#130=ORIENTED_EDGE('',*,*,#412,.F.);
#131=ORIENTED_EDGE('',*,*,#329,.F.);
#132=ORIENTED_EDGE('',*,*,#355,.F.);
#133=ORIENTED_EDGE('',*,*,#368,.F.);
#134=ORIENTED_EDGE('',*,*,#413,.F.);
#135=ORIENTED_EDGE('',*,*,#371,.F.);
#136=ORIENTED_EDGE('',*,*,#379,.F.);
#137=ORIENTED_EDGE('',*,*,#374,.F.);
#138=ORIENTED_EDGE('',*,*,#415,.F.);
#139=ORIENTED_EDGE('',*,*,#359,.F.);
#140=ORIENTED_EDGE('',*,*,#380,.F.);
#141=ORIENTED_EDGE('',*,*,#361,.F.);
#142=ORIENTED_EDGE('',*,*,#414,.F.);
#143=ORIENTED_EDGE('',*,*,#366,.F.);
#144=ORIENTED_EDGE('',*,*,#341,.T.);
#145=ORIENTED_EDGE('',*,*,#416,.T.);
#146=ORIENTED_EDGE('',*,*,#406,.F.);
#147=ORIENTED_EDGE('',*,*,#417,.F.);
#148=ORIENTED_EDGE('',*,*,#418,.T.);
#149=ORIENTED_EDGE('',*,*,#407,.T.);
#150=ORIENTED_EDGE('',*,*,#416,.F.);
#151=ORIENTED_EDGE('',*,*,#344,.F.);
#152=ORIENTED_EDGE('',*,*,#419,.T.);
#153=ORIENTED_EDGE('',*,*,#408,.T.);
#154=ORIENTED_EDGE('',*,*,#418,.F.);
#155=ORIENTED_EDGE('',*,*,#343,.F.);
#156=ORIENTED_EDGE('',*,*,#342,.T.);
#157=ORIENTED_EDGE('',*,*,#417,.T.);
#158=ORIENTED_EDGE('',*,*,#405,.F.);
#159=ORIENTED_EDGE('',*,*,#419,.F.);
#160=ORIENTED_EDGE('',*,*,#345,.T.);
#161=ORIENTED_EDGE('',*,*,#420,.T.);
#162=ORIENTED_EDGE('',*,*,#402,.F.);
#163=ORIENTED_EDGE('',*,*,#421,.F.);
#164=ORIENTED_EDGE('',*,*,#422,.T.);
#165=ORIENTED_EDGE('',*,*,#403,.T.);
#166=ORIENTED_EDGE('',*,*,#420,.F.);
#167=ORIENTED_EDGE('',*,*,#348,.F.);
#168=ORIENTED_EDGE('',*,*,#423,.T.);
#169=ORIENTED_EDGE('',*,*,#404,.T.);
#170=ORIENTED_EDGE('',*,*,#422,.F.);
#171=ORIENTED_EDGE('',*,*,#347,.F.);
#172=ORIENTED_EDGE('',*,*,#346,.T.);
#173=ORIENTED_EDGE('',*,*,#421,.T.);
#174=ORIENTED_EDGE('',*,*,#401,.F.);
#175=ORIENTED_EDGE('',*,*,#423,.F.);
#176=ORIENTED_EDGE('',*,*,#349,.T.);
#177=ORIENTED_EDGE('',*,*,#424,.T.);
#178=ORIENTED_EDGE('',*,*,#398,.F.);
#179=ORIENTED_EDGE('',*,*,#425,.F.);
#180=ORIENTED_EDGE('',*,*,#426,.T.);
#181=ORIENTED_EDGE('',*,*,#399,.T.);
#182=ORIENTED_EDGE('',*,*,#424,.F.);
#183=ORIENTED_EDGE('',*,*,#352,.F.);
#184=ORIENTED_EDGE('',*,*,#427,.T.);
#185=ORIENTED_EDGE('',*,*,#400,.T.);
#186=ORIENTED_EDGE('',*,*,#426,.F.);
#187=ORIENTED_EDGE('',*,*,#351,.F.);
#188=ORIENTED_EDGE('',*,*,#350,.T.);
#189=ORIENTED_EDGE('',*,*,#425,.T.);
#190=ORIENTED_EDGE('',*,*,#397,.F.);
#191=ORIENTED_EDGE('',*,*,#427,.F.);
#192=ORIENTED_EDGE('',*,*,#394,.F.);
#193=ORIENTED_EDGE('',*,*,#428,.T.);
#194=ORIENTED_EDGE('',*,*,#429,.F.);
#195=ORIENTED_EDGE('',*,*,#430,.F.);
#196=ORIENTED_EDGE('',*,*,#431,.F.);
#197=ORIENTED_EDGE('',*,*,#395,.T.);
#198=ORIENTED_EDGE('',*,*,#430,.T.);
#199=ORIENTED_EDGE('',*,*,#432,.T.);
#200=ORIENTED_EDGE('',*,*,#433,.F.);
#201=ORIENTED_EDGE('',*,*,#396,.T.);
#202=ORIENTED_EDGE('',*,*,#431,.T.);
#203=ORIENTED_EDGE('',*,*,#434,.T.);
#204=ORIENTED_EDGE('',*,*,#393,.F.);
#205=ORIENTED_EDGE('',*,*,#433,.T.);
#206=ORIENTED_EDGE('',*,*,#435,.F.);
#207=ORIENTED_EDGE('',*,*,#428,.F.);
#208=ORIENTED_EDGE('',*,*,#429,.T.);
#209=ORIENTED_EDGE('',*,*,#435,.T.);
#210=ORIENTED_EDGE('',*,*,#434,.F.);
#211=ORIENTED_EDGE('',*,*,#432,.F.);
#212=ORIENTED_EDGE('',*,*,#390,.F.);
#213=ORIENTED_EDGE('',*,*,#436,.T.);
#214=ORIENTED_EDGE('',*,*,#437,.F.);
#215=ORIENTED_EDGE('',*,*,#438,.F.);
#216=ORIENTED_EDGE('',*,*,#439,.F.);
#217=ORIENTED_EDGE('',*,*,#391,.T.);
#218=ORIENTED_EDGE('',*,*,#438,.T.);
#219=ORIENTED_EDGE('',*,*,#440,.T.);
#220=ORIENTED_EDGE('',*,*,#441,.F.);
#221=ORIENTED_EDGE('',*,*,#392,.T.);
#222=ORIENTED_EDGE('',*,*,#439,.T.);
#223=ORIENTED_EDGE('',*,*,#442,.T.);
#224=ORIENTED_EDGE('',*,*,#389,.F.);
#225=ORIENTED_EDGE('',*,*,#441,.T.);
#226=ORIENTED_EDGE('',*,*,#443,.F.);
#227=ORIENTED_EDGE('',*,*,#436,.F.);
#228=ORIENTED_EDGE('',*,*,#437,.T.);
#229=ORIENTED_EDGE('',*,*,#443,.T.);
#230=ORIENTED_EDGE('',*,*,#442,.F.);
#231=ORIENTED_EDGE('',*,*,#440,.F.);
#232=ORIENTED_EDGE('',*,*,#386,.F.);
#233=ORIENTED_EDGE('',*,*,#444,.T.);
#234=ORIENTED_EDGE('',*,*,#445,.F.);
#235=ORIENTED_EDGE('',*,*,#446,.F.);
#236=ORIENTED_EDGE('',*,*,#447,.F.);
#237=ORIENTED_EDGE('',*,*,#387,.T.);
#238=ORIENTED_EDGE('',*,*,#446,.T.);
#239=ORIENTED_EDGE('',*,*,#448,.T.);
#240=ORIENTED_EDGE('',*,*,#449,.F.);
#241=ORIENTED_EDGE('',*,*,#388,.T.);
#242=ORIENTED_EDGE('',*,*,#447,.T.);
#243=ORIENTED_EDGE('',*,*,#450,.T.);
#244=ORIENTED_EDGE('',*,*,#385,.F.);
#245=ORIENTED_EDGE('',*,*,#449,.T.);
#246=ORIENTED_EDGE('',*,*,#451,.F.);
#247=ORIENTED_EDGE('',*,*,#444,.F.);
#248=ORIENTED_EDGE('',*,*,#445,.T.);
#249=ORIENTED_EDGE('',*,*,#451,.T.);
#250=ORIENTED_EDGE('',*,*,#450,.F.);
#251=ORIENTED_EDGE('',*,*,#448,.F.);
#252=ORIENTED_EDGE('',*,*,#382,.F.);
#253=ORIENTED_EDGE('',*,*,#452,.T.);
#254=ORIENTED_EDGE('',*,*,#453,.F.);
#255=ORIENTED_EDGE('',*,*,#454,.F.);
#256=ORIENTED_EDGE('',*,*,#455,.F.);
#257=ORIENTED_EDGE('',*,*,#383,.T.);
#258=ORIENTED_EDGE('',*,*,#454,.T.);
#259=ORIENTED_EDGE('',*,*,#456,.T.);
#260=ORIENTED_EDGE('',*,*,#457,.F.);
#261=ORIENTED_EDGE('',*,*,#384,.T.);
#262=ORIENTED_EDGE('',*,*,#455,.T.);
#263=ORIENTED_EDGE('',*,*,#458,.T.);
#264=ORIENTED_EDGE('',*,*,#381,.F.);
#265=ORIENTED_EDGE('',*,*,#457,.T.);
#266=ORIENTED_EDGE('',*,*,#459,.F.);
#267=ORIENTED_EDGE('',*,*,#452,.F.);
#268=ORIENTED_EDGE('',*,*,#453,.T.);
#269=ORIENTED_EDGE('',*,*,#459,.T.);
#270=ORIENTED_EDGE('',*,*,#458,.F.);
#271=ORIENTED_EDGE('',*,*,#456,.F.);
#272=ORIENTED_EDGE('',*,*,#376,.T.);
#273=ORIENTED_EDGE('',*,*,#378,.T.);
#274=ORIENTED_EDGE('',*,*,#364,.F.);
#275=ORIENTED_EDGE('',*,*,#460,.T.);
#276=ORIENTED_EDGE('',*,*,#336,.F.);
#277=ORIENTED_EDGE('',*,*,#461,.F.);
#278=ORIENTED_EDGE('',*,*,#462,.F.);
#279=ORIENTED_EDGE('',*,*,#463,.T.);
#280=ORIENTED_EDGE('',*,*,#464,.F.);
#281=ORIENTED_EDGE('',*,*,#377,.F.);
#282=ORIENTED_EDGE('',*,*,#460,.F.);
#283=ORIENTED_EDGE('',*,*,#363,.T.);
#284=ORIENTED_EDGE('',*,*,#465,.T.);
#285=ORIENTED_EDGE('',*,*,#326,.F.);
#286=ORIENTED_EDGE('',*,*,#466,.T.);
#287=ORIENTED_EDGE('',*,*,#333,.T.);
#288=ORIENTED_EDGE('',*,*,#467,.F.);
#289=ORIENTED_EDGE('',*,*,#468,.F.);
#290=ORIENTED_EDGE('',*,*,#462,.T.);
#291=ORIENTED_EDGE('',*,*,#469,.T.);
#292=ORIENTED_EDGE('',*,*,#470,.T.);
#293=ORIENTED_EDGE('',*,*,#337,.T.);
#294=ORIENTED_EDGE('',*,*,#463,.F.);
#295=ORIENTED_EDGE('',*,*,#468,.T.);
#296=ORIENTED_EDGE('',*,*,#335,.F.);
#297=ORIENTED_EDGE('',*,*,#471,.T.);
#298=ORIENTED_EDGE('',*,*,#469,.F.);
#299=ORIENTED_EDGE('',*,*,#461,.T.);
#300=ORIENTED_EDGE('',*,*,#332,.T.);
#301=ORIENTED_EDGE('',*,*,#338,.T.);
#302=ORIENTED_EDGE('',*,*,#470,.F.);
#303=ORIENTED_EDGE('',*,*,#467,.T.);
#304=ORIENTED_EDGE('',*,*,#353,.F.);
#305=ORIENTED_EDGE('',*,*,#327,.F.);
#306=ORIENTED_EDGE('',*,*,#465,.F.);
#307=ORIENTED_EDGE('',*,*,#362,.T.);
#308=ORIENTED_EDGE('',*,*,#472,.T.);
#309=ORIENTED_EDGE('',*,*,#410,.T.);
#310=ORIENTED_EDGE('',*,*,#473,.F.);
#311=ORIENTED_EDGE('',*,*,#340,.F.);
#312=ORIENTED_EDGE('',*,*,#372,.T.);
#313=ORIENTED_EDGE('',*,*,#464,.T.);
#314=ORIENTED_EDGE('',*,*,#471,.F.);
#315=ORIENTED_EDGE('',*,*,#334,.T.);
#316=ORIENTED_EDGE('',*,*,#473,.T.);
#317=ORIENTED_EDGE('',*,*,#409,.F.);
#318=ORIENTED_EDGE('',*,*,#411,.T.);
#319=ORIENTED_EDGE('',*,*,#472,.F.);
#320=ORIENTED_EDGE('',*,*,#339,.F.);
#321=ORIENTED_EDGE('',*,*,#330,.T.);
#322=ORIENTED_EDGE('',*,*,#466,.F.);
#323=ORIENTED_EDGE('',*,*,#325,.F.);
#324=EDGE_CURVE('',#474,#475,#574,.T.);
#325=EDGE_CURVE('',#474,#476,#575,.T.);
#326=EDGE_CURVE('',#476,#477,#576,.T.);
#327=EDGE_CURVE('',#477,#478,#577,.T.);
#328=EDGE_CURVE('',#478,#479,#578,.T.);
#329=EDGE_CURVE('',#479,#475,#579,.T.);
#330=EDGE_CURVE('',#480,#481,#580,.T.);
#331=EDGE_CURVE('',#482,#480,#581,.T.);
#332=EDGE_CURVE('',#483,#482,#582,.T.);
#333=EDGE_CURVE('',#481,#483,#583,.T.);
#334=EDGE_CURVE('',#484,#485,#584,.T.);
#335=EDGE_CURVE('',#484,#486,#585,.T.);
#336=EDGE_CURVE('',#486,#487,#586,.T.);
#337=EDGE_CURVE('',#488,#487,#587,.T.);
#338=EDGE_CURVE('',#482,#488,#588,.T.);
#339=EDGE_CURVE('',#480,#489,#589,.T.);
#340=EDGE_CURVE('',#489,#485,#590,.T.);
#341=EDGE_CURVE('',#490,#491,#591,.T.);
#342=EDGE_CURVE('',#492,#490,#592,.T.);
#343=EDGE_CURVE('',#492,#493,#593,.T.);
#344=EDGE_CURVE('',#493,#491,#594,.T.);
#345=EDGE_CURVE('',#494,#495,#595,.T.);
#346=EDGE_CURVE('',#496,#494,#596,.T.);
#347=EDGE_CURVE('',#496,#497,#597,.T.);
#348=EDGE_CURVE('',#497,#495,#598,.T.);
#349=EDGE_CURVE('',#498,#499,#599,.T.);
#350=EDGE_CURVE('',#500,#498,#600,.T.);
#351=EDGE_CURVE('',#500,#501,#601,.T.);
#352=EDGE_CURVE('',#501,#499,#602,.T.);
#353=EDGE_CURVE('',#478,#502,#603,.T.);
#354=EDGE_CURVE('',#502,#503,#604,.T.);
#355=EDGE_CURVE('',#503,#504,#16,.T.);
#356=EDGE_CURVE('',#504,#505,#605,.T.);
#357=EDGE_CURVE('',#505,#479,#17,.T.);
#358=EDGE_CURVE('',#506,#507,#606,.T.);
#359=EDGE_CURVE('',#507,#508,#607,.T.);
#360=EDGE_CURVE('',#509,#508,#608,.T.);
#361=EDGE_CURVE('',#509,#506,#609,.F.);
#362=EDGE_CURVE('',#510,#502,#610,.T.);
#363=EDGE_CURVE('',#511,#510,#611,.T.);
#364=EDGE_CURVE('',#511,#512,#612,.T.);
#365=EDGE_CURVE('',#513,#512,#613,.T.);
#366=EDGE_CURVE('',#513,#514,#614,.T.);
#367=EDGE_CURVE('',#514,#515,#615,.T.);
#368=EDGE_CURVE('',#515,#503,#616,.F.);
#369=EDGE_CURVE('',#516,#517,#617,.T.);
#370=EDGE_CURVE('',#517,#505,#618,.F.);
#371=EDGE_CURVE('',#504,#516,#619,.T.);
#372=EDGE_CURVE('',#518,#519,#620,.T.);
#373=EDGE_CURVE('',#520,#518,#621,.T.);
#374=EDGE_CURVE('',#520,#521,#622,.F.);
#375=EDGE_CURVE('',#521,#522,#623,.T.);
#376=EDGE_CURVE('',#523,#522,#624,.T.);
#377=EDGE_CURVE('',#523,#519,#625,.T.);
#378=EDGE_CURVE('',#522,#512,#626,.T.);
#379=EDGE_CURVE('',#521,#507,#18,.T.);
#380=EDGE_CURVE('',#506,#513,#19,.T.);
#381=EDGE_CURVE('',#524,#525,#627,.T.);
#382=EDGE_CURVE('',#525,#526,#628,.T.);
#383=EDGE_CURVE('',#527,#526,#629,.T.);
#384=EDGE_CURVE('',#524,#527,#630,.T.);
#385=EDGE_CURVE('',#528,#529,#631,.T.);
#386=EDGE_CURVE('',#529,#530,#632,.T.);
#387=EDGE_CURVE('',#531,#530,#633,.T.);
#388=EDGE_CURVE('',#528,#531,#634,.T.);
#389=EDGE_CURVE('',#532,#533,#635,.T.);
#390=EDGE_CURVE('',#533,#534,#636,.T.);
#391=EDGE_CURVE('',#535,#534,#637,.T.);
#392=EDGE_CURVE('',#532,#535,#638,.T.);
#393=EDGE_CURVE('',#536,#537,#639,.T.);
#394=EDGE_CURVE('',#537,#538,#640,.T.);
#395=EDGE_CURVE('',#539,#538,#641,.T.);
#396=EDGE_CURVE('',#536,#539,#642,.T.);
#397=EDGE_CURVE('',#540,#541,#643,.T.);
#398=EDGE_CURVE('',#541,#542,#644,.T.);
#399=EDGE_CURVE('',#543,#542,#645,.T.);
#400=EDGE_CURVE('',#540,#543,#646,.T.);
#401=EDGE_CURVE('',#544,#545,#647,.T.);
#402=EDGE_CURVE('',#545,#546,#648,.T.);
#403=EDGE_CURVE('',#547,#546,#649,.T.);
#404=EDGE_CURVE('',#544,#547,#650,.T.);
#405=EDGE_CURVE('',#548,#549,#651,.T.);
#406=EDGE_CURVE('',#549,#550,#652,.T.);
#407=EDGE_CURVE('',#551,#550,#653,.T.);
#408=EDGE_CURVE('',#548,#551,#654,.T.);
#409=EDGE_CURVE('',#518,#552,#655,.T.);
#410=EDGE_CURVE('',#553,#552,#656,.T.);
#411=EDGE_CURVE('',#474,#553,#657,.T.);
#412=EDGE_CURVE('',#475,#517,#20,.F.);
#413=EDGE_CURVE('',#516,#515,#21,.F.);
#414=EDGE_CURVE('',#514,#509,#22,.F.);
#415=EDGE_CURVE('',#508,#520,#23,.F.);
#416=EDGE_CURVE('',#491,#550,#658,.T.);
#417=EDGE_CURVE('',#490,#549,#659,.T.);
#418=EDGE_CURVE('',#493,#551,#660,.T.);
#419=EDGE_CURVE('',#492,#548,#661,.T.);
#420=EDGE_CURVE('',#495,#546,#662,.T.);
#421=EDGE_CURVE('',#494,#545,#663,.T.);
#422=EDGE_CURVE('',#497,#547,#664,.T.);
#423=EDGE_CURVE('',#496,#544,#665,.T.);
#424=EDGE_CURVE('',#499,#542,#666,.T.);
#425=EDGE_CURVE('',#498,#541,#667,.T.);
#426=EDGE_CURVE('',#501,#543,#668,.T.);
#427=EDGE_CURVE('',#500,#540,#669,.T.);
#428=EDGE_CURVE('',#537,#554,#670,.T.);
#429=EDGE_CURVE('',#555,#554,#671,.T.);
#430=EDGE_CURVE('',#538,#555,#672,.T.);
#431=EDGE_CURVE('',#539,#556,#673,.T.);
#432=EDGE_CURVE('',#555,#556,#674,.T.);
#433=EDGE_CURVE('',#536,#557,#675,.T.);
#434=EDGE_CURVE('',#556,#557,#676,.T.);
#435=EDGE_CURVE('',#554,#557,#677,.T.);
#436=EDGE_CURVE('',#533,#558,#678,.T.);
#437=EDGE_CURVE('',#559,#558,#679,.T.);
#438=EDGE_CURVE('',#534,#559,#680,.T.);
#439=EDGE_CURVE('',#535,#560,#681,.T.);
#440=EDGE_CURVE('',#559,#560,#682,.T.);
#441=EDGE_CURVE('',#532,#561,#683,.T.);
#442=EDGE_CURVE('',#560,#561,#684,.T.);
#443=EDGE_CURVE('',#558,#561,#685,.T.);
#444=EDGE_CURVE('',#529,#562,#686,.T.);
#445=EDGE_CURVE('',#563,#562,#687,.T.);
#446=EDGE_CURVE('',#530,#563,#688,.T.);
#447=EDGE_CURVE('',#531,#564,#689,.T.);
#448=EDGE_CURVE('',#563,#564,#690,.T.);
#449=EDGE_CURVE('',#528,#565,#691,.T.);
#450=EDGE_CURVE('',#564,#565,#692,.T.);
#451=EDGE_CURVE('',#562,#565,#693,.T.);
#452=EDGE_CURVE('',#525,#566,#694,.T.);
#453=EDGE_CURVE('',#567,#566,#695,.T.);
#454=EDGE_CURVE('',#526,#567,#696,.T.);
#455=EDGE_CURVE('',#527,#568,#697,.T.);
#456=EDGE_CURVE('',#567,#568,#698,.T.);
#457=EDGE_CURVE('',#524,#569,#699,.T.);
#458=EDGE_CURVE('',#568,#569,#700,.T.);
#459=EDGE_CURVE('',#566,#569,#701,.T.);
#460=EDGE_CURVE('',#511,#523,#702,.T.);
#461=EDGE_CURVE('',#570,#486,#703,.T.);
#462=EDGE_CURVE('',#571,#570,#704,.T.);
#463=EDGE_CURVE('',#571,#487,#705,.T.);
#464=EDGE_CURVE('',#519,#572,#706,.T.);
#465=EDGE_CURVE('',#510,#477,#707,.T.);
#466=EDGE_CURVE('',#476,#481,#708,.T.);
#467=EDGE_CURVE('',#573,#483,#709,.T.);
#468=EDGE_CURVE('',#571,#573,#710,.T.);
#469=EDGE_CURVE('',#570,#572,#711,.T.);
#470=EDGE_CURVE('',#573,#488,#712,.T.);
#471=EDGE_CURVE('',#484,#572,#713,.T.);
#472=EDGE_CURVE('',#489,#553,#714,.T.);
#473=EDGE_CURVE('',#485,#552,#715,.T.);
#474=VERTEX_POINT('',#1450);
#475=VERTEX_POINT('',#1451);
#476=VERTEX_POINT('',#1453);
#477=VERTEX_POINT('',#1455);
#478=VERTEX_POINT('',#1457);
#479=VERTEX_POINT('',#1459);
#480=VERTEX_POINT('',#1463);
#481=VERTEX_POINT('',#1464);
#482=VERTEX_POINT('',#1466);
#483=VERTEX_POINT('',#1468);
#484=VERTEX_POINT('',#1472);
#485=VERTEX_POINT('',#1473);
#486=VERTEX_POINT('',#1475);
#487=VERTEX_POINT('',#1477);
#488=VERTEX_POINT('',#1479);
#489=VERTEX_POINT('',#1482);
#490=VERTEX_POINT('',#1485);
#491=VERTEX_POINT('',#1486);
#492=VERTEX_POINT('',#1488);
#493=VERTEX_POINT('',#1490);
#494=VERTEX_POINT('',#1493);
#495=VERTEX_POINT('',#1494);
#496=VERTEX_POINT('',#1496);
#497=VERTEX_POINT('',#1498);
#498=VERTEX_POINT('',#1501);
#499=VERTEX_POINT('',#1502);
#500=VERTEX_POINT('',#1504);
#501=VERTEX_POINT('',#1506);
#502=VERTEX_POINT('',#1510);
#503=VERTEX_POINT('',#1512);
#504=VERTEX_POINT('',#1514);
#505=VERTEX_POINT('',#1516);
#506=VERTEX_POINT('',#1520);
#507=VERTEX_POINT('',#1521);
#508=VERTEX_POINT('',#1523);
#509=VERTEX_POINT('',#1525);
#510=VERTEX_POINT('',#1529);
#511=VERTEX_POINT('',#1531);
#512=VERTEX_POINT('',#1533);
#513=VERTEX_POINT('',#1535);
#514=VERTEX_POINT('',#1537);
#515=VERTEX_POINT('',#1539);
#516=VERTEX_POINT('',#1543);
#517=VERTEX_POINT('',#1544);
#518=VERTEX_POINT('',#1549);
#519=VERTEX_POINT('',#1550);
#520=VERTEX_POINT('',#1552);
#521=VERTEX_POINT('',#1554);
#522=VERTEX_POINT('',#1556);
#523=VERTEX_POINT('',#1558);
#524=VERTEX_POINT('',#1566);
#525=VERTEX_POINT('',#1567);
#526=VERTEX_POINT('',#1569);
#527=VERTEX_POINT('',#1571);
#528=VERTEX_POINT('',#1574);
#529=VERTEX_POINT('',#1575);
#530=VERTEX_POINT('',#1577);
#531=VERTEX_POINT('',#1579);
#532=VERTEX_POINT('',#1582);
#533=VERTEX_POINT('',#1583);
#534=VERTEX_POINT('',#1585);
#535=VERTEX_POINT('',#1587);
#536=VERTEX_POINT('',#1590);
#537=VERTEX_POINT('',#1591);
#538=VERTEX_POINT('',#1593);
#539=VERTEX_POINT('',#1595);
#540=VERTEX_POINT('',#1598);
#541=VERTEX_POINT('',#1599);
#542=VERTEX_POINT('',#1601);
#543=VERTEX_POINT('',#1603);
#544=VERTEX_POINT('',#1606);
#545=VERTEX_POINT('',#1607);
#546=VERTEX_POINT('',#1609);
#547=VERTEX_POINT('',#1611);
#548=VERTEX_POINT('',#1614);
#549=VERTEX_POINT('',#1615);
#550=VERTEX_POINT('',#1617);
#551=VERTEX_POINT('',#1619);
#552=VERTEX_POINT('',#1622);
#553=VERTEX_POINT('',#1624);
#554=VERTEX_POINT('',#1660);
#555=VERTEX_POINT('',#1662);
#556=VERTEX_POINT('',#1666);
#557=VERTEX_POINT('',#1670);
#558=VERTEX_POINT('',#1677);
#559=VERTEX_POINT('',#1679);
#560=VERTEX_POINT('',#1683);
#561=VERTEX_POINT('',#1687);
#562=VERTEX_POINT('',#1694);
#563=VERTEX_POINT('',#1696);
#564=VERTEX_POINT('',#1700);
#565=VERTEX_POINT('',#1704);
#566=VERTEX_POINT('',#1711);
#567=VERTEX_POINT('',#1713);
#568=VERTEX_POINT('',#1717);
#569=VERTEX_POINT('',#1721);
#570=VERTEX_POINT('',#1730);
#571=VERTEX_POINT('',#1732);
#572=VERTEX_POINT('',#1736);
#573=VERTEX_POINT('',#1740);
#574=LINE('',#1449,#716);
#575=LINE('',#1452,#717);
#576=LINE('',#1454,#718);
#577=LINE('',#1456,#719);
#578=LINE('',#1458,#720);
#579=LINE('',#1460,#721);
#580=LINE('',#1462,#722);
#581=LINE('',#1465,#723);
#582=LINE('',#1467,#724);
#583=LINE('',#1469,#725);
#584=LINE('',#1471,#726);
#585=LINE('',#1474,#727);
#586=LINE('',#1476,#728);
#587=LINE('',#1478,#729);
#588=LINE('',#1480,#730);
#589=LINE('',#1481,#731);
#590=LINE('',#1483,#732);
#591=LINE('',#1484,#733);
#592=LINE('',#1487,#734);
#593=LINE('',#1489,#735);
#594=LINE('',#1491,#736);
#595=LINE('',#1492,#737);
#596=LINE('',#1495,#738);
#597=LINE('',#1497,#739);
#598=LINE('',#1499,#740);
#599=LINE('',#1500,#741);
#600=LINE('',#1503,#742);
#601=LINE('',#1505,#743);
#602=LINE('',#1507,#744);
#603=LINE('',#1509,#745);
#604=LINE('',#1511,#746);
#605=LINE('',#1515,#747);
#606=LINE('',#1519,#748);
#607=LINE('',#1522,#749);
#608=LINE('',#1524,#750);
#609=LINE('',#1526,#751);
#610=LINE('',#1528,#752);
#611=LINE('',#1530,#753);
#612=LINE('',#1532,#754);
#613=LINE('',#1534,#755);
#614=LINE('',#1536,#756);
#615=LINE('',#1538,#757);
#616=LINE('',#1540,#758);
#617=LINE('',#1542,#759);
#618=LINE('',#1545,#760);
#619=LINE('',#1546,#761);
#620=LINE('',#1548,#762);
#621=LINE('',#1551,#763);
#622=LINE('',#1553,#764);
#623=LINE('',#1555,#765);
#624=LINE('',#1557,#766);
#625=LINE('',#1559,#767);
#626=LINE('',#1561,#768);
#627=LINE('',#1565,#769);
#628=LINE('',#1568,#770);
#629=LINE('',#1570,#771);
#630=LINE('',#1572,#772);
#631=LINE('',#1573,#773);
#632=LINE('',#1576,#774);
#633=LINE('',#1578,#775);
#634=LINE('',#1580,#776);
#635=LINE('',#1581,#777);
#636=LINE('',#1584,#778);
#637=LINE('',#1586,#779);
#638=LINE('',#1588,#780);
#639=LINE('',#1589,#781);
#640=LINE('',#1592,#782);
#641=LINE('',#1594,#783);
#642=LINE('',#1596,#784);
#643=LINE('',#1597,#785);
#644=LINE('',#1600,#786);
#645=LINE('',#1602,#787);
#646=LINE('',#1604,#788);
#647=LINE('',#1605,#789);
#648=LINE('',#1608,#790);
#649=LINE('',#1610,#791);
#650=LINE('',#1612,#792);
#651=LINE('',#1613,#793);
#652=LINE('',#1616,#794);
#653=LINE('',#1618,#795);
#654=LINE('',#1620,#796);
#655=LINE('',#1621,#797);
#656=LINE('',#1623,#798);
#657=LINE('',#1625,#799);
#658=LINE('',#1635,#800);
#659=LINE('',#1636,#801);
#660=LINE('',#1638,#802);
#661=LINE('',#1640,#803);
#662=LINE('',#1643,#804);
#663=LINE('',#1644,#805);
#664=LINE('',#1646,#806);
#665=LINE('',#1648,#807);
#666=LINE('',#1651,#808);
#667=LINE('',#1652,#809);
#668=LINE('',#1654,#810);
#669=LINE('',#1656,#811);
#670=LINE('',#1659,#812);
#671=LINE('',#1661,#813);
#672=LINE('',#1663,#814);
#673=LINE('',#1665,#815);
#674=LINE('',#1667,#816);
#675=LINE('',#1669,#817);
#676=LINE('',#1671,#818);
#677=LINE('',#1673,#819);
#678=LINE('',#1676,#820);
#679=LINE('',#1678,#821);
#680=LINE('',#1680,#822);
#681=LINE('',#1682,#823);
#682=LINE('',#1684,#824);
#683=LINE('',#1686,#825);
#684=LINE('',#1688,#826);
#685=LINE('',#1690,#827);
#686=LINE('',#1693,#828);
#687=LINE('',#1695,#829);
#688=LINE('',#1697,#830);
#689=LINE('',#1699,#831);
#690=LINE('',#1701,#832);
#691=LINE('',#1703,#833);
#692=LINE('',#1705,#834);
#693=LINE('',#1707,#835);
#694=LINE('',#1710,#836);
#695=LINE('',#1712,#837);
#696=LINE('',#1714,#838);
#697=LINE('',#1716,#839);
#698=LINE('',#1718,#840);
#699=LINE('',#1720,#841);
#700=LINE('',#1722,#842);
#701=LINE('',#1724,#843);
#702=LINE('',#1727,#844);
#703=LINE('',#1729,#845);
#704=LINE('',#1731,#846);
#705=LINE('',#1733,#847);
#706=LINE('',#1735,#848);
#707=LINE('',#1737,#849);
#708=LINE('',#1738,#850);
#709=LINE('',#1739,#851);
#710=LINE('',#1741,#852);
#711=LINE('',#1742,#853);
#712=LINE('',#1744,#854);
#713=LINE('',#1746,#855);
#714=LINE('',#1750,#856);
#715=LINE('',#1751,#857);
#716=VECTOR('',#1179,1.);
#717=VECTOR('',#1180,1.);
#718=VECTOR('',#1181,1.);
#719=VECTOR('',#1182,1.);
#720=VECTOR('',#1183,1.);
#721=VECTOR('',#1184,1.);
#722=VECTOR('',#1187,1.);
#723=VECTOR('',#1188,1.);
#724=VECTOR('',#1189,1.);
#725=VECTOR('',#1190,1.);
#726=VECTOR('',#1193,1.);
#727=VECTOR('',#1194,1.);
#728=VECTOR('',#1195,1.);
#729=VECTOR('',#1196,1.);
#730=VECTOR('',#1197,1.);
#731=VECTOR('',#1198,1.);
#732=VECTOR('',#1199,1.);
#733=VECTOR('',#1200,1.);
#734=VECTOR('',#1201,1.);
#735=VECTOR('',#1202,1.);
#736=VECTOR('',#1203,1.);
#737=VECTOR('',#1204,1.);
#738=VECTOR('',#1205,1.);
#739=VECTOR('',#1206,1.);
#740=VECTOR('',#1207,1.);
#741=VECTOR('',#1208,1.);
#742=VECTOR('',#1209,1.);
#743=VECTOR('',#1210,1.);
#744=VECTOR('',#1211,1.);
#745=VECTOR('',#1214,1.);
#746=VECTOR('',#1215,1.);
#747=VECTOR('',#1218,1.);
#748=VECTOR('',#1223,1.);
#749=VECTOR('',#1224,1.);
#750=VECTOR('',#1225,1.);
#751=VECTOR('',#1226,1.);
#752=VECTOR('',#1229,1.);
#753=VECTOR('',#1230,1.);
#754=VECTOR('',#1231,1.);
#755=VECTOR('',#1232,1.);
#756=VECTOR('',#1233,1.);
#757=VECTOR('',#1234,1.);
#758=VECTOR('',#1235,1.);
#759=VECTOR('',#1238,1.);
#760=VECTOR('',#1239,1.);
#761=VECTOR('',#1240,1.);
#762=VECTOR('',#1243,1.);
#763=VECTOR('',#1244,1.);
#764=VECTOR('',#1245,1.);
#765=VECTOR('',#1246,1.);
#766=VECTOR('',#1247,1.);
#767=VECTOR('',#1248,1.);
#768=VECTOR('',#1251,1.);
#769=VECTOR('',#1258,1.);
#770=VECTOR('',#1259,1.);
#771=VECTOR('',#1260,1.);
#772=VECTOR('',#1261,1.);
#773=VECTOR('',#1262,1.);
#774=VECTOR('',#1263,1.);
#775=VECTOR('',#1264,1.);
#776=VECTOR('',#1265,1.);
#777=VECTOR('',#1266,1.);
#778=VECTOR('',#1267,1.);
#779=VECTOR('',#1268,1.);
#780=VECTOR('',#1269,1.);
#781=VECTOR('',#1270,1.);
#782=VECTOR('',#1271,1.);
#783=VECTOR('',#1272,1.);
#784=VECTOR('',#1273,1.);
#785=VECTOR('',#1274,1.);
#786=VECTOR('',#1275,1.);
#787=VECTOR('',#1276,1.);
#788=VECTOR('',#1277,1.);
#789=VECTOR('',#1278,1.);
#790=VECTOR('',#1279,1.);
#791=VECTOR('',#1280,1.);
#792=VECTOR('',#1281,1.);
#793=VECTOR('',#1282,1.);
#794=VECTOR('',#1283,1.);
#795=VECTOR('',#1284,1.);
#796=VECTOR('',#1285,1.);
#797=VECTOR('',#1286,1.);
#798=VECTOR('',#1287,1.);
#799=VECTOR('',#1288,1.);
#800=VECTOR('',#1307,1.);
#801=VECTOR('',#1308,1.);
#802=VECTOR('',#1311,1.);
#803=VECTOR('',#1314,1.);
#804=VECTOR('',#1319,1.);
#805=VECTOR('',#1320,1.);
#806=VECTOR('',#1323,1.);
#807=VECTOR('',#1326,1.);
#808=VECTOR('',#1331,1.);
#809=VECTOR('',#1332,1.);
#810=VECTOR('',#1335,1.);
#811=VECTOR('',#1338,1.);
#812=VECTOR('',#1343,1.);
#813=VECTOR('',#1344,1.);
#814=VECTOR('',#1345,1.);
#815=VECTOR('',#1348,1.);
#816=VECTOR('',#1349,1.);
#817=VECTOR('',#1352,1.);
#818=VECTOR('',#1353,1.);
#819=VECTOR('',#1356,1.);
#820=VECTOR('',#1361,1.);
#821=VECTOR('',#1362,1.);
#822=VECTOR('',#1363,1.);
#823=VECTOR('',#1366,1.);
#824=VECTOR('',#1367,1.);
#825=VECTOR('',#1370,1.);
#826=VECTOR('',#1371,1.);
#827=VECTOR('',#1374,1.);
#828=VECTOR('',#1379,1.);
#829=VECTOR('',#1380,1.);
#830=VECTOR('',#1381,1.);
#831=VECTOR('',#1384,1.);
#832=VECTOR('',#1385,1.);
#833=VECTOR('',#1388,1.);
#834=VECTOR('',#1389,1.);
#835=VECTOR('',#1392,1.);
#836=VECTOR('',#1397,1.);
#837=VECTOR('',#1398,1.);
#838=VECTOR('',#1399,1.);
#839=VECTOR('',#1402,1.);
#840=VECTOR('',#1403,1.);
#841=VECTOR('',#1406,1.);
#842=VECTOR('',#1407,1.);
#843=VECTOR('',#1410,1.);
#844=VECTOR('',#1415,1.);
#845=VECTOR('',#1418,1.);
#846=VECTOR('',#1419,1.);
#847=VECTOR('',#1420,1.);
#848=VECTOR('',#1423,1.);
#849=VECTOR('',#1424,1.);
#850=VECTOR('',#1425,1.);
#851=VECTOR('',#1426,1.);
#852=VECTOR('',#1427,1.);
#853=VECTOR('',#1428,1.);
#854=VECTOR('',#1431,1.);
#855=VECTOR('',#1434,1.);
#856=VECTOR('',#1441,1.);
#857=VECTOR('',#1442,1.);
#858=EDGE_LOOP('',(#24,#25,#26,#27,#28,#29));
#859=EDGE_LOOP('',(#30,#31,#32,#33));
#860=EDGE_LOOP('',(#34,#35,#36,#37,#38,#39,#40,#41));
#861=EDGE_LOOP('',(#42,#43,#44,#45));
#862=EDGE_LOOP('',(#46,#47,#48,#49));
#863=EDGE_LOOP('',(#50,#51,#52,#53));
#864=EDGE_LOOP('',(#54,#55,#56,#57,#58,#59));
#865=EDGE_LOOP('',(#60,#61,#62,#63));
#866=EDGE_LOOP('',(#64,#65,#66,#67,#68,#69,#70,#71));
#867=EDGE_LOOP('',(#72,#73,#74,#75));
#868=EDGE_LOOP('',(#76,#77,#78,#79,#80,#81));
#869=EDGE_LOOP('',(#82,#83,#84,#85,#86,#87));
#870=EDGE_LOOP('',(#88,#89,#90,#91));
#871=EDGE_LOOP('',(#92,#93,#94,#95));
#872=EDGE_LOOP('',(#96,#97,#98,#99));
#873=EDGE_LOOP('',(#100,#101,#102,#103));
#874=EDGE_LOOP('',(#104,#105,#106,#107));
#875=EDGE_LOOP('',(#108,#109,#110,#111));
#876=EDGE_LOOP('',(#112,#113,#114,#115));
#877=EDGE_LOOP('',(#116,#117,#118,#119,#120,#121,#122,#123,#124,#125,#126,
#127));
#878=EDGE_LOOP('',(#128,#129,#130,#131));
#879=EDGE_LOOP('',(#132,#133,#134,#135));
#880=EDGE_LOOP('',(#136,#137,#138,#139));
#881=EDGE_LOOP('',(#140,#141,#142,#143));
#882=EDGE_LOOP('',(#144,#145,#146,#147));
#883=EDGE_LOOP('',(#148,#149,#150,#151));
#884=EDGE_LOOP('',(#152,#153,#154,#155));
#885=EDGE_LOOP('',(#156,#157,#158,#159));
#886=EDGE_LOOP('',(#160,#161,#162,#163));
#887=EDGE_LOOP('',(#164,#165,#166,#167));
#888=EDGE_LOOP('',(#168,#169,#170,#171));
#889=EDGE_LOOP('',(#172,#173,#174,#175));
#890=EDGE_LOOP('',(#176,#177,#178,#179));
#891=EDGE_LOOP('',(#180,#181,#182,#183));
#892=EDGE_LOOP('',(#184,#185,#186,#187));
#893=EDGE_LOOP('',(#188,#189,#190,#191));
#894=EDGE_LOOP('',(#192,#193,#194,#195));
#895=EDGE_LOOP('',(#196,#197,#198,#199));
#896=EDGE_LOOP('',(#200,#201,#202,#203));
#897=EDGE_LOOP('',(#204,#205,#206,#207));
#898=EDGE_LOOP('',(#208,#209,#210,#211));
#899=EDGE_LOOP('',(#212,#213,#214,#215));
#900=EDGE_LOOP('',(#216,#217,#218,#219));
#901=EDGE_LOOP('',(#220,#221,#222,#223));
#902=EDGE_LOOP('',(#224,#225,#226,#227));
#903=EDGE_LOOP('',(#228,#229,#230,#231));
#904=EDGE_LOOP('',(#232,#233,#234,#235));
#905=EDGE_LOOP('',(#236,#237,#238,#239));
#906=EDGE_LOOP('',(#240,#241,#242,#243));
#907=EDGE_LOOP('',(#244,#245,#246,#247));
#908=EDGE_LOOP('',(#248,#249,#250,#251));
#909=EDGE_LOOP('',(#252,#253,#254,#255));
#910=EDGE_LOOP('',(#256,#257,#258,#259));
#911=EDGE_LOOP('',(#260,#261,#262,#263));
#912=EDGE_LOOP('',(#264,#265,#266,#267));
#913=EDGE_LOOP('',(#268,#269,#270,#271));
#914=EDGE_LOOP('',(#272,#273,#274,#275));
#915=EDGE_LOOP('',(#276,#277,#278,#279));
#916=EDGE_LOOP('',(#280,#281,#282,#283,#284,#285,#286,#287,#288,#289,#290,
#291));
#917=EDGE_LOOP('',(#292,#293,#294,#295));
#918=EDGE_LOOP('',(#296,#297,#298,#299));
#919=EDGE_LOOP('',(#300,#301,#302,#303));
#920=EDGE_LOOP('',(#304,#305,#306,#307));
#921=EDGE_LOOP('',(#308,#309,#310,#311));
#922=EDGE_LOOP('',(#312,#313,#314,#315,#316,#317));
#923=EDGE_LOOP('',(#318,#319,#320,#321,#322,#323));
#924=FACE_BOUND('',#858,.T.);
#925=FACE_BOUND('',#859,.T.);
#926=FACE_BOUND('',#860,.T.);
#927=FACE_BOUND('',#861,.T.);
#928=FACE_BOUND('',#862,.T.);
#929=FACE_BOUND('',#863,.T.);
#930=FACE_BOUND('',#864,.T.);
#931=FACE_BOUND('',#865,.T.);
#932=FACE_BOUND('',#866,.T.);
#933=FACE_BOUND('',#867,.T.);
#934=FACE_BOUND('',#868,.T.);
#935=FACE_BOUND('',#869,.T.);
#936=FACE_BOUND('',#870,.T.);
#937=FACE_BOUND('',#871,.T.);
#938=FACE_BOUND('',#872,.T.);
#939=FACE_BOUND('',#873,.T.);
#940=FACE_BOUND('',#874,.T.);
#941=FACE_BOUND('',#875,.T.);
#942=FACE_BOUND('',#876,.T.);
#943=FACE_BOUND('',#877,.T.);
#944=FACE_BOUND('',#878,.T.);
#945=FACE_BOUND('',#879,.T.);
#946=FACE_BOUND('',#880,.T.);
#947=FACE_BOUND('',#881,.T.);
#948=FACE_BOUND('',#882,.T.);
#949=FACE_BOUND('',#883,.T.);
#950=FACE_BOUND('',#884,.T.);
#951=FACE_BOUND('',#885,.T.);
#952=FACE_BOUND('',#886,.T.);
#953=FACE_BOUND('',#887,.T.);
#954=FACE_BOUND('',#888,.T.);
#955=FACE_BOUND('',#889,.T.);
#956=FACE_BOUND('',#890,.T.);
#957=FACE_BOUND('',#891,.T.);
#958=FACE_BOUND('',#892,.T.);
#959=FACE_BOUND('',#893,.T.);
#960=FACE_BOUND('',#894,.T.);
#961=FACE_BOUND('',#895,.T.);
#962=FACE_BOUND('',#896,.T.);
#963=FACE_BOUND('',#897,.T.);
#964=FACE_BOUND('',#898,.T.);
#965=FACE_BOUND('',#899,.T.);
#966=FACE_BOUND('',#900,.T.);
#967=FACE_BOUND('',#901,.T.);
#968=FACE_BOUND('',#902,.T.);
#969=FACE_BOUND('',#903,.T.);
#970=FACE_BOUND('',#904,.T.);
#971=FACE_BOUND('',#905,.T.);
#972=FACE_BOUND('',#906,.T.);
#973=FACE_BOUND('',#907,.T.);
#974=FACE_BOUND('',#908,.T.);
#975=FACE_BOUND('',#909,.T.);
#976=FACE_BOUND('',#910,.T.);
#977=FACE_BOUND('',#911,.T.);
#978=FACE_BOUND('',#912,.T.);
#979=FACE_BOUND('',#913,.T.);
#980=FACE_BOUND('',#914,.T.);
#981=FACE_BOUND('',#915,.T.);
#982=FACE_BOUND('',#916,.T.);
#983=FACE_BOUND('',#917,.T.);
#984=FACE_BOUND('',#918,.T.);
#985=FACE_BOUND('',#919,.T.);
#986=FACE_BOUND('',#920,.T.);
#987=FACE_BOUND('',#921,.T.);
#988=FACE_BOUND('',#922,.T.);
#989=FACE_BOUND('',#923,.T.);
#990=PLANE('',#1111);
#991=PLANE('',#1112);
#992=PLANE('',#1113);
#993=PLANE('',#1114);
#994=PLANE('',#1117);
#995=PLANE('',#1118);
#996=PLANE('',#1119);
#997=PLANE('',#1120);
#998=PLANE('',#1121);
#999=PLANE('',#1124);
#1000=PLANE('',#1133);
#1001=PLANE('',#1134);
#1002=PLANE('',#1135);
#1003=PLANE('',#1136);
#1004=PLANE('',#1137);
#1005=PLANE('',#1138);
#1006=PLANE('',#1139);
#1007=PLANE('',#1140);
#1008=PLANE('',#1141);
#1009=PLANE('',#1142);
#1010=PLANE('',#1143);
#1011=PLANE('',#1144);
#1012=PLANE('',#1145);
#1013=PLANE('',#1146);
#1014=PLANE('',#1147);
#1015=PLANE('',#1148);
#1016=PLANE('',#1149);
#1017=PLANE('',#1150);
#1018=PLANE('',#1151);
#1019=PLANE('',#1152);
#1020=PLANE('',#1153);
#1021=PLANE('',#1154);
#1022=PLANE('',#1155);
#1023=PLANE('',#1156);
#1024=PLANE('',#1157);
#1025=PLANE('',#1158);
#1026=PLANE('',#1159);
#1027=PLANE('',#1160);
#1028=PLANE('',#1161);
#1029=PLANE('',#1162);
#1030=PLANE('',#1163);
#1031=PLANE('',#1164);
#1032=PLANE('',#1165);
#1033=PLANE('',#1166);
#1034=PLANE('',#1167);
#1035=PLANE('',#1168);
#1036=PLANE('',#1169);
#1037=PLANE('',#1170);
#1038=PLANE('',#1171);
#1039=PLANE('',#1172);
#1040=PLANE('',#1173);
#1041=PLANE('',#1174);
#1042=ADVANCED_FACE('',(#924),#990,.T.);
#1043=ADVANCED_FACE('',(#925),#991,.F.);
#1044=ADVANCED_FACE('',(#926,#927,#928,#929),#992,.T.);
#1045=ADVANCED_FACE('',(#930),#993,.T.);
#1046=ADVANCED_FACE('',(#931),#994,.T.);
#1047=ADVANCED_FACE('',(#932),#995,.F.);
#1048=ADVANCED_FACE('',(#933),#996,.F.);
#1049=ADVANCED_FACE('',(#934),#997,.T.);
#1050=ADVANCED_FACE('',(#935),#998,.T.);
#1051=ADVANCED_FACE('',(#936,#937,#938,#939,#940,#941,#942,#943),#999,.F.);
#1052=ADVANCED_FACE('',(#944),#12,.T.);
#1053=ADVANCED_FACE('',(#945),#13,.T.);
#1054=ADVANCED_FACE('',(#946),#14,.T.);
#1055=ADVANCED_FACE('',(#947),#15,.T.);
#1056=ADVANCED_FACE('',(#948),#1000,.F.);
#1057=ADVANCED_FACE('',(#949),#1001,.T.);
#1058=ADVANCED_FACE('',(#950),#1002,.T.);
#1059=ADVANCED_FACE('',(#951),#1003,.F.);
#1060=ADVANCED_FACE('',(#952),#1004,.F.);
#1061=ADVANCED_FACE('',(#953),#1005,.T.);
#1062=ADVANCED_FACE('',(#954),#1006,.T.);
#1063=ADVANCED_FACE('',(#955),#1007,.F.);
#1064=ADVANCED_FACE('',(#956),#1008,.F.);
#1065=ADVANCED_FACE('',(#957),#1009,.T.);
#1066=ADVANCED_FACE('',(#958),#1010,.T.);
#1067=ADVANCED_FACE('',(#959),#1011,.F.);
#1068=ADVANCED_FACE('',(#960),#1012,.T.);
#1069=ADVANCED_FACE('',(#961),#1013,.F.);
#1070=ADVANCED_FACE('',(#962),#1014,.F.);
#1071=ADVANCED_FACE('',(#963),#1015,.T.);
#1072=ADVANCED_FACE('',(#964),#1016,.F.);
#1073=ADVANCED_FACE('',(#965),#1017,.T.);
#1074=ADVANCED_FACE('',(#966),#1018,.F.);
#1075=ADVANCED_FACE('',(#967),#1019,.F.);
#1076=ADVANCED_FACE('',(#968),#1020,.T.);
#1077=ADVANCED_FACE('',(#969),#1021,.F.);
#1078=ADVANCED_FACE('',(#970),#1022,.T.);
#1079=ADVANCED_FACE('',(#971),#1023,.F.);
#1080=ADVANCED_FACE('',(#972),#1024,.F.);
#1081=ADVANCED_FACE('',(#973),#1025,.T.);
#1082=ADVANCED_FACE('',(#974),#1026,.F.);
#1083=ADVANCED_FACE('',(#975),#1027,.T.);
#1084=ADVANCED_FACE('',(#976),#1028,.F.);
#1085=ADVANCED_FACE('',(#977),#1029,.F.);
#1086=ADVANCED_FACE('',(#978),#1030,.T.);
#1087=ADVANCED_FACE('',(#979),#1031,.F.);
#1088=ADVANCED_FACE('',(#980),#1032,.T.);
#1089=ADVANCED_FACE('',(#981),#1033,.F.);
#1090=ADVANCED_FACE('',(#982),#1034,.T.);
#1091=ADVANCED_FACE('',(#983),#1035,.T.);
#1092=ADVANCED_FACE('',(#984),#1036,.F.);
#1093=ADVANCED_FACE('',(#985),#1037,.T.);
#1094=ADVANCED_FACE('',(#986),#1038,.F.);
#1095=ADVANCED_FACE('',(#987),#1039,.T.);
#1096=ADVANCED_FACE('',(#988),#1040,.F.);
#1097=ADVANCED_FACE('',(#989),#1041,.T.);
#1098=CLOSED_SHELL('',(#1042,#1043,#1044,#1045,#1046,#1047,#1048,#1049,
#1050,#1051,#1052,#1053,#1054,#1055,#1056,#1057,#1058,#1059,#1060,#1061,
#1062,#1063,#1064,#1065,#1066,#1067,#1068,#1069,#1070,#1071,#1072,#1073,
#1074,#1075,#1076,#1077,#1078,#1079,#1080,#1081,#1082,#1083,#1084,#1085,
#1086,#1087,#1088,#1089,#1090,#1091,#1092,#1093,#1094,#1095,#1096,#1097));
#1099=STYLED_ITEM('',(#1100),#1107);
#1100=PRESENTATION_STYLE_ASSIGNMENT((#1101));
#1101=SURFACE_STYLE_USAGE(.BOTH.,#1102);
#1102=SURFACE_SIDE_STYLE('',(#1103));
#1103=SURFACE_STYLE_FILL_AREA(#1104);
#1104=FILL_AREA_STYLE('',(#1105));
#1105=FILL_AREA_STYLE_COLOUR('',#1106);
#1106=COLOUR_RGB('',0.36078431372549,0.6,0.768627450980392);
#1107=MANIFOLD_SOLID_BREP(
'11 Removable ESP32 carrier - header-body openings',#1098);
#1108=SHAPE_DEFINITION_REPRESENTATION(#1760,#1109);
#1109=SHAPE_REPRESENTATION(
'11 Removable ESP32 carrier - header-body openings',(#1110),#1755);
#1110=AXIS2_PLACEMENT_3D('',#1447,#1175,#1176);
#1111=AXIS2_PLACEMENT_3D('',#1448,#1177,#1178);
#1112=AXIS2_PLACEMENT_3D('',#1461,#1185,#1186);
#1113=AXIS2_PLACEMENT_3D('',#1470,#1191,#1192);
#1114=AXIS2_PLACEMENT_3D('',#1508,#1212,#1213);
#1115=AXIS2_PLACEMENT_3D('',#1513,#1216,#1217);
#1116=AXIS2_PLACEMENT_3D('',#1517,#1219,#1220);
#1117=AXIS2_PLACEMENT_3D('',#1518,#1221,#1222);
#1118=AXIS2_PLACEMENT_3D('',#1527,#1227,#1228);
#1119=AXIS2_PLACEMENT_3D('',#1541,#1236,#1237);
#1120=AXIS2_PLACEMENT_3D('',#1547,#1241,#1242);
#1121=AXIS2_PLACEMENT_3D('',#1560,#1249,#1250);
#1122=AXIS2_PLACEMENT_3D('',#1562,#1252,#1253);
#1123=AXIS2_PLACEMENT_3D('',#1563,#1254,#1255);
#1124=AXIS2_PLACEMENT_3D('',#1564,#1256,#1257);
#1125=AXIS2_PLACEMENT_3D('',#1626,#1289,#1290);
#1126=AXIS2_PLACEMENT_3D('',#1627,#1291,#1292);
#1127=AXIS2_PLACEMENT_3D('',#1628,#1293,#1294);
#1128=AXIS2_PLACEMENT_3D('',#1629,#1295,#1296);
#1129=AXIS2_PLACEMENT_3D('',#1630,#1297,#1298);
#1130=AXIS2_PLACEMENT_3D('',#1631,#1299,#1300);
#1131=AXIS2_PLACEMENT_3D('',#1632,#1301,#1302);
#1132=AXIS2_PLACEMENT_3D('',#1633,#1303,#1304);
#1133=AXIS2_PLACEMENT_3D('',#1634,#1305,#1306);
#1134=AXIS2_PLACEMENT_3D('',#1637,#1309,#1310);
#1135=AXIS2_PLACEMENT_3D('',#1639,#1312,#1313);
#1136=AXIS2_PLACEMENT_3D('',#1641,#1315,#1316);
#1137=AXIS2_PLACEMENT_3D('',#1642,#1317,#1318);
#1138=AXIS2_PLACEMENT_3D('',#1645,#1321,#1322);
#1139=AXIS2_PLACEMENT_3D('',#1647,#1324,#1325);
#1140=AXIS2_PLACEMENT_3D('',#1649,#1327,#1328);
#1141=AXIS2_PLACEMENT_3D('',#1650,#1329,#1330);
#1142=AXIS2_PLACEMENT_3D('',#1653,#1333,#1334);
#1143=AXIS2_PLACEMENT_3D('',#1655,#1336,#1337);
#1144=AXIS2_PLACEMENT_3D('',#1657,#1339,#1340);
#1145=AXIS2_PLACEMENT_3D('',#1658,#1341,#1342);
#1146=AXIS2_PLACEMENT_3D('',#1664,#1346,#1347);
#1147=AXIS2_PLACEMENT_3D('',#1668,#1350,#1351);
#1148=AXIS2_PLACEMENT_3D('',#1672,#1354,#1355);
#1149=AXIS2_PLACEMENT_3D('',#1674,#1357,#1358);
#1150=AXIS2_PLACEMENT_3D('',#1675,#1359,#1360);
#1151=AXIS2_PLACEMENT_3D('',#1681,#1364,#1365);
#1152=AXIS2_PLACEMENT_3D('',#1685,#1368,#1369);
#1153=AXIS2_PLACEMENT_3D('',#1689,#1372,#1373);
#1154=AXIS2_PLACEMENT_3D('',#1691,#1375,#1376);
#1155=AXIS2_PLACEMENT_3D('',#1692,#1377,#1378);
#1156=AXIS2_PLACEMENT_3D('',#1698,#1382,#1383);
#1157=AXIS2_PLACEMENT_3D('',#1702,#1386,#1387);
#1158=AXIS2_PLACEMENT_3D('',#1706,#1390,#1391);
#1159=AXIS2_PLACEMENT_3D('',#1708,#1393,#1394);
#1160=AXIS2_PLACEMENT_3D('',#1709,#1395,#1396);
#1161=AXIS2_PLACEMENT_3D('',#1715,#1400,#1401);
#1162=AXIS2_PLACEMENT_3D('',#1719,#1404,#1405);
#1163=AXIS2_PLACEMENT_3D('',#1723,#1408,#1409);
#1164=AXIS2_PLACEMENT_3D('',#1725,#1411,#1412);
#1165=AXIS2_PLACEMENT_3D('',#1726,#1413,#1414);
#1166=AXIS2_PLACEMENT_3D('',#1728,#1416,#1417);
#1167=AXIS2_PLACEMENT_3D('',#1734,#1421,#1422);
#1168=AXIS2_PLACEMENT_3D('',#1743,#1429,#1430);
#1169=AXIS2_PLACEMENT_3D('',#1745,#1432,#1433);
#1170=AXIS2_PLACEMENT_3D('',#1747,#1435,#1436);
#1171=AXIS2_PLACEMENT_3D('',#1748,#1437,#1438);
#1172=AXIS2_PLACEMENT_3D('',#1749,#1439,#1440);
#1173=AXIS2_PLACEMENT_3D('',#1752,#1443,#1444);
#1174=AXIS2_PLACEMENT_3D('',#1753,#1445,#1446);
#1175=DIRECTION('',(0.,0.,1.));
#1176=DIRECTION('',(1.,0.,0.));
#1177=DIRECTION('',(0.,1.,0.));
#1178=DIRECTION('',(0.,0.,1.));
#1179=DIRECTION('',(1.,0.,0.));
#1180=DIRECTION('',(0.,0.,1.));
#1181=DIRECTION('',(1.,0.,0.));
#1182=DIRECTION('',(0.,0.,-1.));
#1183=DIRECTION('',(1.,0.,0.));
#1184=DIRECTION('',(0.,0.,-1.));
#1185=DIRECTION('',(0.,1.,0.));
#1186=DIRECTION('',(0.,0.,1.));
#1187=DIRECTION('',(0.,0.,1.));
#1188=DIRECTION('',(-1.,0.,0.));
#1189=DIRECTION('',(0.,0.,-1.));
#1190=DIRECTION('',(1.,0.,0.));
#1191=DIRECTION('',(0.,0.,1.));
#1192=DIRECTION('',(1.,0.,0.));
#1193=DIRECTION('',(0.,-1.,0.));
#1194=DIRECTION('',(-1.,0.,0.));
#1195=DIRECTION('',(0.,-1.,0.));
#1196=DIRECTION('',(-1.,0.,0.));
#1197=DIRECTION('',(0.,-1.,0.));
#1198=DIRECTION('',(0.,-1.,0.));
#1199=DIRECTION('',(-1.,0.,0.));
#1200=DIRECTION('',(0.,-1.,0.));
#1201=DIRECTION('',(-1.,0.,0.));
#1202=DIRECTION('',(0.,-1.,0.));
#1203=DIRECTION('',(-1.,0.,0.));
#1204=DIRECTION('',(0.,-1.,0.));
#1205=DIRECTION('',(-1.,0.,0.));
#1206=DIRECTION('',(0.,-1.,0.));
#1207=DIRECTION('',(-1.,0.,0.));
#1208=DIRECTION('',(0.,-1.,0.));
#1209=DIRECTION('',(-1.,0.,0.));
#1210=DIRECTION('',(0.,-1.,0.));
#1211=DIRECTION('',(-1.,0.,0.));
#1212=DIRECTION('',(0.,0.,1.));
#1213=DIRECTION('',(1.,0.,0.));
#1214=DIRECTION('',(0.,-1.,0.));
#1215=DIRECTION('',(1.,0.,0.));
#1216=DIRECTION('',(0.,0.,1.));
#1217=DIRECTION('',(1.,0.,0.));
#1218=DIRECTION('',(0.,1.,0.));
#1219=DIRECTION('',(0.,0.,1.));
#1220=DIRECTION('',(1.,0.,0.));
#1221=DIRECTION('',(-1.,0.,0.));
#1222=DIRECTION('',(0.,0.,1.));
#1223=DIRECTION('',(0.,1.,0.));
#1224=DIRECTION('',(0.,0.,-1.));
#1225=DIRECTION('',(0.,1.,0.));
#1226=DIRECTION('',(0.,0.,-1.));
#1227=DIRECTION('',(0.,1.,0.));
#1228=DIRECTION('',(0.,0.,1.));
#1229=DIRECTION('',(0.,0.,-1.));
#1230=DIRECTION('',(1.,0.,0.));
#1231=DIRECTION('',(0.,0.,-1.));
#1232=DIRECTION('',(1.,0.,0.));
#1233=DIRECTION('',(0.,0.,-1.));
#1234=DIRECTION('',(1.,0.,0.));
#1235=DIRECTION('',(0.,0.,-1.));
#1236=DIRECTION('',(-1.,0.,0.));
#1237=DIRECTION('',(0.,0.,1.));
#1238=DIRECTION('',(0.,1.,0.));
#1239=DIRECTION('',(0.,0.,-1.));
#1240=DIRECTION('',(0.,0.,-1.));
#1241=DIRECTION('',(0.,1.,0.));
#1242=DIRECTION('',(0.,0.,1.));
#1243=DIRECTION('',(0.,0.,1.));
#1244=DIRECTION('',(1.,0.,0.));
#1245=DIRECTION('',(0.,0.,-1.));
#1246=DIRECTION('',(1.,0.,0.));
#1247=DIRECTION('',(0.,0.,-1.));
#1248=DIRECTION('',(1.,0.,0.));
#1249=DIRECTION('',(0.,0.,1.));
#1250=DIRECTION('',(1.,0.,0.));
#1251=DIRECTION('',(0.,-1.,0.));
#1252=DIRECTION('',(0.,0.,1.));
#1253=DIRECTION('',(1.,0.,0.));
#1254=DIRECTION('',(0.,0.,1.));
#1255=DIRECTION('',(1.,0.,0.));
#1256=DIRECTION('',(0.,0.,1.));
#1257=DIRECTION('',(1.,0.,0.));
#1258=DIRECTION('',(-1.,0.,0.));
#1259=DIRECTION('',(0.,-1.,0.));
#1260=DIRECTION('',(-1.,0.,0.));
#1261=DIRECTION('',(0.,-1.,0.));
#1262=DIRECTION('',(-1.,0.,0.));
#1263=DIRECTION('',(0.,-1.,0.));
#1264=DIRECTION('',(-1.,0.,0.));
#1265=DIRECTION('',(0.,-1.,0.));
#1266=DIRECTION('',(-1.,0.,0.));
#1267=DIRECTION('',(0.,-1.,0.));
#1268=DIRECTION('',(-1.,0.,0.));
#1269=DIRECTION('',(0.,-1.,0.));
#1270=DIRECTION('',(-1.,0.,0.));
#1271=DIRECTION('',(0.,-1.,0.));
#1272=DIRECTION('',(-1.,0.,0.));
#1273=DIRECTION('',(0.,-1.,0.));
#1274=DIRECTION('',(-1.,0.,0.));
#1275=DIRECTION('',(0.,-1.,0.));
#1276=DIRECTION('',(-1.,0.,0.));
#1277=DIRECTION('',(0.,-1.,0.));
#1278=DIRECTION('',(-1.,0.,0.));
#1279=DIRECTION('',(0.,-1.,0.));
#1280=DIRECTION('',(-1.,0.,0.));
#1281=DIRECTION('',(0.,-1.,0.));
#1282=DIRECTION('',(-1.,0.,0.));
#1283=DIRECTION('',(0.,-1.,0.));
#1284=DIRECTION('',(-1.,0.,0.));
#1285=DIRECTION('',(0.,-1.,0.));
#1286=DIRECTION('',(0.,-1.,0.));
#1287=DIRECTION('',(-1.,0.,0.));
#1288=DIRECTION('',(0.,-1.,0.));
#1289=DIRECTION('',(0.,0.,1.));
#1290=DIRECTION('',(1.,0.,0.));
#1291=DIRECTION('',(0.,0.,1.));
#1292=DIRECTION('',(1.,0.,0.));
#1293=DIRECTION('',(0.,0.,1.));
#1294=DIRECTION('',(1.,0.,0.));
#1295=DIRECTION('',(0.,0.,1.));
#1296=DIRECTION('',(1.,0.,0.));
#1297=DIRECTION('',(0.,0.,1.));
#1298=DIRECTION('',(1.,0.,0.));
#1299=DIRECTION('',(0.,0.,-1.));
#1300=DIRECTION('',(-1.,0.,0.));
#1301=DIRECTION('',(0.,0.,-1.));
#1302=DIRECTION('',(-1.,0.,0.));
#1303=DIRECTION('',(0.,0.,1.));
#1304=DIRECTION('',(1.,0.,0.));
#1305=DIRECTION('',(-1.,0.,0.));
#1306=DIRECTION('',(0.,0.,1.));
#1307=DIRECTION('',(0.,0.,-1.));
#1308=DIRECTION('',(0.,0.,-1.));
#1309=DIRECTION('',(0.,1.,0.));
#1310=DIRECTION('',(0.,0.,1.));
#1311=DIRECTION('',(0.,0.,-1.));
#1312=DIRECTION('',(-1.,0.,0.));
#1313=DIRECTION('',(0.,0.,1.));
#1314=DIRECTION('',(0.,0.,-1.));
#1315=DIRECTION('',(0.,1.,0.));
#1316=DIRECTION('',(0.,0.,1.));
#1317=DIRECTION('',(-1.,0.,0.));
#1318=DIRECTION('',(0.,0.,1.));
#1319=DIRECTION('',(0.,0.,-1.));
#1320=DIRECTION('',(0.,0.,-1.));
#1321=DIRECTION('',(0.,1.,0.));
#1322=DIRECTION('',(0.,0.,1.));
#1323=DIRECTION('',(0.,0.,-1.));
#1324=DIRECTION('',(-1.,0.,0.));
#1325=DIRECTION('',(0.,0.,1.));
#1326=DIRECTION('',(0.,0.,-1.));
#1327=DIRECTION('',(0.,1.,0.));
#1328=DIRECTION('',(0.,0.,1.));
#1329=DIRECTION('',(-1.,0.,0.));
#1330=DIRECTION('',(0.,0.,1.));
#1331=DIRECTION('',(0.,0.,-1.));
#1332=DIRECTION('',(0.,0.,-1.));
#1333=DIRECTION('',(0.,1.,0.));
#1334=DIRECTION('',(0.,0.,1.));
#1335=DIRECTION('',(0.,0.,-1.));
#1336=DIRECTION('',(-1.,0.,0.));
#1337=DIRECTION('',(0.,0.,1.));
#1338=DIRECTION('',(0.,0.,-1.));
#1339=DIRECTION('',(0.,1.,0.));
#1340=DIRECTION('',(0.,0.,1.));
#1341=DIRECTION('',(-1.,0.,0.));
#1342=DIRECTION('',(0.,0.,1.));
#1343=DIRECTION('',(0.,0.,-1.));
#1344=DIRECTION('',(0.,1.,0.));
#1345=DIRECTION('',(0.,0.,-1.));
#1346=DIRECTION('',(0.,1.,0.));
#1347=DIRECTION('',(0.,0.,1.));
#1348=DIRECTION('',(0.,0.,-1.));
#1349=DIRECTION('',(1.,0.,0.));
#1350=DIRECTION('',(-1.,0.,0.));
#1351=DIRECTION('',(0.,0.,1.));
#1352=DIRECTION('',(0.,0.,-1.));
#1353=DIRECTION('',(0.,1.,0.));
#1354=DIRECTION('',(0.,1.,0.));
#1355=DIRECTION('',(0.,0.,1.));
#1356=DIRECTION('',(1.,0.,0.));
#1357=DIRECTION('',(0.,0.,1.));
#1358=DIRECTION('',(1.,0.,0.));
#1359=DIRECTION('',(-1.,0.,0.));
#1360=DIRECTION('',(0.,0.,1.));
#1361=DIRECTION('',(0.,0.,-1.));
#1362=DIRECTION('',(0.,1.,0.));
#1363=DIRECTION('',(0.,0.,-1.));
#1364=DIRECTION('',(0.,1.,0.));
#1365=DIRECTION('',(0.,0.,1.));
#1366=DIRECTION('',(0.,0.,-1.));
#1367=DIRECTION('',(1.,0.,0.));
#1368=DIRECTION('',(-1.,0.,0.));
#1369=DIRECTION('',(0.,0.,1.));
#1370=DIRECTION('',(0.,0.,-1.));
#1371=DIRECTION('',(0.,1.,0.));
#1372=DIRECTION('',(0.,1.,0.));
#1373=DIRECTION('',(0.,0.,1.));
#1374=DIRECTION('',(1.,0.,0.));
#1375=DIRECTION('',(0.,0.,1.));
#1376=DIRECTION('',(1.,0.,0.));
#1377=DIRECTION('',(-1.,0.,0.));
#1378=DIRECTION('',(0.,0.,1.));
#1379=DIRECTION('',(0.,0.,-1.));
#1380=DIRECTION('',(0.,1.,0.));
#1381=DIRECTION('',(0.,0.,-1.));
#1382=DIRECTION('',(0.,1.,0.));
#1383=DIRECTION('',(0.,0.,1.));
#1384=DIRECTION('',(0.,0.,-1.));
#1385=DIRECTION('',(1.,0.,0.));
#1386=DIRECTION('',(-1.,0.,0.));
#1387=DIRECTION('',(0.,0.,1.));
#1388=DIRECTION('',(0.,0.,-1.));
#1389=DIRECTION('',(0.,1.,0.));
#1390=DIRECTION('',(0.,1.,0.));
#1391=DIRECTION('',(0.,0.,1.));
#1392=DIRECTION('',(1.,0.,0.));
#1393=DIRECTION('',(0.,0.,1.));
#1394=DIRECTION('',(1.,0.,0.));
#1395=DIRECTION('',(-1.,0.,0.));
#1396=DIRECTION('',(0.,0.,1.));
#1397=DIRECTION('',(0.,0.,-1.));
#1398=DIRECTION('',(0.,1.,0.));
#1399=DIRECTION('',(0.,0.,-1.));
#1400=DIRECTION('',(0.,1.,0.));
#1401=DIRECTION('',(0.,0.,1.));
#1402=DIRECTION('',(0.,0.,-1.));
#1403=DIRECTION('',(1.,0.,0.));
#1404=DIRECTION('',(-1.,0.,0.));
#1405=DIRECTION('',(0.,0.,1.));
#1406=DIRECTION('',(0.,0.,-1.));
#1407=DIRECTION('',(0.,1.,0.));
#1408=DIRECTION('',(0.,1.,0.));
#1409=DIRECTION('',(0.,0.,1.));
#1410=DIRECTION('',(1.,0.,0.));
#1411=DIRECTION('',(0.,0.,1.));
#1412=DIRECTION('',(1.,0.,0.));
#1413=DIRECTION('',(-1.,0.,0.));
#1414=DIRECTION('',(0.,0.,1.));
#1415=DIRECTION('',(0.,1.,0.));
#1416=DIRECTION('',(-1.,0.,0.));
#1417=DIRECTION('',(0.,0.,1.));
#1418=DIRECTION('',(0.,0.,-1.));
#1419=DIRECTION('',(0.,1.,0.));
#1420=DIRECTION('',(0.,0.,-1.));
#1421=DIRECTION('',(0.,0.,1.));
#1422=DIRECTION('',(1.,0.,0.));
#1423=DIRECTION('',(0.,-1.,0.));
#1424=DIRECTION('',(0.,1.,0.));
#1425=DIRECTION('',(0.,-1.,0.));
#1426=DIRECTION('',(0.,1.,0.));
#1427=DIRECTION('',(1.,0.,0.));
#1428=DIRECTION('',(1.,0.,0.));
#1429=DIRECTION('',(0.,1.,0.));
#1430=DIRECTION('',(0.,0.,1.));
#1431=DIRECTION('',(0.,0.,-1.));
#1432=DIRECTION('',(0.,1.,0.));
#1433=DIRECTION('',(0.,0.,1.));
#1434=DIRECTION('',(0.,0.,1.));
#1435=DIRECTION('',(-1.,0.,0.));
#1436=DIRECTION('',(0.,0.,1.));
#1437=DIRECTION('',(-1.,0.,0.));
#1438=DIRECTION('',(0.,0.,1.));
#1439=DIRECTION('',(0.,1.,0.));
#1440=DIRECTION('',(0.,0.,1.));
#1441=DIRECTION('',(0.,0.,-1.));
#1442=DIRECTION('',(0.,0.,-1.));
#1443=DIRECTION('',(-1.,0.,0.));
#1444=DIRECTION('',(0.,0.,1.));
#1445=DIRECTION('',(-1.,0.,0.));
#1446=DIRECTION('',(0.,0.,1.));
#1447=CARTESIAN_POINT('',(0.,0.,0.));
#1448=CARTESIAN_POINT('',(0.,0.07245,0.01195));
#1449=CARTESIAN_POINT('',(0.,0.07245,0.0096));
#1450=CARTESIAN_POINT('',(0.006,0.07245,0.0096));
#1451=CARTESIAN_POINT('',(0.02475,0.07245,0.0096));
#1452=CARTESIAN_POINT('',(0.006,0.07245,0.01195));
#1453=CARTESIAN_POINT('',(0.006,0.07245,0.0136));
#1454=CARTESIAN_POINT('',(0.,0.07245,0.0136));
#1455=CARTESIAN_POINT('',(0.0165,0.07245,0.0136));
#1456=CARTESIAN_POINT('',(0.0165,0.07245,0.0136));
#1457=CARTESIAN_POINT('',(0.0165,0.07245,0.01195));
#1458=CARTESIAN_POINT('',(0.,0.07245,0.01195));
#1459=CARTESIAN_POINT('',(0.02475,0.07245,0.01195));
#1460=CARTESIAN_POINT('',(0.02475,0.07245,0.0096));
#1461=CARTESIAN_POINT('',(0.,0.0705,0.0136));
#1462=CARTESIAN_POINT('',(0.006,0.0705,0.0136));
#1463=CARTESIAN_POINT('',(0.006,0.0705,0.01195));
#1464=CARTESIAN_POINT('',(0.006,0.0705,0.0136));
#1465=CARTESIAN_POINT('',(0.,0.0705,0.01195));
#1466=CARTESIAN_POINT('',(0.0145,0.0705,0.01195));
#1467=CARTESIAN_POINT('',(0.0145,0.0705,0.0136));
#1468=CARTESIAN_POINT('',(0.0145,0.0705,0.0136));
#1469=CARTESIAN_POINT('',(0.,0.0705,0.0136));
#1470=CARTESIAN_POINT('',(0.,0.044475,0.01195));
#1471=CARTESIAN_POINT('',(-0.006,0.044475,0.01195));
#1472=CARTESIAN_POINT('',(-0.006,0.0705,0.01195));
#1473=CARTESIAN_POINT('',(-0.006,0.0695,0.01195));
#1474=CARTESIAN_POINT('',(0.,0.0705,0.01195));
#1475=CARTESIAN_POINT('',(-0.0145,0.0705,0.01195));
#1476=CARTESIAN_POINT('',(-0.0145,0.044475,0.01195));
#1477=CARTESIAN_POINT('',(-0.0145,0.0185,0.01195));
#1478=CARTESIAN_POINT('',(0.,0.0185,0.01195));
#1479=CARTESIAN_POINT('',(0.0145,0.0185,0.01195));
#1480=CARTESIAN_POINT('',(0.0145,0.044475,0.01195));
#1481=CARTESIAN_POINT('',(0.006,0.044475,0.01195));
#1482=CARTESIAN_POINT('',(0.006,0.0695,0.01195));
#1483=CARTESIAN_POINT('',(0.,0.0695,0.01195));
#1484=CARTESIAN_POINT('',(-0.01447,0.044475,0.01195));
#1485=CARTESIAN_POINT('',(-0.01447,0.06405,0.01195));
#1486=CARTESIAN_POINT('',(-0.01447,0.02495,0.01195));
#1487=CARTESIAN_POINT('',(0.,0.06405,0.01195));
#1488=CARTESIAN_POINT('',(-0.01093,0.06405,0.01195));
#1489=CARTESIAN_POINT('',(-0.01093,0.044475,0.01195));
#1490=CARTESIAN_POINT('',(-0.01093,0.02495,0.01195));
#1491=CARTESIAN_POINT('',(0.,0.02495,0.01195));
#1492=CARTESIAN_POINT('',(0.01093,0.044475,0.01195));
#1493=CARTESIAN_POINT('',(0.01093,0.06405,0.01195));
#1494=CARTESIAN_POINT('',(0.01093,0.02495,0.01195));
#1495=CARTESIAN_POINT('',(0.,0.06405,0.01195));
#1496=CARTESIAN_POINT('',(0.01447,0.06405,0.01195));
#1497=CARTESIAN_POINT('',(0.01447,0.044475,0.01195));
#1498=CARTESIAN_POINT('',(0.01447,0.02495,0.01195));
#1499=CARTESIAN_POINT('',(0.,0.02495,0.01195));
#1500=CARTESIAN_POINT('',(-0.008,0.044475,0.01195));
#1501=CARTESIAN_POINT('',(-0.008,0.062,0.01195));
#1502=CARTESIAN_POINT('',(-0.008,0.027,0.01195));
#1503=CARTESIAN_POINT('',(0.,0.062,0.01195));
#1504=CARTESIAN_POINT('',(0.008,0.062,0.01195));
#1505=CARTESIAN_POINT('',(0.008,0.044475,0.01195));
#1506=CARTESIAN_POINT('',(0.008,0.027,0.01195));
#1507=CARTESIAN_POINT('',(0.,0.027,0.01195));
#1508=CARTESIAN_POINT('',(0.,0.044475,0.01195));
#1509=CARTESIAN_POINT('',(0.0165,0.044475,0.01195));
#1510=CARTESIAN_POINT('',(0.0165,0.0165,0.01195));
#1511=CARTESIAN_POINT('',(0.,0.0165,0.01195));
#1512=CARTESIAN_POINT('',(0.02475,0.0165,0.01195));
#1513=CARTESIAN_POINT('',(0.02475,0.0192,0.01195));
#1514=CARTESIAN_POINT('',(0.02745,0.0192,0.01195));
#1515=CARTESIAN_POINT('',(0.02745,0.044475,0.01195));
#1516=CARTESIAN_POINT('',(0.02745,0.06975,0.01195));
#1517=CARTESIAN_POINT('',(0.02475,0.06975,0.01195));
#1518=CARTESIAN_POINT('',(-0.02745,0.044475,0.01195));
#1519=CARTESIAN_POINT('',(-0.02745,0.044475,0.01195));
#1520=CARTESIAN_POINT('',(-0.02745,0.0192,0.01195));
#1521=CARTESIAN_POINT('',(-0.02745,0.06975,0.01195));
#1522=CARTESIAN_POINT('',(-0.02745,0.06975,0.01195));
#1523=CARTESIAN_POINT('',(-0.02745,0.06975,0.0096));
#1524=CARTESIAN_POINT('',(-0.02745,0.044475,0.0096));
#1525=CARTESIAN_POINT('',(-0.02745,0.0192,0.0096));
#1526=CARTESIAN_POINT('',(-0.02745,0.0192,0.01195));
#1527=CARTESIAN_POINT('',(0.,0.0165,0.01195));
#1528=CARTESIAN_POINT('',(0.0165,0.0165,0.0136));
#1529=CARTESIAN_POINT('',(0.0165,0.0165,0.0136));
#1530=CARTESIAN_POINT('',(0.,0.0165,0.0136));
#1531=CARTESIAN_POINT('',(-0.0165,0.0165,0.0136));
#1532=CARTESIAN_POINT('',(-0.0165,0.0165,0.0136));
#1533=CARTESIAN_POINT('',(-0.0165,0.0165,0.01195));
#1534=CARTESIAN_POINT('',(0.,0.0165,0.01195));
#1535=CARTESIAN_POINT('',(-0.02475,0.0165,0.01195));
#1536=CARTESIAN_POINT('',(-0.02475,0.0165,0.0096));
#1537=CARTESIAN_POINT('',(-0.02475,0.0165,0.0096));
#1538=CARTESIAN_POINT('',(0.,0.0165,0.0096));
#1539=CARTESIAN_POINT('',(0.02475,0.0165,0.0096));
#1540=CARTESIAN_POINT('',(0.02475,0.0165,0.01195));
#1541=CARTESIAN_POINT('',(0.02745,0.044475,0.01195));
#1542=CARTESIAN_POINT('',(0.02745,0.044475,0.0096));
#1543=CARTESIAN_POINT('',(0.02745,0.0192,0.0096));
#1544=CARTESIAN_POINT('',(0.02745,0.06975,0.0096));
#1545=CARTESIAN_POINT('',(0.02745,0.06975,0.01195));
#1546=CARTESIAN_POINT('',(0.02745,0.0192,0.01195));
#1547=CARTESIAN_POINT('',(0.,0.07245,0.01195));
#1548=CARTESIAN_POINT('',(-0.006,0.07245,0.01195));
#1549=CARTESIAN_POINT('',(-0.006,0.07245,0.0096));
#1550=CARTESIAN_POINT('',(-0.006,0.07245,0.0136));
#1551=CARTESIAN_POINT('',(0.,0.07245,0.0096));
#1552=CARTESIAN_POINT('',(-0.02475,0.07245,0.0096));
#1553=CARTESIAN_POINT('',(-0.02475,0.07245,0.01195));
#1554=CARTESIAN_POINT('',(-0.02475,0.07245,0.01195));
#1555=CARTESIAN_POINT('',(0.,0.07245,0.01195));
#1556=CARTESIAN_POINT('',(-0.0165,0.07245,0.01195));
#1557=CARTESIAN_POINT('',(-0.0165,0.07245,0.0136));
#1558=CARTESIAN_POINT('',(-0.0165,0.07245,0.0136));
#1559=CARTESIAN_POINT('',(0.,0.07245,0.0136));
#1560=CARTESIAN_POINT('',(0.,0.044475,0.01195));
#1561=CARTESIAN_POINT('',(-0.0165,0.044475,0.01195));
#1562=CARTESIAN_POINT('',(-0.02475,0.06975,0.01195));
#1563=CARTESIAN_POINT('',(-0.02475,0.0192,0.01195));
#1564=CARTESIAN_POINT('',(0.,0.044475,0.0096));
#1565=CARTESIAN_POINT('',(0.,0.025,0.0096));
#1566=CARTESIAN_POINT('',(-0.02345,0.025,0.0096));
#1567=CARTESIAN_POINT('',(-0.02545,0.025,0.0096));
#1568=CARTESIAN_POINT('',(-0.02545,0.044475,0.0096));
#1569=CARTESIAN_POINT('',(-0.02545,0.021,0.0096));
#1570=CARTESIAN_POINT('',(0.,0.021,0.0096));
#1571=CARTESIAN_POINT('',(-0.02345,0.021,0.0096));
#1572=CARTESIAN_POINT('',(-0.02345,0.044475,0.0096));
#1573=CARTESIAN_POINT('',(0.,0.068,0.0096));
#1574=CARTESIAN_POINT('',(-0.02345,0.068,0.0096));
#1575=CARTESIAN_POINT('',(-0.02545,0.068,0.0096));
#1576=CARTESIAN_POINT('',(-0.02545,0.044475,0.0096));
#1577=CARTESIAN_POINT('',(-0.02545,0.064,0.0096));
#1578=CARTESIAN_POINT('',(0.,0.064,0.0096));
#1579=CARTESIAN_POINT('',(-0.02345,0.064,0.0096));
#1580=CARTESIAN_POINT('',(-0.02345,0.044475,0.0096));
#1581=CARTESIAN_POINT('',(0.,0.025,0.0096));
#1582=CARTESIAN_POINT('',(0.02545,0.025,0.0096));
#1583=CARTESIAN_POINT('',(0.02345,0.025,0.0096));
#1584=CARTESIAN_POINT('',(0.02345,0.044475,0.0096));
#1585=CARTESIAN_POINT('',(0.02345,0.021,0.0096));
#1586=CARTESIAN_POINT('',(0.,0.021,0.0096));
#1587=CARTESIAN_POINT('',(0.02545,0.021,0.0096));
#1588=CARTESIAN_POINT('',(0.02545,0.044475,0.0096));
#1589=CARTESIAN_POINT('',(0.,0.068,0.0096));
#1590=CARTESIAN_POINT('',(0.02545,0.068,0.0096));
#1591=CARTESIAN_POINT('',(0.02345,0.068,0.0096));
#1592=CARTESIAN_POINT('',(0.02345,0.044475,0.0096));
#1593=CARTESIAN_POINT('',(0.02345,0.064,0.0096));
#1594=CARTESIAN_POINT('',(0.,0.064,0.0096));
#1595=CARTESIAN_POINT('',(0.02545,0.064,0.0096));
#1596=CARTESIAN_POINT('',(0.02545,0.044475,0.0096));
#1597=CARTESIAN_POINT('',(0.,0.062,0.0096));
#1598=CARTESIAN_POINT('',(0.008,0.062,0.0096));
#1599=CARTESIAN_POINT('',(-0.008,0.062,0.0096));
#1600=CARTESIAN_POINT('',(-0.008,0.044475,0.0096));
#1601=CARTESIAN_POINT('',(-0.008,0.027,0.0096));
#1602=CARTESIAN_POINT('',(0.,0.027,0.0096));
#1603=CARTESIAN_POINT('',(0.008,0.027,0.0096));
#1604=CARTESIAN_POINT('',(0.008,0.044475,0.0096));
#1605=CARTESIAN_POINT('',(0.,0.06405,0.0096));
#1606=CARTESIAN_POINT('',(0.01447,0.06405,0.0096));
#1607=CARTESIAN_POINT('',(0.01093,0.06405,0.0096));
#1608=CARTESIAN_POINT('',(0.01093,0.044475,0.0096));
#1609=CARTESIAN_POINT('',(0.01093,0.02495,0.0096));
#1610=CARTESIAN_POINT('',(0.,0.02495,0.0096));
#1611=CARTESIAN_POINT('',(0.01447,0.02495,0.0096));
#1612=CARTESIAN_POINT('',(0.01447,0.044475,0.0096));
#1613=CARTESIAN_POINT('',(0.,0.06405,0.0096));
#1614=CARTESIAN_POINT('',(-0.01093,0.06405,0.0096));
#1615=CARTESIAN_POINT('',(-0.01447,0.06405,0.0096));
#1616=CARTESIAN_POINT('',(-0.01447,0.044475,0.0096));
#1617=CARTESIAN_POINT('',(-0.01447,0.02495,0.0096));
#1618=CARTESIAN_POINT('',(0.,0.02495,0.0096));
#1619=CARTESIAN_POINT('',(-0.01093,0.02495,0.0096));
#1620=CARTESIAN_POINT('',(-0.01093,0.044475,0.0096));
#1621=CARTESIAN_POINT('',(-0.006,0.044475,0.0096));
#1622=CARTESIAN_POINT('',(-0.006,0.0695,0.0096));
#1623=CARTESIAN_POINT('',(0.,0.0695,0.0096));
#1624=CARTESIAN_POINT('',(0.006,0.0695,0.0096));
#1625=CARTESIAN_POINT('',(0.006,0.044475,0.0096));
#1626=CARTESIAN_POINT('',(0.02475,0.06975,0.0096));
#1627=CARTESIAN_POINT('',(0.02475,0.0192,0.0096));
#1628=CARTESIAN_POINT('',(-0.02475,0.0192,0.0096));
#1629=CARTESIAN_POINT('',(-0.02475,0.06975,0.0096));
#1630=CARTESIAN_POINT('',(0.02475,0.06975,0.01195));
#1631=CARTESIAN_POINT('',(0.02475,0.0192,0.01195));
#1632=CARTESIAN_POINT('',(-0.02475,0.06975,0.01195));
#1633=CARTESIAN_POINT('',(-0.02475,0.0192,0.01195));
#1634=CARTESIAN_POINT('',(-0.01447,0.0445,0.0146));
#1635=CARTESIAN_POINT('',(-0.01447,0.02495,0.0146));
#1636=CARTESIAN_POINT('',(-0.01447,0.06405,0.0146));
#1637=CARTESIAN_POINT('',(-0.0127,0.02495,0.0146));
#1638=CARTESIAN_POINT('',(-0.01093,0.02495,0.0146));
#1639=CARTESIAN_POINT('',(-0.01093,0.0445,0.0146));
#1640=CARTESIAN_POINT('',(-0.01093,0.06405,0.0146));
#1641=CARTESIAN_POINT('',(-0.0127,0.06405,0.0146));
#1642=CARTESIAN_POINT('',(0.01093,0.0445,0.0146));
#1643=CARTESIAN_POINT('',(0.01093,0.02495,0.0146));
#1644=CARTESIAN_POINT('',(0.01093,0.06405,0.0146));
#1645=CARTESIAN_POINT('',(0.0127,0.02495,0.0146));
#1646=CARTESIAN_POINT('',(0.01447,0.02495,0.0146));
#1647=CARTESIAN_POINT('',(0.01447,0.0445,0.0146));
#1648=CARTESIAN_POINT('',(0.01447,0.06405,0.0146));
#1649=CARTESIAN_POINT('',(0.0127,0.06405,0.0146));
#1650=CARTESIAN_POINT('',(-0.008,0.0445,0.0131));
#1651=CARTESIAN_POINT('',(-0.008,0.027,0.0131));
#1652=CARTESIAN_POINT('',(-0.008,0.062,0.0131));
#1653=CARTESIAN_POINT('',(0.,0.027,0.0131));
#1654=CARTESIAN_POINT('',(0.008,0.027,0.0131));
#1655=CARTESIAN_POINT('',(0.008,0.0445,0.0131));
#1656=CARTESIAN_POINT('',(0.008,0.062,0.0131));
#1657=CARTESIAN_POINT('',(0.,0.062,0.0131));
#1658=CARTESIAN_POINT('',(0.02345,0.066,0.0098));
#1659=CARTESIAN_POINT('',(0.02345,0.068,0.0098));
#1660=CARTESIAN_POINT('',(0.02345,0.068,0.0081));
#1661=CARTESIAN_POINT('',(0.02345,0.066,0.0081));
#1662=CARTESIAN_POINT('',(0.02345,0.064,0.0081));
#1663=CARTESIAN_POINT('',(0.02345,0.064,0.0098));
#1664=CARTESIAN_POINT('',(0.02445,0.064,0.0098));
#1665=CARTESIAN_POINT('',(0.02545,0.064,0.0098));
#1666=CARTESIAN_POINT('',(0.02545,0.064,0.0081));
#1667=CARTESIAN_POINT('',(0.02445,0.064,0.0081));
#1668=CARTESIAN_POINT('',(0.02545,0.066,0.0098));
#1669=CARTESIAN_POINT('',(0.02545,0.068,0.0098));
#1670=CARTESIAN_POINT('',(0.02545,0.068,0.0081));
#1671=CARTESIAN_POINT('',(0.02545,0.066,0.0081));
#1672=CARTESIAN_POINT('',(0.02445,0.068,0.0098));
#1673=CARTESIAN_POINT('',(0.02445,0.068,0.0081));
#1674=CARTESIAN_POINT('',(0.02445,0.066,0.0081));
#1675=CARTESIAN_POINT('',(0.02345,0.023,0.0098));
#1676=CARTESIAN_POINT('',(0.02345,0.025,0.0098));
#1677=CARTESIAN_POINT('',(0.02345,0.025,0.0081));
#1678=CARTESIAN_POINT('',(0.02345,0.023,0.0081));
#1679=CARTESIAN_POINT('',(0.02345,0.021,0.0081));
#1680=CARTESIAN_POINT('',(0.02345,0.021,0.0098));
#1681=CARTESIAN_POINT('',(0.02445,0.021,0.0098));
#1682=CARTESIAN_POINT('',(0.02545,0.021,0.0098));
#1683=CARTESIAN_POINT('',(0.02545,0.021,0.0081));
#1684=CARTESIAN_POINT('',(0.02445,0.021,0.0081));
#1685=CARTESIAN_POINT('',(0.02545,0.023,0.0098));
#1686=CARTESIAN_POINT('',(0.02545,0.025,0.0098));
#1687=CARTESIAN_POINT('',(0.02545,0.025,0.0081));
#1688=CARTESIAN_POINT('',(0.02545,0.023,0.0081));
#1689=CARTESIAN_POINT('',(0.02445,0.025,0.0098));
#1690=CARTESIAN_POINT('',(0.02445,0.025,0.0081));
#1691=CARTESIAN_POINT('',(0.02445,0.023,0.0081));
#1692=CARTESIAN_POINT('',(-0.02545,0.066,0.0098));
#1693=CARTESIAN_POINT('',(-0.02545,0.068,0.0098));
#1694=CARTESIAN_POINT('',(-0.02545,0.068,0.0081));
#1695=CARTESIAN_POINT('',(-0.02545,0.066,0.0081));
#1696=CARTESIAN_POINT('',(-0.02545,0.064,0.0081));
#1697=CARTESIAN_POINT('',(-0.02545,0.064,0.0098));
#1698=CARTESIAN_POINT('',(-0.02445,0.064,0.0098));
#1699=CARTESIAN_POINT('',(-0.02345,0.064,0.0098));
#1700=CARTESIAN_POINT('',(-0.02345,0.064,0.0081));
#1701=CARTESIAN_POINT('',(-0.02445,0.064,0.0081));
#1702=CARTESIAN_POINT('',(-0.02345,0.066,0.0098));
#1703=CARTESIAN_POINT('',(-0.02345,0.068,0.0098));
#1704=CARTESIAN_POINT('',(-0.02345,0.068,0.0081));
#1705=CARTESIAN_POINT('',(-0.02345,0.066,0.0081));
#1706=CARTESIAN_POINT('',(-0.02445,0.068,0.0098));
#1707=CARTESIAN_POINT('',(-0.02445,0.068,0.0081));
#1708=CARTESIAN_POINT('',(-0.02445,0.066,0.0081));
#1709=CARTESIAN_POINT('',(-0.02545,0.023,0.0098));
#1710=CARTESIAN_POINT('',(-0.02545,0.025,0.0098));
#1711=CARTESIAN_POINT('',(-0.02545,0.025,0.0081));
#1712=CARTESIAN_POINT('',(-0.02545,0.023,0.0081));
#1713=CARTESIAN_POINT('',(-0.02545,0.021,0.0081));
#1714=CARTESIAN_POINT('',(-0.02545,0.021,0.0098));
#1715=CARTESIAN_POINT('',(-0.02445,0.021,0.0098));
#1716=CARTESIAN_POINT('',(-0.02345,0.021,0.0098));
#1717=CARTESIAN_POINT('',(-0.02345,0.021,0.0081));
#1718=CARTESIAN_POINT('',(-0.02445,0.021,0.0081));
#1719=CARTESIAN_POINT('',(-0.02345,0.023,0.0098));
#1720=CARTESIAN_POINT('',(-0.02345,0.025,0.0098));
#1721=CARTESIAN_POINT('',(-0.02345,0.025,0.0081));
#1722=CARTESIAN_POINT('',(-0.02345,0.023,0.0081));
#1723=CARTESIAN_POINT('',(-0.02445,0.025,0.0098));
#1724=CARTESIAN_POINT('',(-0.02445,0.025,0.0081));
#1725=CARTESIAN_POINT('',(-0.02445,0.023,0.0081));
#1726=CARTESIAN_POINT('',(-0.0165,0.0445,0.0136));
#1727=CARTESIAN_POINT('',(-0.0165,0.0445,0.0136));
#1728=CARTESIAN_POINT('',(-0.0145,0.0445,0.0136));
#1729=CARTESIAN_POINT('',(-0.0145,0.0705,0.0136));
#1730=CARTESIAN_POINT('',(-0.0145,0.0705,0.0136));
#1731=CARTESIAN_POINT('',(-0.0145,0.0445,0.0136));
#1732=CARTESIAN_POINT('',(-0.0145,0.0185,0.0136));
#1733=CARTESIAN_POINT('',(-0.0145,0.0185,0.0136));
#1734=CARTESIAN_POINT('',(-0.0155,0.0445,0.0136));
#1735=CARTESIAN_POINT('',(-0.006,0.0445,0.0136));
#1736=CARTESIAN_POINT('',(-0.006,0.0705,0.0136));
#1737=CARTESIAN_POINT('',(0.0165,0.0445,0.0136));
#1738=CARTESIAN_POINT('',(0.006,0.0445,0.0136));
#1739=CARTESIAN_POINT('',(0.0145,0.0445,0.0136));
#1740=CARTESIAN_POINT('',(0.0145,0.0185,0.0136));
#1741=CARTESIAN_POINT('',(0.,0.0185,0.0136));
#1742=CARTESIAN_POINT('',(0.,0.0705,0.0136));
#1743=CARTESIAN_POINT('',(0.,0.0185,0.0136));
#1744=CARTESIAN_POINT('',(0.0145,0.0185,0.0136));
#1745=CARTESIAN_POINT('',(0.,0.0705,0.0136));
#1746=CARTESIAN_POINT('',(-0.006,0.0705,0.0136));
#1747=CARTESIAN_POINT('',(0.0145,0.0445,0.0136));
#1748=CARTESIAN_POINT('',(0.0165,0.0445,0.0136));
#1749=CARTESIAN_POINT('',(0.,0.0695,0.0146));
#1750=CARTESIAN_POINT('',(0.006,0.0695,0.0146));
#1751=CARTESIAN_POINT('',(-0.006,0.0695,0.0146));
#1752=CARTESIAN_POINT('',(-0.006,0.071475,0.0146));
#1753=CARTESIAN_POINT('',(0.006,0.071475,0.0146));
#1754=MECHANICAL_DESIGN_GEOMETRIC_PRESENTATION_REPRESENTATION('',(#1099),
#1755);
#1755=(
GEOMETRIC_REPRESENTATION_CONTEXT(3)
GLOBAL_UNCERTAINTY_ASSIGNED_CONTEXT((#1756))
GLOBAL_UNIT_ASSIGNED_CONTEXT((#1759,#1758,#1757))
REPRESENTATION_CONTEXT(
'11 Removable ESP32 carrier - header-body openings',
'TOP_LEVEL_ASSEMBLY_PART')
);
#1756=UNCERTAINTY_MEASURE_WITH_UNIT(LENGTH_MEASURE(1.E-8),#1759,
'DISTANCE_ACCURACY_VALUE','Maximum Tolerance applied to model');
#1757=(
NAMED_UNIT(*)
SI_UNIT($,.STERADIAN.)
SOLID_ANGLE_UNIT()
);
#1758=(
NAMED_UNIT(*)
PLANE_ANGLE_UNIT()
SI_UNIT($,.RADIAN.)
);
#1759=(
LENGTH_UNIT()
NAMED_UNIT(*)
SI_UNIT($,.METRE.)
);
#1760=PRODUCT_DEFINITION_SHAPE('','',#1761);
#1761=PRODUCT_DEFINITION('','',#1763,#1762);
#1762=PRODUCT_DEFINITION_CONTEXT('',#1769,'design');
#1763=PRODUCT_DEFINITION_FORMATION_WITH_SPECIFIED_SOURCE('','',#1765,
 .NOT_KNOWN.);
#1764=PRODUCT_RELATED_PRODUCT_CATEGORY('','',(#1765));
#1765=PRODUCT('11 Removable ESP32 carrier - header-body openings',
'11 Removable ESP32 carrier - header-body openings',
'11 Removable ESP32 carrier - header-body openings',(#1767));
#1766=PRODUCT_CATEGORY('','');
#1767=PRODUCT_CONTEXT('',#1769,'mechanical');
#1768=APPLICATION_PROTOCOL_DEFINITION('international standard',
'ap242_managed_model_based_3d_engineering',2020,#1769);
#1769=APPLICATION_CONTEXT('managed model based 3d engineering');
ENDSEC;
END-ISO-10303-21;
