ISO-10303-21;
HEADER;
/* Generated by software containing ST-Developer
 * from STEP Tools, Inc. (www.steptools.com) 
 */
/* OPTION: using custom renumber hook */

FILE_DESCRIPTION(
/* description */ ('STEP AP242 Edition 2',
'CAx-IF Rec.Pracs.---Representation and Presentation of Product Manufa
cturing Information (PMI)---4.0---2014-10-13',
'CAx-IF Rec.Pracs.---3D Tessellated Geometry---0.4---2014-09-14','2;1',
'CAx-IF Rec.Pracs.---User Defined Attributes---1.5---2016-08-15'),
/* implementation_level */ '2;1');

FILE_NAME(
/* name */ 
'Part Studio 1 - 10 Lower body - right support wire gap 17 mm offset x
 25 mm',
/* time_stamp */ '2026-09-09T16:28:02Z',
/* author */ (''),
/* organization */ (''),
/* preprocessor_version */ 'ST-DEVELOPER v20',
/* originating_system */ 'ONSHAPE BY PTC INC, 1.220',
/* authorisation */ '  ');

FILE_SCHEMA (('AP242_MANAGED_MODEL_BASED_3D_ENGINEERING_MIM_LF { 1 0 10303 442 3 1 4 }'));
ENDSEC;

DATA;
#10=SHAPE_REPRESENTATION_RELATIONSHIP('','',#867,#11);
#11=ADVANCED_BREP_SHAPE_REPRESENTATION('',(#865),#1401);
#12=CYLINDRICAL_SURFACE('',#896,0.003);
#13=CYLINDRICAL_SURFACE('',#897,0.003);
#14=CYLINDRICAL_SURFACE('',#898,0.003);
#15=CYLINDRICAL_SURFACE('',#899,0.003);
#16=CYLINDRICAL_SURFACE('',#902,0.001);
#17=CYLINDRICAL_SURFACE('',#903,0.001);
#18=CYLINDRICAL_SURFACE('',#904,0.001);
#19=CYLINDRICAL_SURFACE('',#905,0.001);
#20=CIRCLE('',#874,0.001);
#21=CIRCLE('',#875,0.001);
#22=CIRCLE('',#876,0.001);
#23=CIRCLE('',#877,0.001);
#24=CIRCLE('',#883,0.001);
#25=CIRCLE('',#884,0.001);
#26=CIRCLE('',#885,0.001);
#27=CIRCLE('',#886,0.001);
#28=CIRCLE('',#887,0.003);
#29=CIRCLE('',#888,0.003);
#30=CIRCLE('',#889,0.003);
#31=CIRCLE('',#890,0.003);
#32=CIRCLE('',#892,0.003);
#33=CIRCLE('',#893,0.003);
#34=CIRCLE('',#894,0.003);
#35=CIRCLE('',#895,0.003);
#36=ORIENTED_EDGE('',*,*,#276,.T.);
#37=ORIENTED_EDGE('',*,*,#277,.T.);
#38=ORIENTED_EDGE('',*,*,#278,.F.);
#39=ORIENTED_EDGE('',*,*,#279,.F.);
#40=ORIENTED_EDGE('',*,*,#280,.F.);
#41=ORIENTED_EDGE('',*,*,#281,.T.);
#42=ORIENTED_EDGE('',*,*,#282,.T.);
#43=ORIENTED_EDGE('',*,*,#283,.F.);
#44=ORIENTED_EDGE('',*,*,#284,.F.);
#45=ORIENTED_EDGE('',*,*,#285,.T.);
#46=ORIENTED_EDGE('',*,*,#286,.T.);
#47=ORIENTED_EDGE('',*,*,#287,.T.);
#48=ORIENTED_EDGE('',*,*,#288,.F.);
#49=ORIENTED_EDGE('',*,*,#289,.T.);
#50=ORIENTED_EDGE('',*,*,#290,.F.);
#51=ORIENTED_EDGE('',*,*,#291,.T.);
#52=ORIENTED_EDGE('',*,*,#292,.F.);
#53=ORIENTED_EDGE('',*,*,#293,.T.);
#54=ORIENTED_EDGE('',*,*,#294,.F.);
#55=ORIENTED_EDGE('',*,*,#295,.F.);
#56=ORIENTED_EDGE('',*,*,#296,.F.);
#57=ORIENTED_EDGE('',*,*,#297,.F.);
#58=ORIENTED_EDGE('',*,*,#298,.F.);
#59=ORIENTED_EDGE('',*,*,#299,.F.);
#60=ORIENTED_EDGE('',*,*,#282,.F.);
#61=ORIENTED_EDGE('',*,*,#300,.T.);
#62=ORIENTED_EDGE('',*,*,#301,.F.);
#63=ORIENTED_EDGE('',*,*,#302,.F.);
#64=ORIENTED_EDGE('',*,*,#287,.F.);
#65=ORIENTED_EDGE('',*,*,#303,.T.);
#66=ORIENTED_EDGE('',*,*,#304,.F.);
#67=ORIENTED_EDGE('',*,*,#305,.F.);
#68=ORIENTED_EDGE('',*,*,#291,.F.);
#69=ORIENTED_EDGE('',*,*,#306,.F.);
#70=ORIENTED_EDGE('',*,*,#307,.T.);
#71=ORIENTED_EDGE('',*,*,#308,.F.);
#72=ORIENTED_EDGE('',*,*,#294,.T.);
#73=ORIENTED_EDGE('',*,*,#309,.F.);
#74=ORIENTED_EDGE('',*,*,#278,.T.);
#75=ORIENTED_EDGE('',*,*,#310,.T.);
#76=ORIENTED_EDGE('',*,*,#301,.T.);
#77=ORIENTED_EDGE('',*,*,#311,.F.);
#78=ORIENTED_EDGE('',*,*,#312,.T.);
#79=ORIENTED_EDGE('',*,*,#313,.T.);
#80=ORIENTED_EDGE('',*,*,#298,.T.);
#81=ORIENTED_EDGE('',*,*,#314,.F.);
#82=ORIENTED_EDGE('',*,*,#315,.F.);
#83=ORIENTED_EDGE('',*,*,#316,.F.);
#84=ORIENTED_EDGE('',*,*,#317,.F.);
#85=ORIENTED_EDGE('',*,*,#318,.T.);
#86=ORIENTED_EDGE('',*,*,#319,.T.);
#87=ORIENTED_EDGE('',*,*,#320,.F.);
#88=ORIENTED_EDGE('',*,*,#321,.T.);
#89=ORIENTED_EDGE('',*,*,#322,.T.);
#90=ORIENTED_EDGE('',*,*,#323,.F.);
#91=ORIENTED_EDGE('',*,*,#324,.T.);
#92=ORIENTED_EDGE('',*,*,#325,.F.);
#93=ORIENTED_EDGE('',*,*,#326,.T.);
#94=ORIENTED_EDGE('',*,*,#327,.F.);
#95=ORIENTED_EDGE('',*,*,#328,.T.);
#96=ORIENTED_EDGE('',*,*,#329,.T.);
#97=ORIENTED_EDGE('',*,*,#330,.T.);
#98=ORIENTED_EDGE('',*,*,#331,.F.);
#99=ORIENTED_EDGE('',*,*,#332,.F.);
#100=ORIENTED_EDGE('',*,*,#333,.F.);
#101=ORIENTED_EDGE('',*,*,#334,.T.);
#102=ORIENTED_EDGE('',*,*,#335,.T.);
#103=ORIENTED_EDGE('',*,*,#336,.F.);
#104=ORIENTED_EDGE('',*,*,#337,.T.);
#105=ORIENTED_EDGE('',*,*,#338,.T.);
#106=ORIENTED_EDGE('',*,*,#339,.F.);
#107=ORIENTED_EDGE('',*,*,#340,.T.);
#108=ORIENTED_EDGE('',*,*,#341,.T.);
#109=ORIENTED_EDGE('',*,*,#342,.T.);
#110=ORIENTED_EDGE('',*,*,#343,.F.);
#111=ORIENTED_EDGE('',*,*,#344,.T.);
#112=ORIENTED_EDGE('',*,*,#345,.F.);
#113=ORIENTED_EDGE('',*,*,#346,.T.);
#114=ORIENTED_EDGE('',*,*,#347,.F.);
#115=ORIENTED_EDGE('',*,*,#289,.F.);
#116=ORIENTED_EDGE('',*,*,#348,.F.);
#117=ORIENTED_EDGE('',*,*,#349,.F.);
#118=ORIENTED_EDGE('',*,*,#350,.F.);
#119=ORIENTED_EDGE('',*,*,#296,.T.);
#120=ORIENTED_EDGE('',*,*,#351,.F.);
#121=ORIENTED_EDGE('',*,*,#352,.T.);
#122=ORIENTED_EDGE('',*,*,#353,.T.);
#123=ORIENTED_EDGE('',*,*,#331,.T.);
#124=ORIENTED_EDGE('',*,*,#354,.T.);
#125=ORIENTED_EDGE('',*,*,#339,.T.);
#126=ORIENTED_EDGE('',*,*,#355,.T.);
#127=ORIENTED_EDGE('',*,*,#341,.F.);
#128=ORIENTED_EDGE('',*,*,#356,.T.);
#129=ORIENTED_EDGE('',*,*,#321,.F.);
#130=ORIENTED_EDGE('',*,*,#357,.T.);
#131=ORIENTED_EDGE('',*,*,#327,.T.);
#132=ORIENTED_EDGE('',*,*,#343,.T.);
#133=ORIENTED_EDGE('',*,*,#358,.T.);
#134=ORIENTED_EDGE('',*,*,#337,.F.);
#135=ORIENTED_EDGE('',*,*,#359,.T.);
#136=ORIENTED_EDGE('',*,*,#329,.F.);
#137=ORIENTED_EDGE('',*,*,#360,.T.);
#138=ORIENTED_EDGE('',*,*,#323,.T.);
#139=ORIENTED_EDGE('',*,*,#361,.T.);
#140=ORIENTED_EDGE('',*,*,#355,.F.);
#141=ORIENTED_EDGE('',*,*,#338,.F.);
#142=ORIENTED_EDGE('',*,*,#358,.F.);
#143=ORIENTED_EDGE('',*,*,#342,.F.);
#144=ORIENTED_EDGE('',*,*,#354,.F.);
#145=ORIENTED_EDGE('',*,*,#330,.F.);
#146=ORIENTED_EDGE('',*,*,#359,.F.);
#147=ORIENTED_EDGE('',*,*,#340,.F.);
#148=ORIENTED_EDGE('',*,*,#356,.F.);
#149=ORIENTED_EDGE('',*,*,#344,.F.);
#150=ORIENTED_EDGE('',*,*,#361,.F.);
#151=ORIENTED_EDGE('',*,*,#322,.F.);
#152=ORIENTED_EDGE('',*,*,#357,.F.);
#153=ORIENTED_EDGE('',*,*,#324,.F.);
#154=ORIENTED_EDGE('',*,*,#360,.F.);
#155=ORIENTED_EDGE('',*,*,#328,.F.);
#156=ORIENTED_EDGE('',*,*,#362,.F.);
#157=ORIENTED_EDGE('',*,*,#363,.T.);
#158=ORIENTED_EDGE('',*,*,#364,.T.);
#159=ORIENTED_EDGE('',*,*,#352,.F.);
#160=ORIENTED_EDGE('',*,*,#365,.F.);
#161=ORIENTED_EDGE('',*,*,#307,.F.);
#162=ORIENTED_EDGE('',*,*,#366,.F.);
#163=ORIENTED_EDGE('',*,*,#346,.F.);
#164=ORIENTED_EDGE('',*,*,#349,.T.);
#165=ORIENTED_EDGE('',*,*,#367,.F.);
#166=ORIENTED_EDGE('',*,*,#315,.T.);
#167=ORIENTED_EDGE('',*,*,#368,.F.);
#168=ORIENTED_EDGE('',*,*,#350,.T.);
#169=ORIENTED_EDGE('',*,*,#368,.T.);
#170=ORIENTED_EDGE('',*,*,#314,.T.);
#171=ORIENTED_EDGE('',*,*,#297,.T.);
#172=ORIENTED_EDGE('',*,*,#351,.T.);
#173=ORIENTED_EDGE('',*,*,#295,.T.);
#174=ORIENTED_EDGE('',*,*,#308,.T.);
#175=ORIENTED_EDGE('',*,*,#365,.T.);
#176=ORIENTED_EDGE('',*,*,#348,.T.);
#177=ORIENTED_EDGE('',*,*,#288,.T.);
#178=ORIENTED_EDGE('',*,*,#316,.T.);
#179=ORIENTED_EDGE('',*,*,#367,.T.);
#180=ORIENTED_EDGE('',*,*,#347,.T.);
#181=ORIENTED_EDGE('',*,*,#366,.T.);
#182=ORIENTED_EDGE('',*,*,#306,.T.);
#183=ORIENTED_EDGE('',*,*,#290,.T.);
#184=ORIENTED_EDGE('',*,*,#369,.T.);
#185=ORIENTED_EDGE('',*,*,#362,.T.);
#186=ORIENTED_EDGE('',*,*,#345,.T.);
#187=ORIENTED_EDGE('',*,*,#326,.F.);
#188=ORIENTED_EDGE('',*,*,#332,.T.);
#189=ORIENTED_EDGE('',*,*,#353,.F.);
#190=ORIENTED_EDGE('',*,*,#364,.F.);
#191=ORIENTED_EDGE('',*,*,#370,.F.);
#192=ORIENTED_EDGE('',*,*,#325,.T.);
#193=ORIENTED_EDGE('',*,*,#370,.T.);
#194=ORIENTED_EDGE('',*,*,#363,.F.);
#195=ORIENTED_EDGE('',*,*,#369,.F.);
#196=ORIENTED_EDGE('',*,*,#371,.F.);
#197=ORIENTED_EDGE('',*,*,#280,.T.);
#198=ORIENTED_EDGE('',*,*,#372,.T.);
#199=ORIENTED_EDGE('',*,*,#312,.F.);
#200=ORIENTED_EDGE('',*,*,#293,.F.);
#201=ORIENTED_EDGE('',*,*,#373,.F.);
#202=ORIENTED_EDGE('',*,*,#279,.T.);
#203=ORIENTED_EDGE('',*,*,#309,.T.);
#204=ORIENTED_EDGE('',*,*,#283,.T.);
#205=ORIENTED_EDGE('',*,*,#299,.T.);
#206=ORIENTED_EDGE('',*,*,#313,.F.);
#207=ORIENTED_EDGE('',*,*,#372,.F.);
#208=ORIENTED_EDGE('',*,*,#374,.F.);
#209=ORIENTED_EDGE('',*,*,#276,.F.);
#210=ORIENTED_EDGE('',*,*,#373,.T.);
#211=ORIENTED_EDGE('',*,*,#292,.T.);
#212=ORIENTED_EDGE('',*,*,#375,.F.);
#213=ORIENTED_EDGE('',*,*,#284,.T.);
#214=ORIENTED_EDGE('',*,*,#305,.T.);
#215=ORIENTED_EDGE('',*,*,#376,.F.);
#216=ORIENTED_EDGE('',*,*,#286,.F.);
#217=ORIENTED_EDGE('',*,*,#377,.T.);
#218=ORIENTED_EDGE('',*,*,#378,.T.);
#219=ORIENTED_EDGE('',*,*,#303,.F.);
#220=ORIENTED_EDGE('',*,*,#285,.F.);
#221=ORIENTED_EDGE('',*,*,#375,.T.);
#222=ORIENTED_EDGE('',*,*,#379,.T.);
#223=ORIENTED_EDGE('',*,*,#377,.F.);
#224=ORIENTED_EDGE('',*,*,#304,.T.);
#225=ORIENTED_EDGE('',*,*,#378,.F.);
#226=ORIENTED_EDGE('',*,*,#379,.F.);
#227=ORIENTED_EDGE('',*,*,#376,.T.);
#228=ORIENTED_EDGE('',*,*,#310,.F.);
#229=ORIENTED_EDGE('',*,*,#277,.F.);
#230=ORIENTED_EDGE('',*,*,#374,.T.);
#231=ORIENTED_EDGE('',*,*,#302,.T.);
#232=ORIENTED_EDGE('',*,*,#311,.T.);
#233=ORIENTED_EDGE('',*,*,#300,.F.);
#234=ORIENTED_EDGE('',*,*,#281,.F.);
#235=ORIENTED_EDGE('',*,*,#371,.T.);
#236=ORIENTED_EDGE('',*,*,#380,.T.);
#237=ORIENTED_EDGE('',*,*,#381,.T.);
#238=ORIENTED_EDGE('',*,*,#382,.F.);
#239=ORIENTED_EDGE('',*,*,#318,.F.);
#240=ORIENTED_EDGE('',*,*,#383,.F.);
#241=ORIENTED_EDGE('',*,*,#381,.F.);
#242=ORIENTED_EDGE('',*,*,#384,.T.);
#243=ORIENTED_EDGE('',*,*,#385,.T.);
#244=ORIENTED_EDGE('',*,*,#320,.T.);
#245=ORIENTED_EDGE('',*,*,#386,.T.);
#246=ORIENTED_EDGE('',*,*,#385,.F.);
#247=ORIENTED_EDGE('',*,*,#387,.F.);
#248=ORIENTED_EDGE('',*,*,#317,.T.);
#249=ORIENTED_EDGE('',*,*,#387,.T.);
#250=ORIENTED_EDGE('',*,*,#384,.F.);
#251=ORIENTED_EDGE('',*,*,#380,.F.);
#252=ORIENTED_EDGE('',*,*,#382,.T.);
#253=ORIENTED_EDGE('',*,*,#383,.T.);
#254=ORIENTED_EDGE('',*,*,#386,.F.);
#255=ORIENTED_EDGE('',*,*,#319,.F.);
#256=ORIENTED_EDGE('',*,*,#333,.T.);
#257=ORIENTED_EDGE('',*,*,#388,.F.);
#258=ORIENTED_EDGE('',*,*,#389,.F.);
#259=ORIENTED_EDGE('',*,*,#390,.T.);
#260=ORIENTED_EDGE('',*,*,#391,.F.);
#261=ORIENTED_EDGE('',*,*,#392,.T.);
#262=ORIENTED_EDGE('',*,*,#393,.T.);
#263=ORIENTED_EDGE('',*,*,#335,.F.);
#264=ORIENTED_EDGE('',*,*,#390,.F.);
#265=ORIENTED_EDGE('',*,*,#394,.T.);
#266=ORIENTED_EDGE('',*,*,#391,.T.);
#267=ORIENTED_EDGE('',*,*,#334,.F.);
#268=ORIENTED_EDGE('',*,*,#336,.T.);
#269=ORIENTED_EDGE('',*,*,#393,.F.);
#270=ORIENTED_EDGE('',*,*,#395,.F.);
#271=ORIENTED_EDGE('',*,*,#388,.T.);
#272=ORIENTED_EDGE('',*,*,#395,.T.);
#273=ORIENTED_EDGE('',*,*,#392,.F.);
#274=ORIENTED_EDGE('',*,*,#394,.F.);
#275=ORIENTED_EDGE('',*,*,#389,.T.);
#276=EDGE_CURVE('',#396,#397,#476,.T.);
#277=EDGE_CURVE('',#397,#398,#477,.T.);
#278=EDGE_CURVE('',#399,#398,#478,.T.);
#279=EDGE_CURVE('',#396,#399,#479,.T.);
#280=EDGE_CURVE('',#400,#401,#480,.T.);
#281=EDGE_CURVE('',#400,#402,#481,.T.);
#282=EDGE_CURVE('',#402,#403,#482,.T.);
#283=EDGE_CURVE('',#401,#403,#483,.T.);
#284=EDGE_CURVE('',#404,#405,#484,.T.);
#285=EDGE_CURVE('',#404,#406,#485,.T.);
#286=EDGE_CURVE('',#406,#407,#486,.T.);
#287=EDGE_CURVE('',#407,#408,#487,.T.);
#288=EDGE_CURVE('',#409,#408,#488,.T.);
#289=EDGE_CURVE('',#409,#410,#489,.T.);
#290=EDGE_CURVE('',#411,#410,#490,.F.);
#291=EDGE_CURVE('',#411,#405,#491,.T.);
#292=EDGE_CURVE('',#412,#413,#492,.T.);
#293=EDGE_CURVE('',#412,#414,#493,.T.);
#294=EDGE_CURVE('',#415,#414,#494,.T.);
#295=EDGE_CURVE('',#416,#415,#495,.T.);
#296=EDGE_CURVE('',#417,#416,#496,.T.);
#297=EDGE_CURVE('',#418,#417,#497,.F.);
#298=EDGE_CURVE('',#419,#418,#498,.T.);
#299=EDGE_CURVE('',#403,#419,#499,.T.);
#300=EDGE_CURVE('',#402,#420,#500,.T.);
#301=EDGE_CURVE('',#421,#420,#501,.T.);
#302=EDGE_CURVE('',#413,#421,#502,.T.);
#303=EDGE_CURVE('',#407,#422,#503,.T.);
#304=EDGE_CURVE('',#423,#422,#504,.T.);
#305=EDGE_CURVE('',#405,#423,#505,.T.);
#306=EDGE_CURVE('',#424,#411,#20,.F.);
#307=EDGE_CURVE('',#424,#425,#506,.T.);
#308=EDGE_CURVE('',#415,#425,#21,.F.);
#309=EDGE_CURVE('',#399,#414,#507,.T.);
#310=EDGE_CURVE('',#398,#421,#508,.T.);
#311=EDGE_CURVE('',#426,#420,#509,.T.);
#312=EDGE_CURVE('',#426,#427,#510,.T.);
#313=EDGE_CURVE('',#427,#419,#511,.T.);
#314=EDGE_CURVE('',#428,#418,#22,.F.);
#315=EDGE_CURVE('',#429,#428,#512,.T.);
#316=EDGE_CURVE('',#408,#429,#23,.F.);
#317=EDGE_CURVE('',#430,#431,#513,.T.);
#318=EDGE_CURVE('',#430,#432,#514,.T.);
#319=EDGE_CURVE('',#432,#433,#515,.T.);
#320=EDGE_CURVE('',#431,#433,#516,.T.);
#321=EDGE_CURVE('',#434,#435,#517,.T.);
#322=EDGE_CURVE('',#435,#436,#518,.T.);
#323=EDGE_CURVE('',#437,#436,#519,.T.);
#324=EDGE_CURVE('',#437,#434,#520,.F.);
#325=EDGE_CURVE('',#438,#439,#521,.T.);
#326=EDGE_CURVE('',#438,#440,#522,.T.);
#327=EDGE_CURVE('',#441,#440,#523,.T.);
#328=EDGE_CURVE('',#441,#442,#524,.T.);
#329=EDGE_CURVE('',#442,#443,#525,.T.);
#330=EDGE_CURVE('',#443,#444,#526,.F.);
#331=EDGE_CURVE('',#445,#444,#527,.T.);
#332=EDGE_CURVE('',#439,#445,#528,.T.);
#333=EDGE_CURVE('',#446,#447,#529,.T.);
#334=EDGE_CURVE('',#446,#448,#530,.T.);
#335=EDGE_CURVE('',#448,#449,#531,.T.);
#336=EDGE_CURVE('',#447,#449,#532,.T.);
#337=EDGE_CURVE('',#450,#451,#533,.T.);
#338=EDGE_CURVE('',#451,#452,#534,.F.);
#339=EDGE_CURVE('',#453,#452,#535,.T.);
#340=EDGE_CURVE('',#453,#450,#536,.T.);
#341=EDGE_CURVE('',#454,#455,#537,.T.);
#342=EDGE_CURVE('',#455,#456,#538,.T.);
#343=EDGE_CURVE('',#457,#456,#539,.T.);
#344=EDGE_CURVE('',#457,#454,#540,.F.);
#345=EDGE_CURVE('',#458,#440,#541,.T.);
#346=EDGE_CURVE('',#458,#459,#542,.T.);
#347=EDGE_CURVE('',#410,#459,#24,.T.);
#348=EDGE_CURVE('',#460,#409,#25,.T.);
#349=EDGE_CURVE('',#461,#460,#543,.T.);
#350=EDGE_CURVE('',#417,#461,#26,.T.);
#351=EDGE_CURVE('',#462,#416,#27,.T.);
#352=EDGE_CURVE('',#462,#463,#544,.T.);
#353=EDGE_CURVE('',#463,#445,#545,.T.);
#354=EDGE_CURVE('',#444,#453,#28,.T.);
#355=EDGE_CURVE('',#452,#455,#29,.T.);
#356=EDGE_CURVE('',#454,#435,#30,.T.);
#357=EDGE_CURVE('',#434,#441,#31,.T.);
#358=EDGE_CURVE('',#456,#451,#32,.F.);
#359=EDGE_CURVE('',#450,#443,#33,.F.);
#360=EDGE_CURVE('',#442,#437,#34,.F.);
#361=EDGE_CURVE('',#436,#457,#35,.F.);
#362=EDGE_CURVE('',#464,#458,#546,.T.);
#363=EDGE_CURVE('',#464,#465,#547,.T.);
#364=EDGE_CURVE('',#465,#463,#548,.T.);
#365=EDGE_CURVE('',#425,#462,#549,.F.);
#366=EDGE_CURVE('',#459,#424,#550,.T.);
#367=EDGE_CURVE('',#429,#460,#551,.F.);
#368=EDGE_CURVE('',#461,#428,#552,.T.);
#369=EDGE_CURVE('',#438,#464,#553,.T.);
#370=EDGE_CURVE('',#439,#465,#554,.T.);
#371=EDGE_CURVE('',#400,#426,#555,.T.);
#372=EDGE_CURVE('',#401,#427,#556,.T.);
#373=EDGE_CURVE('',#396,#412,#557,.T.);
#374=EDGE_CURVE('',#397,#413,#558,.T.);
#375=EDGE_CURVE('',#404,#466,#559,.T.);
#376=EDGE_CURVE('',#466,#423,#560,.T.);
#377=EDGE_CURVE('',#406,#467,#561,.T.);
#378=EDGE_CURVE('',#467,#422,#562,.T.);
#379=EDGE_CURVE('',#466,#467,#563,.T.);
#380=EDGE_CURVE('',#430,#468,#564,.T.);
#381=EDGE_CURVE('',#468,#469,#565,.T.);
#382=EDGE_CURVE('',#432,#469,#566,.T.);
#383=EDGE_CURVE('',#469,#470,#567,.T.);
#384=EDGE_CURVE('',#468,#471,#568,.T.);
#385=EDGE_CURVE('',#471,#470,#569,.T.);
#386=EDGE_CURVE('',#433,#470,#570,.T.);
#387=EDGE_CURVE('',#431,#471,#571,.T.);
#388=EDGE_CURVE('',#472,#447,#572,.T.);
#389=EDGE_CURVE('',#473,#472,#573,.T.);
#390=EDGE_CURVE('',#473,#446,#574,.T.);
#391=EDGE_CURVE('',#474,#448,#575,.T.);
#392=EDGE_CURVE('',#474,#475,#576,.T.);
#393=EDGE_CURVE('',#475,#449,#577,.T.);
#394=EDGE_CURVE('',#473,#474,#578,.T.);
#395=EDGE_CURVE('',#472,#475,#579,.T.);
#396=VERTEX_POINT('',#1158);
#397=VERTEX_POINT('',#1159);
#398=VERTEX_POINT('',#1161);
#399=VERTEX_POINT('',#1163);
#400=VERTEX_POINT('',#1167);
#401=VERTEX_POINT('',#1168);
#402=VERTEX_POINT('',#1170);
#403=VERTEX_POINT('',#1172);
#404=VERTEX_POINT('',#1176);
#405=VERTEX_POINT('',#1177);
#406=VERTEX_POINT('',#1179);
#407=VERTEX_POINT('',#1181);
#408=VERTEX_POINT('',#1183);
#409=VERTEX_POINT('',#1185);
#410=VERTEX_POINT('',#1187);
#411=VERTEX_POINT('',#1189);
#412=VERTEX_POINT('',#1193);
#413=VERTEX_POINT('',#1194);
#414=VERTEX_POINT('',#1196);
#415=VERTEX_POINT('',#1198);
#416=VERTEX_POINT('',#1200);
#417=VERTEX_POINT('',#1202);
#418=VERTEX_POINT('',#1204);
#419=VERTEX_POINT('',#1206);
#420=VERTEX_POINT('',#1209);
#421=VERTEX_POINT('',#1211);
#422=VERTEX_POINT('',#1215);
#423=VERTEX_POINT('',#1217);
#424=VERTEX_POINT('',#1220);
#425=VERTEX_POINT('',#1222);
#426=VERTEX_POINT('',#1227);
#427=VERTEX_POINT('',#1229);
#428=VERTEX_POINT('',#1232);
#429=VERTEX_POINT('',#1234);
#430=VERTEX_POINT('',#1238);
#431=VERTEX_POINT('',#1239);
#432=VERTEX_POINT('',#1241);
#433=VERTEX_POINT('',#1243);
#434=VERTEX_POINT('',#1246);
#435=VERTEX_POINT('',#1247);
#436=VERTEX_POINT('',#1249);
#437=VERTEX_POINT('',#1251);
#438=VERTEX_POINT('',#1255);
#439=VERTEX_POINT('',#1256);
#440=VERTEX_POINT('',#1258);
#441=VERTEX_POINT('',#1260);
#442=VERTEX_POINT('',#1262);
#443=VERTEX_POINT('',#1264);
#444=VERTEX_POINT('',#1266);
#445=VERTEX_POINT('',#1268);
#446=VERTEX_POINT('',#1272);
#447=VERTEX_POINT('',#1273);
#448=VERTEX_POINT('',#1275);
#449=VERTEX_POINT('',#1277);
#450=VERTEX_POINT('',#1280);
#451=VERTEX_POINT('',#1281);
#452=VERTEX_POINT('',#1283);
#453=VERTEX_POINT('',#1285);
#454=VERTEX_POINT('',#1289);
#455=VERTEX_POINT('',#1290);
#456=VERTEX_POINT('',#1292);
#457=VERTEX_POINT('',#1294);
#458=VERTEX_POINT('',#1298);
#459=VERTEX_POINT('',#1300);
#460=VERTEX_POINT('',#1303);
#461=VERTEX_POINT('',#1305);
#462=VERTEX_POINT('',#1308);
#463=VERTEX_POINT('',#1310);
#464=VERTEX_POINT('',#1327);
#465=VERTEX_POINT('',#1329);
#466=VERTEX_POINT('',#1355);
#467=VERTEX_POINT('',#1359);
#468=VERTEX_POINT('',#1368);
#469=VERTEX_POINT('',#1370);
#470=VERTEX_POINT('',#1374);
#471=VERTEX_POINT('',#1376);
#472=VERTEX_POINT('',#1385);
#473=VERTEX_POINT('',#1387);
#474=VERTEX_POINT('',#1391);
#475=VERTEX_POINT('',#1393);
#476=LINE('',#1157,#580);
#477=LINE('',#1160,#581);
#478=LINE('',#1162,#582);
#479=LINE('',#1164,#583);
#480=LINE('',#1166,#584);
#481=LINE('',#1169,#585);
#482=LINE('',#1171,#586);
#483=LINE('',#1173,#587);
#484=LINE('',#1175,#588);
#485=LINE('',#1178,#589);
#486=LINE('',#1180,#590);
#487=LINE('',#1182,#591);
#488=LINE('',#1184,#592);
#489=LINE('',#1186,#593);
#490=LINE('',#1188,#594);
#491=LINE('',#1190,#595);
#492=LINE('',#1192,#596);
#493=LINE('',#1195,#597);
#494=LINE('',#1197,#598);
#495=LINE('',#1199,#599);
#496=LINE('',#1201,#600);
#497=LINE('',#1203,#601);
#498=LINE('',#1205,#602);
#499=LINE('',#1207,#603);
#500=LINE('',#1208,#604);
#501=LINE('',#1210,#605);
#502=LINE('',#1212,#606);
#503=LINE('',#1214,#607);
#504=LINE('',#1216,#608);
#505=LINE('',#1218,#609);
#506=LINE('',#1221,#610);
#507=LINE('',#1224,#611);
#508=LINE('',#1225,#612);
#509=LINE('',#1226,#613);
#510=LINE('',#1228,#614);
#511=LINE('',#1230,#615);
#512=LINE('',#1233,#616);
#513=LINE('',#1237,#617);
#514=LINE('',#1240,#618);
#515=LINE('',#1242,#619);
#516=LINE('',#1244,#620);
#517=LINE('',#1245,#621);
#518=LINE('',#1248,#622);
#519=LINE('',#1250,#623);
#520=LINE('',#1252,#624);
#521=LINE('',#1254,#625);
#522=LINE('',#1257,#626);
#523=LINE('',#1259,#627);
#524=LINE('',#1261,#628);
#525=LINE('',#1263,#629);
#526=LINE('',#1265,#630);
#527=LINE('',#1267,#631);
#528=LINE('',#1269,#632);
#529=LINE('',#1271,#633);
#530=LINE('',#1274,#634);
#531=LINE('',#1276,#635);
#532=LINE('',#1278,#636);
#533=LINE('',#1279,#637);
#534=LINE('',#1282,#638);
#535=LINE('',#1284,#639);
#536=LINE('',#1286,#640);
#537=LINE('',#1288,#641);
#538=LINE('',#1291,#642);
#539=LINE('',#1293,#643);
#540=LINE('',#1295,#644);
#541=LINE('',#1297,#645);
#542=LINE('',#1299,#646);
#543=LINE('',#1304,#647);
#544=LINE('',#1309,#648);
#545=LINE('',#1311,#649);
#546=LINE('',#1326,#650);
#547=LINE('',#1328,#651);
#548=LINE('',#1330,#652);
#549=LINE('',#1331,#653);
#550=LINE('',#1332,#654);
#551=LINE('',#1334,#655);
#552=LINE('',#1335,#656);
#553=LINE('',#1341,#657);
#554=LINE('',#1343,#658);
#555=LINE('',#1346,#659);
#556=LINE('',#1347,#660);
#557=LINE('',#1349,#661);
#558=LINE('',#1352,#662);
#559=LINE('',#1354,#663);
#560=LINE('',#1356,#664);
#561=LINE('',#1358,#665);
#562=LINE('',#1360,#666);
#563=LINE('',#1362,#667);
#564=LINE('',#1367,#668);
#565=LINE('',#1369,#669);
#566=LINE('',#1371,#670);
#567=LINE('',#1373,#671);
#568=LINE('',#1375,#672);
#569=LINE('',#1377,#673);
#570=LINE('',#1379,#674);
#571=LINE('',#1380,#675);
#572=LINE('',#1384,#676);
#573=LINE('',#1386,#677);
#574=LINE('',#1388,#678);
#575=LINE('',#1390,#679);
#576=LINE('',#1392,#680);
#577=LINE('',#1394,#681);
#578=LINE('',#1396,#682);
#579=LINE('',#1398,#683);
#580=VECTOR('',#933,1.);
#581=VECTOR('',#934,1.);
#582=VECTOR('',#935,1.);
#583=VECTOR('',#936,1.);
#584=VECTOR('',#939,1.);
#585=VECTOR('',#940,1.);
#586=VECTOR('',#941,1.);
#587=VECTOR('',#942,1.);
#588=VECTOR('',#945,1.);
#589=VECTOR('',#946,1.);
#590=VECTOR('',#947,1.);
#591=VECTOR('',#948,1.);
#592=VECTOR('',#949,1.);
#593=VECTOR('',#950,1.);
#594=VECTOR('',#951,1.);
#595=VECTOR('',#952,1.);
#596=VECTOR('',#955,1.);
#597=VECTOR('',#956,1.);
#598=VECTOR('',#957,1.);
#599=VECTOR('',#958,1.);
#600=VECTOR('',#959,1.);
#601=VECTOR('',#960,1.);
#602=VECTOR('',#961,1.);
#603=VECTOR('',#962,1.);
#604=VECTOR('',#963,1.);
#605=VECTOR('',#964,1.);
#606=VECTOR('',#965,1.);
#607=VECTOR('',#968,1.);
#608=VECTOR('',#969,1.);
#609=VECTOR('',#970,1.);
#610=VECTOR('',#973,1.);
#611=VECTOR('',#976,1.);
#612=VECTOR('',#977,1.);
#613=VECTOR('',#978,1.);
#614=VECTOR('',#979,1.);
#615=VECTOR('',#980,1.);
#616=VECTOR('',#983,1.);
#617=VECTOR('',#988,1.);
#618=VECTOR('',#989,1.);
#619=VECTOR('',#990,1.);
#620=VECTOR('',#991,1.);
#621=VECTOR('',#992,1.);
#622=VECTOR('',#993,1.);
#623=VECTOR('',#994,1.);
#624=VECTOR('',#995,1.);
#625=VECTOR('',#998,1.);
#626=VECTOR('',#999,1.);
#627=VECTOR('',#1000,1.);
#628=VECTOR('',#1001,1.);
#629=VECTOR('',#1002,1.);
#630=VECTOR('',#1003,1.);
#631=VECTOR('',#1004,1.);
#632=VECTOR('',#1005,1.);
#633=VECTOR('',#1008,1.);
#634=VECTOR('',#1009,1.);
#635=VECTOR('',#1010,1.);
#636=VECTOR('',#1011,1.);
#637=VECTOR('',#1012,1.);
#638=VECTOR('',#1013,1.);
#639=VECTOR('',#1014,1.);
#640=VECTOR('',#1015,1.);
#641=VECTOR('',#1018,1.);
#642=VECTOR('',#1019,1.);
#643=VECTOR('',#1020,1.);
#644=VECTOR('',#1021,1.);
#645=VECTOR('',#1024,1.);
#646=VECTOR('',#1025,1.);
#647=VECTOR('',#1030,1.);
#648=VECTOR('',#1035,1.);
#649=VECTOR('',#1036,1.);
#650=VECTOR('',#1065,1.);
#651=VECTOR('',#1066,1.);
#652=VECTOR('',#1067,1.);
#653=VECTOR('',#1068,1.);
#654=VECTOR('',#1069,1.);
#655=VECTOR('',#1072,1.);
#656=VECTOR('',#1073,1.);
#657=VECTOR('',#1084,1.);
#658=VECTOR('',#1087,1.);
#659=VECTOR('',#1092,1.);
#660=VECTOR('',#1093,1.);
#661=VECTOR('',#1096,1.);
#662=VECTOR('',#1101,1.);
#663=VECTOR('',#1104,1.);
#664=VECTOR('',#1105,1.);
#665=VECTOR('',#1108,1.);
#666=VECTOR('',#1109,1.);
#667=VECTOR('',#1112,1.);
#668=VECTOR('',#1121,1.);
#669=VECTOR('',#1122,1.);
#670=VECTOR('',#1123,1.);
#671=VECTOR('',#1126,1.);
#672=VECTOR('',#1127,1.);
#673=VECTOR('',#1128,1.);
#674=VECTOR('',#1131,1.);
#675=VECTOR('',#1132,1.);
#676=VECTOR('',#1139,1.);
#677=VECTOR('',#1140,1.);
#678=VECTOR('',#1141,1.);
#679=VECTOR('',#1144,1.);
#680=VECTOR('',#1145,1.);
#681=VECTOR('',#1146,1.);
#682=VECTOR('',#1149,1.);
#683=VECTOR('',#1152,1.);
#684=EDGE_LOOP('',(#36,#37,#38,#39));
#685=EDGE_LOOP('',(#40,#41,#42,#43));
#686=EDGE_LOOP('',(#44,#45,#46,#47,#48,#49,#50,#51));
#687=EDGE_LOOP('',(#52,#53,#54,#55,#56,#57,#58,#59,#60,#61,#62,#63));
#688=EDGE_LOOP('',(#64,#65,#66,#67,#68,#69,#70,#71,#72,#73,#74,#75,#76,
#77,#78,#79,#80,#81,#82,#83));
#689=EDGE_LOOP('',(#84,#85,#86,#87));
#690=EDGE_LOOP('',(#88,#89,#90,#91));
#691=EDGE_LOOP('',(#92,#93,#94,#95,#96,#97,#98,#99));
#692=EDGE_LOOP('',(#100,#101,#102,#103));
#693=EDGE_LOOP('',(#104,#105,#106,#107));
#694=EDGE_LOOP('',(#108,#109,#110,#111));
#695=EDGE_LOOP('',(#112,#113,#114,#115,#116,#117,#118,#119,#120,#121,#122,
#123,#124,#125,#126,#127,#128,#129,#130,#131));
#696=EDGE_LOOP('',(#132,#133,#134,#135,#136,#137,#138,#139));
#697=EDGE_LOOP('',(#140,#141,#142,#143));
#698=EDGE_LOOP('',(#144,#145,#146,#147));
#699=EDGE_LOOP('',(#148,#149,#150,#151));
#700=EDGE_LOOP('',(#152,#153,#154,#155));
#701=EDGE_LOOP('',(#156,#157,#158,#159,#160,#161,#162,#163));
#702=EDGE_LOOP('',(#164,#165,#166,#167));
#703=EDGE_LOOP('',(#168,#169,#170,#171));
#704=EDGE_LOOP('',(#172,#173,#174,#175));
#705=EDGE_LOOP('',(#176,#177,#178,#179));
#706=EDGE_LOOP('',(#180,#181,#182,#183));
#707=EDGE_LOOP('',(#184,#185,#186,#187));
#708=EDGE_LOOP('',(#188,#189,#190,#191));
#709=EDGE_LOOP('',(#192,#193,#194,#195));
#710=EDGE_LOOP('',(#196,#197,#198,#199));
#711=EDGE_LOOP('',(#200,#201,#202,#203));
#712=EDGE_LOOP('',(#204,#205,#206,#207));
#713=EDGE_LOOP('',(#208,#209,#210,#211));
#714=EDGE_LOOP('',(#212,#213,#214,#215));
#715=EDGE_LOOP('',(#216,#217,#218,#219));
#716=EDGE_LOOP('',(#220,#221,#222,#223));
#717=EDGE_LOOP('',(#224,#225,#226,#227));
#718=EDGE_LOOP('',(#228,#229,#230,#231));
#719=EDGE_LOOP('',(#232,#233,#234,#235));
#720=EDGE_LOOP('',(#236,#237,#238,#239));
#721=EDGE_LOOP('',(#240,#241,#242,#243));
#722=EDGE_LOOP('',(#244,#245,#246,#247));
#723=EDGE_LOOP('',(#248,#249,#250,#251));
#724=EDGE_LOOP('',(#252,#253,#254,#255));
#725=EDGE_LOOP('',(#256,#257,#258,#259));
#726=EDGE_LOOP('',(#260,#261,#262,#263));
#727=EDGE_LOOP('',(#264,#265,#266,#267));
#728=EDGE_LOOP('',(#268,#269,#270,#271));
#729=EDGE_LOOP('',(#272,#273,#274,#275));
#730=FACE_BOUND('',#684,.T.);
#731=FACE_BOUND('',#685,.T.);
#732=FACE_BOUND('',#686,.T.);
#733=FACE_BOUND('',#687,.T.);
#734=FACE_BOUND('',#688,.T.);
#735=FACE_BOUND('',#689,.T.);
#736=FACE_BOUND('',#690,.T.);
#737=FACE_BOUND('',#691,.T.);
#738=FACE_BOUND('',#692,.T.);
#739=FACE_BOUND('',#693,.T.);
#740=FACE_BOUND('',#694,.T.);
#741=FACE_BOUND('',#695,.T.);
#742=FACE_BOUND('',#696,.T.);
#743=FACE_BOUND('',#697,.T.);
#744=FACE_BOUND('',#698,.T.);
#745=FACE_BOUND('',#699,.T.);
#746=FACE_BOUND('',#700,.T.);
#747=FACE_BOUND('',#701,.T.);
#748=FACE_BOUND('',#702,.T.);
#749=FACE_BOUND('',#703,.T.);
#750=FACE_BOUND('',#704,.T.);
#751=FACE_BOUND('',#705,.T.);
#752=FACE_BOUND('',#706,.T.);
#753=FACE_BOUND('',#707,.T.);
#754=FACE_BOUND('',#708,.T.);
#755=FACE_BOUND('',#709,.T.);
#756=FACE_BOUND('',#710,.T.);
#757=FACE_BOUND('',#711,.T.);
#758=FACE_BOUND('',#712,.T.);
#759=FACE_BOUND('',#713,.T.);
#760=FACE_BOUND('',#714,.T.);
#761=FACE_BOUND('',#715,.T.);
#762=FACE_BOUND('',#716,.T.);
#763=FACE_BOUND('',#717,.T.);
#764=FACE_BOUND('',#718,.T.);
#765=FACE_BOUND('',#719,.T.);
#766=FACE_BOUND('',#720,.T.);
#767=FACE_BOUND('',#721,.T.);
#768=FACE_BOUND('',#722,.T.);
#769=FACE_BOUND('',#723,.T.);
#770=FACE_BOUND('',#724,.T.);
#771=FACE_BOUND('',#725,.T.);
#772=FACE_BOUND('',#726,.T.);
#773=FACE_BOUND('',#727,.T.);
#774=FACE_BOUND('',#728,.T.);
#775=FACE_BOUND('',#729,.T.);
#776=PLANE('',#869);
#777=PLANE('',#870);
#778=PLANE('',#871);
#779=PLANE('',#872);
#780=PLANE('',#873);
#781=PLANE('',#878);
#782=PLANE('',#879);
#783=PLANE('',#880);
#784=PLANE('',#881);
#785=PLANE('',#882);
#786=PLANE('',#891);
#787=PLANE('',#900);
#788=PLANE('',#901);
#789=PLANE('',#906);
#790=PLANE('',#907);
#791=PLANE('',#908);
#792=PLANE('',#909);
#793=PLANE('',#910);
#794=PLANE('',#911);
#795=PLANE('',#912);
#796=PLANE('',#913);
#797=PLANE('',#914);
#798=PLANE('',#915);
#799=PLANE('',#916);
#800=PLANE('',#917);
#801=PLANE('',#918);
#802=PLANE('',#919);
#803=PLANE('',#920);
#804=PLANE('',#921);
#805=PLANE('',#922);
#806=PLANE('',#923);
#807=PLANE('',#924);
#808=PLANE('',#925);
#809=PLANE('',#926);
#810=PLANE('',#927);
#811=PLANE('',#928);
#812=ADVANCED_FACE('',(#730),#776,.T.);
#813=ADVANCED_FACE('',(#731),#777,.T.);
#814=ADVANCED_FACE('',(#732),#778,.F.);
#815=ADVANCED_FACE('',(#733),#779,.T.);
#816=ADVANCED_FACE('',(#734),#780,.T.);
#817=ADVANCED_FACE('',(#735,#736),#781,.T.);
#818=ADVANCED_FACE('',(#737),#782,.F.);
#819=ADVANCED_FACE('',(#738,#739),#783,.F.);
#820=ADVANCED_FACE('',(#740),#784,.T.);
#821=ADVANCED_FACE('',(#741),#785,.T.);
#822=ADVANCED_FACE('',(#742),#786,.F.);
#823=ADVANCED_FACE('',(#743),#12,.T.);
#824=ADVANCED_FACE('',(#744),#13,.T.);
#825=ADVANCED_FACE('',(#745),#14,.T.);
#826=ADVANCED_FACE('',(#746),#15,.T.);
#827=ADVANCED_FACE('',(#747),#787,.T.);
#828=ADVANCED_FACE('',(#748),#788,.F.);
#829=ADVANCED_FACE('',(#749),#16,.F.);
#830=ADVANCED_FACE('',(#750),#17,.F.);
#831=ADVANCED_FACE('',(#751),#18,.F.);
#832=ADVANCED_FACE('',(#752),#19,.F.);
#833=ADVANCED_FACE('',(#753),#789,.F.);
#834=ADVANCED_FACE('',(#754),#790,.T.);
#835=ADVANCED_FACE('',(#755),#791,.T.);
#836=ADVANCED_FACE('',(#756),#792,.T.);
#837=ADVANCED_FACE('',(#757),#793,.F.);
#838=ADVANCED_FACE('',(#758),#794,.T.);
#839=ADVANCED_FACE('',(#759),#795,.T.);
#840=ADVANCED_FACE('',(#760),#796,.F.);
#841=ADVANCED_FACE('',(#761),#797,.T.);
#842=ADVANCED_FACE('',(#762),#798,.T.);
#843=ADVANCED_FACE('',(#763),#799,.F.);
#844=ADVANCED_FACE('',(#764),#800,.T.);
#845=ADVANCED_FACE('',(#765),#801,.F.);
#846=ADVANCED_FACE('',(#766),#802,.T.);
#847=ADVANCED_FACE('',(#767),#803,.T.);
#848=ADVANCED_FACE('',(#768),#804,.F.);
#849=ADVANCED_FACE('',(#769),#805,.F.);
#850=ADVANCED_FACE('',(#770),#806,.T.);
#851=ADVANCED_FACE('',(#771),#807,.T.);
#852=ADVANCED_FACE('',(#772),#808,.F.);
#853=ADVANCED_FACE('',(#773),#809,.F.);
#854=ADVANCED_FACE('',(#774),#810,.T.);
#855=ADVANCED_FACE('',(#775),#811,.F.);
#856=CLOSED_SHELL('',(#812,#813,#814,#815,#816,#817,#818,#819,#820,#821,
#822,#823,#824,#825,#826,#827,#828,#829,#830,#831,#832,#833,#834,#835,#836,
#837,#838,#839,#840,#841,#842,#843,#844,#845,#846,#847,#848,#849,#850,#851,
#852,#853,#854,#855));
#857=STYLED_ITEM('',(#858),#865);
#858=PRESENTATION_STYLE_ASSIGNMENT((#859));
#859=SURFACE_STYLE_USAGE(.BOTH.,#860);
#860=SURFACE_SIDE_STYLE('',(#861));
#861=SURFACE_STYLE_FILL_AREA(#862);
#862=FILL_AREA_STYLE('',(#863));
#863=FILL_AREA_STYLE_COLOUR('',#864);
#864=COLOUR_RGB('',0.87843137254902,0.87843137254902,0.819607843137255);
#865=MANIFOLD_SOLID_BREP(
'10 Lower body - right support wire gap 17 mm offset x 25 mm',#856);
#866=SHAPE_DEFINITION_REPRESENTATION(#1406,#867);
#867=SHAPE_REPRESENTATION(
'10 Lower body - right support wire gap 17 mm offset x 25 mm',(#868),#1401);
#868=AXIS2_PLACEMENT_3D('',#1155,#929,#930);
#869=AXIS2_PLACEMENT_3D('',#1156,#931,#932);
#870=AXIS2_PLACEMENT_3D('',#1165,#937,#938);
#871=AXIS2_PLACEMENT_3D('',#1174,#943,#944);
#872=AXIS2_PLACEMENT_3D('',#1191,#953,#954);
#873=AXIS2_PLACEMENT_3D('',#1213,#966,#967);
#874=AXIS2_PLACEMENT_3D('',#1219,#971,#972);
#875=AXIS2_PLACEMENT_3D('',#1223,#974,#975);
#876=AXIS2_PLACEMENT_3D('',#1231,#981,#982);
#877=AXIS2_PLACEMENT_3D('',#1235,#984,#985);
#878=AXIS2_PLACEMENT_3D('',#1236,#986,#987);
#879=AXIS2_PLACEMENT_3D('',#1253,#996,#997);
#880=AXIS2_PLACEMENT_3D('',#1270,#1006,#1007);
#881=AXIS2_PLACEMENT_3D('',#1287,#1016,#1017);
#882=AXIS2_PLACEMENT_3D('',#1296,#1022,#1023);
#883=AXIS2_PLACEMENT_3D('',#1301,#1026,#1027);
#884=AXIS2_PLACEMENT_3D('',#1302,#1028,#1029);
#885=AXIS2_PLACEMENT_3D('',#1306,#1031,#1032);
#886=AXIS2_PLACEMENT_3D('',#1307,#1033,#1034);
#887=AXIS2_PLACEMENT_3D('',#1312,#1037,#1038);
#888=AXIS2_PLACEMENT_3D('',#1313,#1039,#1040);
#889=AXIS2_PLACEMENT_3D('',#1314,#1041,#1042);
#890=AXIS2_PLACEMENT_3D('',#1315,#1043,#1044);
#891=AXIS2_PLACEMENT_3D('',#1316,#1045,#1046);
#892=AXIS2_PLACEMENT_3D('',#1317,#1047,#1048);
#893=AXIS2_PLACEMENT_3D('',#1318,#1049,#1050);
#894=AXIS2_PLACEMENT_3D('',#1319,#1051,#1052);
#895=AXIS2_PLACEMENT_3D('',#1320,#1053,#1054);
#896=AXIS2_PLACEMENT_3D('',#1321,#1055,#1056);
#897=AXIS2_PLACEMENT_3D('',#1322,#1057,#1058);
#898=AXIS2_PLACEMENT_3D('',#1323,#1059,#1060);
#899=AXIS2_PLACEMENT_3D('',#1324,#1061,#1062);
#900=AXIS2_PLACEMENT_3D('',#1325,#1063,#1064);
#901=AXIS2_PLACEMENT_3D('',#1333,#1070,#1071);
#902=AXIS2_PLACEMENT_3D('',#1336,#1074,#1075);
#903=AXIS2_PLACEMENT_3D('',#1337,#1076,#1077);
#904=AXIS2_PLACEMENT_3D('',#1338,#1078,#1079);
#905=AXIS2_PLACEMENT_3D('',#1339,#1080,#1081);
#906=AXIS2_PLACEMENT_3D('',#1340,#1082,#1083);
#907=AXIS2_PLACEMENT_3D('',#1342,#1085,#1086);
#908=AXIS2_PLACEMENT_3D('',#1344,#1088,#1089);
#909=AXIS2_PLACEMENT_3D('',#1345,#1090,#1091);
#910=AXIS2_PLACEMENT_3D('',#1348,#1094,#1095);
#911=AXIS2_PLACEMENT_3D('',#1350,#1097,#1098);
#912=AXIS2_PLACEMENT_3D('',#1351,#1099,#1100);
#913=AXIS2_PLACEMENT_3D('',#1353,#1102,#1103);
#914=AXIS2_PLACEMENT_3D('',#1357,#1106,#1107);
#915=AXIS2_PLACEMENT_3D('',#1361,#1110,#1111);
#916=AXIS2_PLACEMENT_3D('',#1363,#1113,#1114);
#917=AXIS2_PLACEMENT_3D('',#1364,#1115,#1116);
#918=AXIS2_PLACEMENT_3D('',#1365,#1117,#1118);
#919=AXIS2_PLACEMENT_3D('',#1366,#1119,#1120);
#920=AXIS2_PLACEMENT_3D('',#1372,#1124,#1125);
#921=AXIS2_PLACEMENT_3D('',#1378,#1129,#1130);
#922=AXIS2_PLACEMENT_3D('',#1381,#1133,#1134);
#923=AXIS2_PLACEMENT_3D('',#1382,#1135,#1136);
#924=AXIS2_PLACEMENT_3D('',#1383,#1137,#1138);
#925=AXIS2_PLACEMENT_3D('',#1389,#1142,#1143);
#926=AXIS2_PLACEMENT_3D('',#1395,#1147,#1148);
#927=AXIS2_PLACEMENT_3D('',#1397,#1150,#1151);
#928=AXIS2_PLACEMENT_3D('',#1399,#1153,#1154);
#929=DIRECTION('',(0.,0.,1.));
#930=DIRECTION('',(1.,0.,0.));
#931=DIRECTION('',(-1.,0.,0.));
#932=DIRECTION('',(0.,0.,1.));
#933=DIRECTION('',(0.,1.,0.));
#934=DIRECTION('',(0.,0.,-1.));
#935=DIRECTION('',(0.,1.,0.));
#936=DIRECTION('',(0.,0.,-1.));
#937=DIRECTION('',(0.,0.,1.));
#938=DIRECTION('',(1.,0.,0.));
#939=DIRECTION('',(0.,1.,0.));
#940=DIRECTION('',(1.,0.,0.));
#941=DIRECTION('',(0.,1.,0.));
#942=DIRECTION('',(1.,0.,0.));
#943=DIRECTION('',(-1.,0.,0.));
#944=DIRECTION('',(0.,0.,1.));
#945=DIRECTION('',(0.,0.,-1.));
#946=DIRECTION('',(0.,1.,0.));
#947=DIRECTION('',(0.,0.,-1.));
#948=DIRECTION('',(0.,1.,0.));
#949=DIRECTION('',(0.,0.,-1.));
#950=DIRECTION('',(0.,-1.,0.));
#951=DIRECTION('',(0.,0.,-1.));
#952=DIRECTION('',(0.,1.,0.));
#953=DIRECTION('',(-1.,0.,0.));
#954=DIRECTION('',(0.,0.,1.));
#955=DIRECTION('',(0.,1.,0.));
#956=DIRECTION('',(0.,0.,-1.));
#957=DIRECTION('',(0.,1.,0.));
#958=DIRECTION('',(0.,0.,-1.));
#959=DIRECTION('',(0.,-1.,0.));
#960=DIRECTION('',(0.,0.,-1.));
#961=DIRECTION('',(0.,1.,0.));
#962=DIRECTION('',(0.,0.,-1.));
#963=DIRECTION('',(0.,0.,-1.));
#964=DIRECTION('',(0.,1.,0.));
#965=DIRECTION('',(0.,0.,-1.));
#966=DIRECTION('',(0.,0.,1.));
#967=DIRECTION('',(1.,0.,0.));
#968=DIRECTION('',(1.,0.,0.));
#969=DIRECTION('',(0.,1.,0.));
#970=DIRECTION('',(1.,0.,0.));
#971=DIRECTION('',(0.,0.,1.));
#972=DIRECTION('',(1.,0.,0.));
#973=DIRECTION('',(1.,0.,0.));
#974=DIRECTION('',(0.,0.,1.));
#975=DIRECTION('',(1.,0.,0.));
#976=DIRECTION('',(1.,0.,0.));
#977=DIRECTION('',(1.,0.,0.));
#978=DIRECTION('',(1.,0.,0.));
#979=DIRECTION('',(0.,1.,0.));
#980=DIRECTION('',(1.,0.,0.));
#981=DIRECTION('',(0.,0.,1.));
#982=DIRECTION('',(1.,0.,0.));
#983=DIRECTION('',(1.,0.,0.));
#984=DIRECTION('',(0.,0.,1.));
#985=DIRECTION('',(1.,0.,0.));
#986=DIRECTION('',(-1.,0.,0.));
#987=DIRECTION('',(0.,0.,1.));
#988=DIRECTION('',(0.,1.,0.));
#989=DIRECTION('',(0.,0.,-1.));
#990=DIRECTION('',(0.,1.,0.));
#991=DIRECTION('',(0.,0.,-1.));
#992=DIRECTION('',(0.,1.,0.));
#993=DIRECTION('',(0.,0.,-1.));
#994=DIRECTION('',(0.,1.,0.));
#995=DIRECTION('',(0.,0.,-1.));
#996=DIRECTION('',(0.,1.,0.));
#997=DIRECTION('',(0.,0.,1.));
#998=DIRECTION('',(1.,0.,0.));
#999=DIRECTION('',(0.,0.,1.));
#1000=DIRECTION('',(1.,0.,0.));
#1001=DIRECTION('',(0.,0.,-1.));
#1002=DIRECTION('',(1.,0.,0.));
#1003=DIRECTION('',(0.,0.,-1.));
#1004=DIRECTION('',(1.,0.,0.));
#1005=DIRECTION('',(0.,0.,1.));
#1006=DIRECTION('',(-1.,0.,0.));
#1007=DIRECTION('',(0.,0.,1.));
#1008=DIRECTION('',(0.,0.,-1.));
#1009=DIRECTION('',(0.,1.,0.));
#1010=DIRECTION('',(0.,0.,-1.));
#1011=DIRECTION('',(0.,1.,0.));
#1012=DIRECTION('',(0.,1.,0.));
#1013=DIRECTION('',(0.,0.,-1.));
#1014=DIRECTION('',(0.,1.,0.));
#1015=DIRECTION('',(0.,0.,-1.));
#1016=DIRECTION('',(0.,1.,0.));
#1017=DIRECTION('',(0.,0.,1.));
#1018=DIRECTION('',(1.,0.,0.));
#1019=DIRECTION('',(0.,0.,-1.));
#1020=DIRECTION('',(1.,0.,0.));
#1021=DIRECTION('',(0.,0.,-1.));
#1022=DIRECTION('',(0.,0.,1.));
#1023=DIRECTION('',(1.,0.,0.));
#1024=DIRECTION('',(0.,-1.,0.));
#1025=DIRECTION('',(-1.,0.,0.));
#1026=DIRECTION('',(0.,0.,1.));
#1027=DIRECTION('',(1.,0.,0.));
#1028=DIRECTION('',(0.,0.,1.));
#1029=DIRECTION('',(1.,0.,0.));
#1030=DIRECTION('',(-1.,0.,0.));
#1031=DIRECTION('',(0.,0.,1.));
#1032=DIRECTION('',(1.,0.,0.));
#1033=DIRECTION('',(0.,0.,1.));
#1034=DIRECTION('',(1.,0.,0.));
#1035=DIRECTION('',(-1.,0.,0.));
#1036=DIRECTION('',(0.,-1.,0.));
#1037=DIRECTION('',(0.,0.,1.));
#1038=DIRECTION('',(1.,0.,0.));
#1039=DIRECTION('',(0.,0.,1.));
#1040=DIRECTION('',(1.,0.,0.));
#1041=DIRECTION('',(0.,0.,1.));
#1042=DIRECTION('',(1.,0.,0.));
#1043=DIRECTION('',(0.,0.,1.));
#1044=DIRECTION('',(1.,0.,0.));
#1045=DIRECTION('',(0.,0.,1.));
#1046=DIRECTION('',(1.,0.,0.));
#1047=DIRECTION('',(0.,0.,1.));
#1048=DIRECTION('',(1.,0.,0.));
#1049=DIRECTION('',(0.,0.,1.));
#1050=DIRECTION('',(1.,0.,0.));
#1051=DIRECTION('',(0.,0.,1.));
#1052=DIRECTION('',(1.,0.,0.));
#1053=DIRECTION('',(0.,0.,1.));
#1054=DIRECTION('',(1.,0.,0.));
#1055=DIRECTION('',(0.,0.,1.));
#1056=DIRECTION('',(1.,0.,0.));
#1057=DIRECTION('',(0.,0.,-1.));
#1058=DIRECTION('',(-1.,0.,0.));
#1059=DIRECTION('',(0.,0.,-1.));
#1060=DIRECTION('',(-1.,0.,0.));
#1061=DIRECTION('',(0.,0.,1.));
#1062=DIRECTION('',(1.,0.,0.));
#1063=DIRECTION('',(0.,1.,0.));
#1064=DIRECTION('',(0.,0.,1.));
#1065=DIRECTION('',(0.,0.,1.));
#1066=DIRECTION('',(1.,0.,0.));
#1067=DIRECTION('',(0.,0.,1.));
#1068=DIRECTION('',(0.,0.,-1.));
#1069=DIRECTION('',(0.,0.,-1.));
#1070=DIRECTION('',(0.,1.,0.));
#1071=DIRECTION('',(0.,0.,1.));
#1072=DIRECTION('',(0.,0.,-1.));
#1073=DIRECTION('',(0.,0.,-1.));
#1074=DIRECTION('',(0.,0.,1.));
#1075=DIRECTION('',(1.,0.,0.));
#1076=DIRECTION('',(0.,0.,-1.));
#1077=DIRECTION('',(-1.,0.,0.));
#1078=DIRECTION('',(0.,0.,-1.));
#1079=DIRECTION('',(-1.,0.,0.));
#1080=DIRECTION('',(0.,0.,1.));
#1081=DIRECTION('',(1.,0.,0.));
#1082=DIRECTION('',(-1.,0.,0.));
#1083=DIRECTION('',(0.,0.,1.));
#1084=DIRECTION('',(0.,1.,0.));
#1085=DIRECTION('',(-1.,0.,0.));
#1086=DIRECTION('',(0.,0.,1.));
#1087=DIRECTION('',(0.,1.,0.));
#1088=DIRECTION('',(0.,0.,1.));
#1089=DIRECTION('',(1.,0.,0.));
#1090=DIRECTION('',(-1.,0.,0.));
#1091=DIRECTION('',(0.,0.,1.));
#1092=DIRECTION('',(0.,0.,-1.));
#1093=DIRECTION('',(0.,0.,-1.));
#1094=DIRECTION('',(0.,1.,0.));
#1095=DIRECTION('',(0.,0.,1.));
#1096=DIRECTION('',(1.,0.,0.));
#1097=DIRECTION('',(0.,1.,0.));
#1098=DIRECTION('',(0.,0.,1.));
#1099=DIRECTION('',(0.,0.,1.));
#1100=DIRECTION('',(1.,0.,0.));
#1101=DIRECTION('',(1.,0.,0.));
#1102=DIRECTION('',(0.,1.,0.));
#1103=DIRECTION('',(0.,0.,1.));
#1104=DIRECTION('',(1.,0.,0.));
#1105=DIRECTION('',(0.,0.,-1.));
#1106=DIRECTION('',(0.,1.,0.));
#1107=DIRECTION('',(0.,0.,1.));
#1108=DIRECTION('',(1.,0.,0.));
#1109=DIRECTION('',(0.,0.,-1.));
#1110=DIRECTION('',(0.,0.,1.));
#1111=DIRECTION('',(1.,0.,0.));
#1112=DIRECTION('',(0.,1.,0.));
#1113=DIRECTION('',(-1.,0.,0.));
#1114=DIRECTION('',(0.,0.,1.));
#1115=DIRECTION('',(0.,1.,0.));
#1116=DIRECTION('',(0.,0.,1.));
#1117=DIRECTION('',(0.,1.,0.));
#1118=DIRECTION('',(0.,0.,1.));
#1119=DIRECTION('',(0.,1.,0.));
#1120=DIRECTION('',(0.,0.,1.));
#1121=DIRECTION('',(1.,0.,0.));
#1122=DIRECTION('',(0.,0.,-1.));
#1123=DIRECTION('',(1.,0.,0.));
#1124=DIRECTION('',(-1.,0.,0.));
#1125=DIRECTION('',(0.,0.,1.));
#1126=DIRECTION('',(0.,1.,0.));
#1127=DIRECTION('',(0.,1.,0.));
#1128=DIRECTION('',(0.,0.,-1.));
#1129=DIRECTION('',(0.,1.,0.));
#1130=DIRECTION('',(0.,0.,1.));
#1131=DIRECTION('',(1.,0.,0.));
#1132=DIRECTION('',(1.,0.,0.));
#1133=DIRECTION('',(0.,0.,1.));
#1134=DIRECTION('',(1.,0.,0.));
#1135=DIRECTION('',(0.,0.,1.));
#1136=DIRECTION('',(1.,0.,0.));
#1137=DIRECTION('',(0.,1.,0.));
#1138=DIRECTION('',(0.,0.,1.));
#1139=DIRECTION('',(1.,0.,0.));
#1140=DIRECTION('',(0.,0.,-1.));
#1141=DIRECTION('',(1.,0.,0.));
#1142=DIRECTION('',(0.,1.,0.));
#1143=DIRECTION('',(0.,0.,1.));
#1144=DIRECTION('',(1.,0.,0.));
#1145=DIRECTION('',(0.,0.,-1.));
#1146=DIRECTION('',(1.,0.,0.));
#1147=DIRECTION('',(0.,0.,1.));
#1148=DIRECTION('',(1.,0.,0.));
#1149=DIRECTION('',(0.,1.,0.));
#1150=DIRECTION('',(0.,0.,1.));
#1151=DIRECTION('',(1.,0.,0.));
#1152=DIRECTION('',(0.,1.,0.));
#1153=DIRECTION('',(-1.,0.,0.));
#1154=DIRECTION('',(0.,0.,1.));
#1155=CARTESIAN_POINT('',(0.,0.,0.));
#1156=CARTESIAN_POINT('',(0.0235,0.035,0.));
#1157=CARTESIAN_POINT('',(0.0235,0.035,0.));
#1158=CARTESIAN_POINT('',(0.0235,0.005,0.));
#1159=CARTESIAN_POINT('',(0.0235,0.02875,0.));
#1160=CARTESIAN_POINT('',(0.0235,0.02875,0.));
#1161=CARTESIAN_POINT('',(0.0235,0.02875,-0.003));
#1162=CARTESIAN_POINT('',(0.0235,0.035,-0.003));
#1163=CARTESIAN_POINT('',(0.0235,0.005,-0.003));
#1164=CARTESIAN_POINT('',(0.0235,0.005,0.));
#1165=CARTESIAN_POINT('',(0.025125,0.035,0.));
#1166=CARTESIAN_POINT('',(0.0235,0.035,0.));
#1167=CARTESIAN_POINT('',(0.0235,0.05375,0.));
#1168=CARTESIAN_POINT('',(0.0235,0.065,0.));
#1169=CARTESIAN_POINT('',(0.024625,0.05375,0.));
#1170=CARTESIAN_POINT('',(0.02575,0.05375,0.));
#1171=CARTESIAN_POINT('',(0.02575,0.035,0.));
#1172=CARTESIAN_POINT('',(0.02575,0.065,0.));
#1173=CARTESIAN_POINT('',(0.025125,0.065,0.));
#1174=CARTESIAN_POINT('',(-0.02575,0.035,0.0106));
#1175=CARTESIAN_POINT('',(-0.02575,0.005,0.0106));
#1176=CARTESIAN_POINT('',(-0.02575,0.005,0.));
#1177=CARTESIAN_POINT('',(-0.02575,0.005,-0.003));
#1178=CARTESIAN_POINT('',(-0.02575,0.035,0.));
#1179=CARTESIAN_POINT('',(-0.02575,0.065,0.));
#1180=CARTESIAN_POINT('',(-0.02575,0.065,0.0106));
#1181=CARTESIAN_POINT('',(-0.02575,0.065,-0.003));
#1182=CARTESIAN_POINT('',(-0.02575,0.035,-0.003));
#1183=CARTESIAN_POINT('',(-0.02575,0.06975,-0.003));
#1184=CARTESIAN_POINT('',(-0.02575,0.06975,0.0106));
#1185=CARTESIAN_POINT('',(-0.02575,0.06975,0.0096));
#1186=CARTESIAN_POINT('',(-0.02575,0.035,0.0096));
#1187=CARTESIAN_POINT('',(-0.02575,0.00025,0.0096));
#1188=CARTESIAN_POINT('',(-0.02575,0.00025,0.0106));
#1189=CARTESIAN_POINT('',(-0.02575,0.00025,-0.003));
#1190=CARTESIAN_POINT('',(-0.02575,0.035,-0.003));
#1191=CARTESIAN_POINT('',(0.02575,0.035,0.0106));
#1192=CARTESIAN_POINT('',(0.02575,0.035,0.));
#1193=CARTESIAN_POINT('',(0.02575,0.005,0.));
#1194=CARTESIAN_POINT('',(0.02575,0.02875,0.));
#1195=CARTESIAN_POINT('',(0.02575,0.005,0.0106));
#1196=CARTESIAN_POINT('',(0.02575,0.005,-0.003));
#1197=CARTESIAN_POINT('',(0.02575,0.035,-0.003));
#1198=CARTESIAN_POINT('',(0.02575,0.00025,-0.003));
#1199=CARTESIAN_POINT('',(0.02575,0.00025,0.0106));
#1200=CARTESIAN_POINT('',(0.02575,0.00025,0.0096));
#1201=CARTESIAN_POINT('',(0.02575,0.035,0.0096));
#1202=CARTESIAN_POINT('',(0.02575,0.06975,0.0096));
#1203=CARTESIAN_POINT('',(0.02575,0.06975,0.0106));
#1204=CARTESIAN_POINT('',(0.02575,0.06975,-0.003));
#1205=CARTESIAN_POINT('',(0.02575,0.035,-0.003));
#1206=CARTESIAN_POINT('',(0.02575,0.065,-0.003));
#1207=CARTESIAN_POINT('',(0.02575,0.065,0.0106));
#1208=CARTESIAN_POINT('',(0.02575,0.05375,0.));
#1209=CARTESIAN_POINT('',(0.02575,0.05375,-0.003));
#1210=CARTESIAN_POINT('',(0.02575,0.04125,-0.003));
#1211=CARTESIAN_POINT('',(0.02575,0.02875,-0.003));
#1212=CARTESIAN_POINT('',(0.02575,0.02875,0.));
#1213=CARTESIAN_POINT('',(0.,0.035,-0.003));
#1214=CARTESIAN_POINT('',(-0.025125,0.065,-0.003));
#1215=CARTESIAN_POINT('',(-0.0235,0.065,-0.003));
#1216=CARTESIAN_POINT('',(-0.0235,0.035,-0.003));
#1217=CARTESIAN_POINT('',(-0.0235,0.005,-0.003));
#1218=CARTESIAN_POINT('',(-0.025125,0.005,-0.003));
#1219=CARTESIAN_POINT('',(-0.02475,0.00025,-0.003));
#1220=CARTESIAN_POINT('',(-0.02475,-0.00075,-0.003));
#1221=CARTESIAN_POINT('',(0.,-0.00075,-0.003));
#1222=CARTESIAN_POINT('',(0.02475,-0.00075,-0.003));
#1223=CARTESIAN_POINT('',(0.02475,0.00025,-0.003));
#1224=CARTESIAN_POINT('',(0.025125,0.005,-0.003));
#1225=CARTESIAN_POINT('',(0.024625,0.02875,-0.003));
#1226=CARTESIAN_POINT('',(0.024625,0.05375,-0.003));
#1227=CARTESIAN_POINT('',(0.0235,0.05375,-0.003));
#1228=CARTESIAN_POINT('',(0.0235,0.035,-0.003));
#1229=CARTESIAN_POINT('',(0.0235,0.065,-0.003));
#1230=CARTESIAN_POINT('',(0.025125,0.065,-0.003));
#1231=CARTESIAN_POINT('',(0.02475,0.06975,-0.003));
#1232=CARTESIAN_POINT('',(0.02475,0.07075,-0.003));
#1233=CARTESIAN_POINT('',(0.,0.07075,-0.003));
#1234=CARTESIAN_POINT('',(-0.02475,0.07075,-0.003));
#1235=CARTESIAN_POINT('',(-0.02475,0.06975,-0.003));
#1236=CARTESIAN_POINT('',(-0.02775,0.035,0.0096));
#1237=CARTESIAN_POINT('',(-0.02775,0.035,0.0073));
#1238=CARTESIAN_POINT('',(-0.02775,0.0308,0.0073));
#1239=CARTESIAN_POINT('',(-0.02775,0.0392,0.0073));
#1240=CARTESIAN_POINT('',(-0.02775,0.0308,0.0096));
#1241=CARTESIAN_POINT('',(-0.02775,0.0308,0.0055));
#1242=CARTESIAN_POINT('',(-0.02775,0.035,0.0055));
#1243=CARTESIAN_POINT('',(-0.02775,0.0392,0.0055));
#1244=CARTESIAN_POINT('',(-0.02775,0.0392,0.0096));
#1245=CARTESIAN_POINT('',(-0.02775,0.035,0.0096));
#1246=CARTESIAN_POINT('',(-0.02775,0.00025,0.0096));
#1247=CARTESIAN_POINT('',(-0.02775,0.06975,0.0096));
#1248=CARTESIAN_POINT('',(-0.02775,0.06975,0.0096));
#1249=CARTESIAN_POINT('',(-0.02775,0.06975,-0.005));
#1250=CARTESIAN_POINT('',(-0.02775,0.035,-0.005));
#1251=CARTESIAN_POINT('',(-0.02775,0.00025,-0.005));
#1252=CARTESIAN_POINT('',(-0.02775,0.00025,0.0096));
#1253=CARTESIAN_POINT('',(0.,-0.00275,0.0096));
#1254=CARTESIAN_POINT('',(0.,-0.00275,0.0016));
#1255=CARTESIAN_POINT('',(-0.0215,-0.00275,0.0016));
#1256=CARTESIAN_POINT('',(0.0215,-0.00275,0.0016));
#1257=CARTESIAN_POINT('',(-0.0215,-0.00275,0.0096));
#1258=CARTESIAN_POINT('',(-0.0215,-0.00275,0.0096));
#1259=CARTESIAN_POINT('',(0.,-0.00275,0.0096));
#1260=CARTESIAN_POINT('',(-0.02475,-0.00275,0.0096));
#1261=CARTESIAN_POINT('',(-0.02475,-0.00275,-0.005));
#1262=CARTESIAN_POINT('',(-0.02475,-0.00275,-0.005));
#1263=CARTESIAN_POINT('',(0.,-0.00275,-0.005));
#1264=CARTESIAN_POINT('',(0.02475,-0.00275,-0.005));
#1265=CARTESIAN_POINT('',(0.02475,-0.00275,0.0096));
#1266=CARTESIAN_POINT('',(0.02475,-0.00275,0.0096));
#1267=CARTESIAN_POINT('',(0.,-0.00275,0.0096));
#1268=CARTESIAN_POINT('',(0.0215,-0.00275,0.0096));
#1269=CARTESIAN_POINT('',(0.0215,-0.00275,0.0096));
#1270=CARTESIAN_POINT('',(0.02775,0.035,0.0096));
#1271=CARTESIAN_POINT('',(0.02775,0.0308,0.0096));
#1272=CARTESIAN_POINT('',(0.02775,0.0308,0.0073));
#1273=CARTESIAN_POINT('',(0.02775,0.0308,0.0055));
#1274=CARTESIAN_POINT('',(0.02775,0.035,0.0073));
#1275=CARTESIAN_POINT('',(0.02775,0.0392,0.0073));
#1276=CARTESIAN_POINT('',(0.02775,0.0392,0.0096));
#1277=CARTESIAN_POINT('',(0.02775,0.0392,0.0055));
#1278=CARTESIAN_POINT('',(0.02775,0.035,0.0055));
#1279=CARTESIAN_POINT('',(0.02775,0.035,-0.005));
#1280=CARTESIAN_POINT('',(0.02775,0.000250000000000007,-0.005));
#1281=CARTESIAN_POINT('',(0.02775,0.06975,-0.005));
#1282=CARTESIAN_POINT('',(0.02775,0.06975,0.0096));
#1283=CARTESIAN_POINT('',(0.02775,0.06975,0.0096));
#1284=CARTESIAN_POINT('',(0.02775,0.035,0.0096));
#1285=CARTESIAN_POINT('',(0.02775,0.000250000000000007,0.0096));
#1286=CARTESIAN_POINT('',(0.02775,0.000250000000000007,0.0096));
#1287=CARTESIAN_POINT('',(0.,0.07275,0.0096));
#1288=CARTESIAN_POINT('',(0.,0.07275,0.0096));
#1289=CARTESIAN_POINT('',(-0.02475,0.07275,0.0096));
#1290=CARTESIAN_POINT('',(0.02475,0.07275,0.0096));
#1291=CARTESIAN_POINT('',(0.02475,0.07275,-0.005));
#1292=CARTESIAN_POINT('',(0.02475,0.07275,-0.005));
#1293=CARTESIAN_POINT('',(0.,0.07275,-0.005));
#1294=CARTESIAN_POINT('',(-0.02475,0.07275,-0.005));
#1295=CARTESIAN_POINT('',(-0.02475,0.07275,0.0096));
#1296=CARTESIAN_POINT('',(0.,0.035,0.0096));
#1297=CARTESIAN_POINT('',(-0.0215,0.035,0.0096));
#1298=CARTESIAN_POINT('',(-0.0215,-0.00075,0.0096));
#1299=CARTESIAN_POINT('',(0.,-0.00075,0.0096));
#1300=CARTESIAN_POINT('',(-0.02475,-0.00075,0.0096));
#1301=CARTESIAN_POINT('',(-0.02475,0.00025,0.0096));
#1302=CARTESIAN_POINT('',(-0.02475,0.06975,0.0096));
#1303=CARTESIAN_POINT('',(-0.02475,0.07075,0.0096));
#1304=CARTESIAN_POINT('',(0.,0.07075,0.0096));
#1305=CARTESIAN_POINT('',(0.02475,0.07075,0.0096));
#1306=CARTESIAN_POINT('',(0.02475,0.06975,0.0096));
#1307=CARTESIAN_POINT('',(0.02475,0.00025,0.0096));
#1308=CARTESIAN_POINT('',(0.02475,-0.00075,0.0096));
#1309=CARTESIAN_POINT('',(0.,-0.00075,0.0096));
#1310=CARTESIAN_POINT('',(0.0215,-0.00075,0.0096));
#1311=CARTESIAN_POINT('',(0.0215,0.035,0.0096));
#1312=CARTESIAN_POINT('',(0.02475,0.000250000000000007,0.0096));
#1313=CARTESIAN_POINT('',(0.02475,0.06975,0.0096));
#1314=CARTESIAN_POINT('',(-0.02475,0.06975,0.0096));
#1315=CARTESIAN_POINT('',(-0.02475,0.00025,0.0096));
#1316=CARTESIAN_POINT('',(0.,0.035,-0.005));
#1317=CARTESIAN_POINT('',(0.02475,0.06975,-0.005));
#1318=CARTESIAN_POINT('',(0.02475,0.000250000000000007,-0.005));
#1319=CARTESIAN_POINT('',(-0.02475,0.00025,-0.005));
#1320=CARTESIAN_POINT('',(-0.02475,0.06975,-0.005));
#1321=CARTESIAN_POINT('',(0.02475,0.06975,0.0096));
#1322=CARTESIAN_POINT('',(0.02475,0.000250000000000007,0.0096));
#1323=CARTESIAN_POINT('',(-0.02475,0.06975,0.0096));
#1324=CARTESIAN_POINT('',(-0.02475,0.00025,0.0096));
#1325=CARTESIAN_POINT('',(0.,-0.00075,0.0106));
#1326=CARTESIAN_POINT('',(-0.0215,-0.00075,0.0106));
#1327=CARTESIAN_POINT('',(-0.0215,-0.00075,0.0016));
#1328=CARTESIAN_POINT('',(0.,-0.00075,0.0016));
#1329=CARTESIAN_POINT('',(0.0215,-0.00075,0.0016));
#1330=CARTESIAN_POINT('',(0.0215,-0.00075,0.0106));
#1331=CARTESIAN_POINT('',(0.02475,-0.00075,0.0106));
#1332=CARTESIAN_POINT('',(-0.02475,-0.00075,-0.003));
#1333=CARTESIAN_POINT('',(0.,0.07075,0.0106));
#1334=CARTESIAN_POINT('',(-0.02475,0.07075,0.0106));
#1335=CARTESIAN_POINT('',(0.02475,0.07075,-0.003));
#1336=CARTESIAN_POINT('',(0.02475,0.06975,0.0106));
#1337=CARTESIAN_POINT('',(0.02475,0.00025,0.0106));
#1338=CARTESIAN_POINT('',(-0.02475,0.06975,0.0106));
#1339=CARTESIAN_POINT('',(-0.02475,0.00025,0.0106));
#1340=CARTESIAN_POINT('',(-0.0215,-0.001375,0.0106));
#1341=CARTESIAN_POINT('',(-0.0215,-0.001375,0.0016));
#1342=CARTESIAN_POINT('',(0.0215,-0.001375,0.0106));
#1343=CARTESIAN_POINT('',(0.0215,-0.001375,0.0016));
#1344=CARTESIAN_POINT('',(0.,-0.001375,0.0016));
#1345=CARTESIAN_POINT('',(0.0235,0.035,0.));
#1346=CARTESIAN_POINT('',(0.0235,0.05375,0.));
#1347=CARTESIAN_POINT('',(0.0235,0.065,0.));
#1348=CARTESIAN_POINT('',(0.025125,0.005,0.));
#1349=CARTESIAN_POINT('',(0.025125,0.005,0.));
#1350=CARTESIAN_POINT('',(0.025125,0.065,0.));
#1351=CARTESIAN_POINT('',(0.025125,0.035,0.));
#1352=CARTESIAN_POINT('',(0.024625,0.02875,0.));
#1353=CARTESIAN_POINT('',(-0.025125,0.005,0.));
#1354=CARTESIAN_POINT('',(-0.025125,0.005,0.));
#1355=CARTESIAN_POINT('',(-0.0235,0.005,0.));
#1356=CARTESIAN_POINT('',(-0.0235,0.005,0.));
#1357=CARTESIAN_POINT('',(-0.025125,0.065,0.));
#1358=CARTESIAN_POINT('',(-0.025125,0.065,0.));
#1359=CARTESIAN_POINT('',(-0.0235,0.065,0.));
#1360=CARTESIAN_POINT('',(-0.0235,0.065,0.));
#1361=CARTESIAN_POINT('',(-0.025125,0.035,0.));
#1362=CARTESIAN_POINT('',(-0.0235,0.035,0.));
#1363=CARTESIAN_POINT('',(-0.0235,0.035,0.));
#1364=CARTESIAN_POINT('',(0.024625,0.02875,0.));
#1365=CARTESIAN_POINT('',(0.024625,0.05375,0.));
#1366=CARTESIAN_POINT('',(-0.028,0.0308,0.0073));
#1367=CARTESIAN_POINT('',(-0.028,0.0308,0.0073));
#1368=CARTESIAN_POINT('',(-0.02725,0.0308,0.0073));
#1369=CARTESIAN_POINT('',(-0.02725,0.0308,0.0073));
#1370=CARTESIAN_POINT('',(-0.02725,0.0308,0.0055));
#1371=CARTESIAN_POINT('',(-0.028,0.0308,0.0055));
#1372=CARTESIAN_POINT('',(-0.02725,0.035,0.0073));
#1373=CARTESIAN_POINT('',(-0.02725,0.035,0.0055));
#1374=CARTESIAN_POINT('',(-0.02725,0.0392,0.0055));
#1375=CARTESIAN_POINT('',(-0.02725,0.035,0.0073));
#1376=CARTESIAN_POINT('',(-0.02725,0.0392,0.0073));
#1377=CARTESIAN_POINT('',(-0.02725,0.0392,0.0073));
#1378=CARTESIAN_POINT('',(-0.028,0.0392,0.0073));
#1379=CARTESIAN_POINT('',(-0.028,0.0392,0.0055));
#1380=CARTESIAN_POINT('',(-0.028,0.0392,0.0073));
#1381=CARTESIAN_POINT('',(-0.028,0.035,0.0073));
#1382=CARTESIAN_POINT('',(-0.028,0.035,0.0055));
#1383=CARTESIAN_POINT('',(0.028,0.0308,0.0073));
#1384=CARTESIAN_POINT('',(0.028,0.0308,0.0055));
#1385=CARTESIAN_POINT('',(0.02725,0.0308,0.0055));
#1386=CARTESIAN_POINT('',(0.02725,0.0308,0.0073));
#1387=CARTESIAN_POINT('',(0.02725,0.0308,0.0073));
#1388=CARTESIAN_POINT('',(0.028,0.0308,0.0073));
#1389=CARTESIAN_POINT('',(0.028,0.0392,0.0073));
#1390=CARTESIAN_POINT('',(0.028,0.0392,0.0073));
#1391=CARTESIAN_POINT('',(0.02725,0.0392,0.0073));
#1392=CARTESIAN_POINT('',(0.02725,0.0392,0.0073));
#1393=CARTESIAN_POINT('',(0.02725,0.0392,0.0055));
#1394=CARTESIAN_POINT('',(0.028,0.0392,0.0055));
#1395=CARTESIAN_POINT('',(0.028,0.035,0.0073));
#1396=CARTESIAN_POINT('',(0.02725,0.035,0.0073));
#1397=CARTESIAN_POINT('',(0.028,0.035,0.0055));
#1398=CARTESIAN_POINT('',(0.02725,0.035,0.0055));
#1399=CARTESIAN_POINT('',(0.02725,0.035,0.0073));
#1400=MECHANICAL_DESIGN_GEOMETRIC_PRESENTATION_REPRESENTATION('',(#857),
#1401);
#1401=(
GEOMETRIC_REPRESENTATION_CONTEXT(3)
GLOBAL_UNCERTAINTY_ASSIGNED_CONTEXT((#1402))
GLOBAL_UNIT_ASSIGNED_CONTEXT((#1405,#1404,#1403))
REPRESENTATION_CONTEXT(
'10 Lower body - right support wire gap 17 mm offset x 25 mm',
'TOP_LEVEL_ASSEMBLY_PART')
);
#1402=UNCERTAINTY_MEASURE_WITH_UNIT(LENGTH_MEASURE(1.E-8),#1405,
'DISTANCE_ACCURACY_VALUE','Maximum Tolerance applied to model');
#1403=(
NAMED_UNIT(*)
SI_UNIT($,.STERADIAN.)
SOLID_ANGLE_UNIT()
);
#1404=(
NAMED_UNIT(*)
PLANE_ANGLE_UNIT()
SI_UNIT($,.RADIAN.)
);
#1405=(
LENGTH_UNIT()
NAMED_UNIT(*)
SI_UNIT($,.METRE.)
);
#1406=PRODUCT_DEFINITION_SHAPE('','',#1407);
#1407=PRODUCT_DEFINITION('','',#1409,#1408);
#1408=PRODUCT_DEFINITION_CONTEXT('',#1415,'design');
#1409=PRODUCT_DEFINITION_FORMATION_WITH_SPECIFIED_SOURCE('','',#1411,
 .NOT_KNOWN.);
#1410=PRODUCT_RELATED_PRODUCT_CATEGORY('','',(#1411));
#1411=PRODUCT(
'10 Lower body - right support wire gap 17 mm offset x 25 mm',
'10 Lower body - right support wire gap 17 mm offset x 25 mm',
'10 Lower body - right support wire gap 17 mm offset x 25 mm',(#1413));
#1412=PRODUCT_CATEGORY('','');
#1413=PRODUCT_CONTEXT('',#1415,'mechanical');
#1414=APPLICATION_PROTOCOL_DEFINITION('international standard',
'ap242_managed_model_based_3d_engineering',2020,#1415);
#1415=APPLICATION_CONTEXT('managed model based 3d engineering');
ENDSEC;
END-ISO-10303-21;
