ISO-10303-21;
HEADER;
/* Generated by software containing ST-Developer
 * from STEP Tools, Inc. (www.steptools.com) 
 */
/* OPTION: using custom renumber hook */

FILE_DESCRIPTION(
/* description */ ('STEP AP242 Edition 2',
'CAx-IF Rec.Pracs.---Representation and Presentation of Product Manufa
cturing Information (PMI)---4.0---2014-10-13',
'CAx-IF Rec.Pracs.---3D Tessellated Geometry---0.4---2014-09-14','2;1',
'CAx-IF Rec.Pracs.---User Defined Attributes---1.5---2016-08-15'),
/* implementation_level */ '2;1');

FILE_NAME(
/* name */ 
'Part Studio 1 - 12 Lift-off lid - light snaps and carrier retention',
/* time_stamp */ '2026-09-06T19:37:37Z',
/* author */ (''),
/* organization */ (''),
/* preprocessor_version */ 'ST-DEVELOPER v20',
/* originating_system */ 'ONSHAPE BY PTC INC, 1.220',
/* authorisation */ '  ');

FILE_SCHEMA (('AP242_MANAGED_MODEL_BASED_3D_ENGINEERING_MIM_LF { 1 0 10303 442 3 1 4 }'));
ENDSEC;

DATA;
#10=SHAPE_REPRESENTATION_RELATIONSHIP('','',#1399,#11);
#11=ADVANCED_BREP_SHAPE_REPRESENTATION('',(#1397),#2277);
#12=CYLINDRICAL_SURFACE('',#1439,0.0053);
#13=CYLINDRICAL_SURFACE('',#1440,0.0053);
#14=CYLINDRICAL_SURFACE('',#1441,0.0053);
#15=CYLINDRICAL_SURFACE('',#1442,0.0053);
#16=CYLINDRICAL_SURFACE('',#1445,0.0033);
#17=CYLINDRICAL_SURFACE('',#1447,0.0033);
#18=CYLINDRICAL_SURFACE('',#1449,0.0033);
#19=CYLINDRICAL_SURFACE('',#1451,0.0033);
#20=CYLINDRICAL_SURFACE('',#1462,0.0004);
#21=CYLINDRICAL_SURFACE('',#1465,0.0004);
#22=CYLINDRICAL_SURFACE('',#1469,0.0004);
#23=CYLINDRICAL_SURFACE('',#1471,0.0004);
#24=CYLINDRICAL_SURFACE('',#1474,0.004);
#25=CYLINDRICAL_SURFACE('',#1495,0.0007);
#26=CYLINDRICAL_SURFACE('',#1500,0.0007);
#27=CIRCLE('',#1403,0.0033);
#28=CIRCLE('',#1404,0.0053);
#29=CIRCLE('',#1408,0.0004);
#30=CIRCLE('',#1409,0.0004);
#31=CIRCLE('',#1411,0.0004);
#32=CIRCLE('',#1412,0.0004);
#33=CIRCLE('',#1415,0.0053);
#34=CIRCLE('',#1416,0.0033);
#35=CIRCLE('',#1419,0.004);
#36=CIRCLE('',#1420,0.0004);
#37=CIRCLE('',#1421,0.0004);
#38=CIRCLE('',#1423,0.004);
#39=CIRCLE('',#1424,0.0004);
#40=CIRCLE('',#1425,0.0004);
#41=CIRCLE('',#1427,0.0033);
#42=CIRCLE('',#1428,0.0053);
#43=CIRCLE('',#1432,0.0053);
#44=CIRCLE('',#1433,0.0053);
#45=CIRCLE('',#1434,0.0053);
#46=CIRCLE('',#1435,0.0053);
#47=CIRCLE('',#1437,0.0053);
#48=CIRCLE('',#1438,0.0033);
#49=CIRCLE('',#1446,0.0033);
#50=CIRCLE('',#1448,0.0033);
#51=CIRCLE('',#1450,0.0033);
#52=CIRCLE('',#1452,0.0033);
#53=CIRCLE('',#1496,0.0007);
#54=CIRCLE('',#1497,0.0007);
#55=CIRCLE('',#1501,0.0007);
#56=CIRCLE('',#1502,0.0007);
#57=ORIENTED_EDGE('',*,*,#445,.F.);
#58=ORIENTED_EDGE('',*,*,#446,.T.);
#59=ORIENTED_EDGE('',*,*,#447,.F.);
#60=ORIENTED_EDGE('',*,*,#448,.T.);
#61=ORIENTED_EDGE('',*,*,#449,.F.);
#62=ORIENTED_EDGE('',*,*,#450,.T.);
#63=ORIENTED_EDGE('',*,*,#451,.T.);
#64=ORIENTED_EDGE('',*,*,#452,.F.);
#65=ORIENTED_EDGE('',*,*,#453,.T.);
#66=ORIENTED_EDGE('',*,*,#454,.F.);
#67=ORIENTED_EDGE('',*,*,#455,.T.);
#68=ORIENTED_EDGE('',*,*,#456,.T.);
#69=ORIENTED_EDGE('',*,*,#457,.F.);
#70=ORIENTED_EDGE('',*,*,#458,.F.);
#71=ORIENTED_EDGE('',*,*,#459,.T.);
#72=ORIENTED_EDGE('',*,*,#460,.F.);
#73=ORIENTED_EDGE('',*,*,#461,.T.);
#74=ORIENTED_EDGE('',*,*,#462,.T.);
#75=ORIENTED_EDGE('',*,*,#463,.T.);
#76=ORIENTED_EDGE('',*,*,#464,.F.);
#77=ORIENTED_EDGE('',*,*,#465,.F.);
#78=ORIENTED_EDGE('',*,*,#466,.T.);
#79=ORIENTED_EDGE('',*,*,#467,.F.);
#80=ORIENTED_EDGE('',*,*,#468,.T.);
#81=ORIENTED_EDGE('',*,*,#469,.T.);
#82=ORIENTED_EDGE('',*,*,#470,.T.);
#83=ORIENTED_EDGE('',*,*,#471,.F.);
#84=ORIENTED_EDGE('',*,*,#472,.T.);
#85=ORIENTED_EDGE('',*,*,#473,.T.);
#86=ORIENTED_EDGE('',*,*,#474,.F.);
#87=ORIENTED_EDGE('',*,*,#475,.F.);
#88=ORIENTED_EDGE('',*,*,#476,.T.);
#89=ORIENTED_EDGE('',*,*,#477,.T.);
#90=ORIENTED_EDGE('',*,*,#478,.T.);
#91=ORIENTED_EDGE('',*,*,#479,.F.);
#92=ORIENTED_EDGE('',*,*,#480,.T.);
#93=ORIENTED_EDGE('',*,*,#464,.T.);
#94=ORIENTED_EDGE('',*,*,#481,.T.);
#95=ORIENTED_EDGE('',*,*,#459,.F.);
#96=ORIENTED_EDGE('',*,*,#482,.T.);
#97=ORIENTED_EDGE('',*,*,#483,.T.);
#98=ORIENTED_EDGE('',*,*,#484,.T.);
#99=ORIENTED_EDGE('',*,*,#485,.F.);
#100=ORIENTED_EDGE('',*,*,#486,.T.);
#101=ORIENTED_EDGE('',*,*,#487,.F.);
#102=ORIENTED_EDGE('',*,*,#488,.T.);
#103=ORIENTED_EDGE('',*,*,#463,.F.);
#104=ORIENTED_EDGE('',*,*,#489,.T.);
#105=ORIENTED_EDGE('',*,*,#460,.T.);
#106=ORIENTED_EDGE('',*,*,#481,.F.);
#107=ORIENTED_EDGE('',*,*,#490,.F.);
#108=ORIENTED_EDGE('',*,*,#473,.F.);
#109=ORIENTED_EDGE('',*,*,#491,.T.);
#110=ORIENTED_EDGE('',*,*,#492,.F.);
#111=ORIENTED_EDGE('',*,*,#493,.F.);
#112=ORIENTED_EDGE('',*,*,#494,.F.);
#113=ORIENTED_EDGE('',*,*,#495,.T.);
#114=ORIENTED_EDGE('',*,*,#484,.F.);
#115=ORIENTED_EDGE('',*,*,#496,.F.);
#116=ORIENTED_EDGE('',*,*,#497,.F.);
#117=ORIENTED_EDGE('',*,*,#498,.T.);
#118=ORIENTED_EDGE('',*,*,#499,.T.);
#119=ORIENTED_EDGE('',*,*,#446,.F.);
#120=ORIENTED_EDGE('',*,*,#500,.T.);
#121=ORIENTED_EDGE('',*,*,#456,.F.);
#122=ORIENTED_EDGE('',*,*,#501,.T.);
#123=ORIENTED_EDGE('',*,*,#502,.T.);
#124=ORIENTED_EDGE('',*,*,#503,.T.);
#125=ORIENTED_EDGE('',*,*,#504,.F.);
#126=ORIENTED_EDGE('',*,*,#505,.F.);
#127=ORIENTED_EDGE('',*,*,#506,.T.);
#128=ORIENTED_EDGE('',*,*,#507,.F.);
#129=ORIENTED_EDGE('',*,*,#508,.T.);
#130=ORIENTED_EDGE('',*,*,#509,.T.);
#131=ORIENTED_EDGE('',*,*,#510,.F.);
#132=ORIENTED_EDGE('',*,*,#511,.T.);
#133=ORIENTED_EDGE('',*,*,#512,.F.);
#134=ORIENTED_EDGE('',*,*,#513,.F.);
#135=ORIENTED_EDGE('',*,*,#514,.F.);
#136=ORIENTED_EDGE('',*,*,#448,.F.);
#137=ORIENTED_EDGE('',*,*,#515,.F.);
#138=ORIENTED_EDGE('',*,*,#516,.F.);
#139=ORIENTED_EDGE('',*,*,#517,.T.);
#140=ORIENTED_EDGE('',*,*,#498,.F.);
#141=ORIENTED_EDGE('',*,*,#518,.F.);
#142=ORIENTED_EDGE('',*,*,#519,.F.);
#143=ORIENTED_EDGE('',*,*,#520,.T.);
#144=ORIENTED_EDGE('',*,*,#521,.F.);
#145=ORIENTED_EDGE('',*,*,#522,.F.);
#146=ORIENTED_EDGE('',*,*,#523,.F.);
#147=ORIENTED_EDGE('',*,*,#524,.F.);
#148=ORIENTED_EDGE('',*,*,#450,.F.);
#149=ORIENTED_EDGE('',*,*,#469,.F.);
#150=ORIENTED_EDGE('',*,*,#525,.T.);
#151=ORIENTED_EDGE('',*,*,#488,.F.);
#152=ORIENTED_EDGE('',*,*,#526,.T.);
#153=ORIENTED_EDGE('',*,*,#527,.T.);
#154=ORIENTED_EDGE('',*,*,#528,.F.);
#155=ORIENTED_EDGE('',*,*,#529,.T.);
#156=ORIENTED_EDGE('',*,*,#530,.T.);
#157=ORIENTED_EDGE('',*,*,#454,.T.);
#158=ORIENTED_EDGE('',*,*,#531,.T.);
#159=ORIENTED_EDGE('',*,*,#532,.T.);
#160=ORIENTED_EDGE('',*,*,#533,.F.);
#161=ORIENTED_EDGE('',*,*,#492,.T.);
#162=ORIENTED_EDGE('',*,*,#534,.T.);
#163=ORIENTED_EDGE('',*,*,#535,.F.);
#164=ORIENTED_EDGE('',*,*,#536,.T.);
#165=ORIENTED_EDGE('',*,*,#537,.F.);
#166=ORIENTED_EDGE('',*,*,#538,.F.);
#167=ORIENTED_EDGE('',*,*,#539,.T.);
#168=ORIENTED_EDGE('',*,*,#540,.T.);
#169=ORIENTED_EDGE('',*,*,#541,.T.);
#170=ORIENTED_EDGE('',*,*,#529,.F.);
#171=ORIENTED_EDGE('',*,*,#542,.T.);
#172=ORIENTED_EDGE('',*,*,#543,.F.);
#173=ORIENTED_EDGE('',*,*,#471,.T.);
#174=ORIENTED_EDGE('',*,*,#544,.T.);
#175=ORIENTED_EDGE('',*,*,#540,.F.);
#176=ORIENTED_EDGE('',*,*,#545,.T.);
#177=ORIENTED_EDGE('',*,*,#502,.F.);
#178=ORIENTED_EDGE('',*,*,#546,.T.);
#179=ORIENTED_EDGE('',*,*,#535,.T.);
#180=ORIENTED_EDGE('',*,*,#547,.T.);
#181=ORIENTED_EDGE('',*,*,#521,.T.);
#182=ORIENTED_EDGE('',*,*,#548,.T.);
#183=ORIENTED_EDGE('',*,*,#504,.T.);
#184=ORIENTED_EDGE('',*,*,#549,.T.);
#185=ORIENTED_EDGE('',*,*,#538,.T.);
#186=ORIENTED_EDGE('',*,*,#550,.T.);
#187=ORIENTED_EDGE('',*,*,#551,.T.);
#188=ORIENTED_EDGE('',*,*,#552,.T.);
#189=ORIENTED_EDGE('',*,*,#544,.F.);
#190=ORIENTED_EDGE('',*,*,#470,.F.);
#191=ORIENTED_EDGE('',*,*,#530,.F.);
#192=ORIENTED_EDGE('',*,*,#541,.F.);
#193=ORIENTED_EDGE('',*,*,#547,.F.);
#194=ORIENTED_EDGE('',*,*,#534,.F.);
#195=ORIENTED_EDGE('',*,*,#491,.F.);
#196=ORIENTED_EDGE('',*,*,#472,.F.);
#197=ORIENTED_EDGE('',*,*,#545,.F.);
#198=ORIENTED_EDGE('',*,*,#539,.F.);
#199=ORIENTED_EDGE('',*,*,#549,.F.);
#200=ORIENTED_EDGE('',*,*,#503,.F.);
#201=ORIENTED_EDGE('',*,*,#546,.F.);
#202=ORIENTED_EDGE('',*,*,#501,.F.);
#203=ORIENTED_EDGE('',*,*,#455,.F.);
#204=ORIENTED_EDGE('',*,*,#536,.F.);
#205=ORIENTED_EDGE('',*,*,#553,.F.);
#206=ORIENTED_EDGE('',*,*,#452,.T.);
#207=ORIENTED_EDGE('',*,*,#554,.F.);
#208=ORIENTED_EDGE('',*,*,#555,.T.);
#209=ORIENTED_EDGE('',*,*,#556,.F.);
#210=ORIENTED_EDGE('',*,*,#494,.T.);
#211=ORIENTED_EDGE('',*,*,#557,.T.);
#212=ORIENTED_EDGE('',*,*,#558,.F.);
#213=ORIENTED_EDGE('',*,*,#551,.F.);
#214=ORIENTED_EDGE('',*,*,#559,.T.);
#215=ORIENTED_EDGE('',*,*,#560,.T.);
#216=ORIENTED_EDGE('',*,*,#561,.F.);
#217=ORIENTED_EDGE('',*,*,#527,.F.);
#218=ORIENTED_EDGE('',*,*,#562,.F.);
#219=ORIENTED_EDGE('',*,*,#563,.F.);
#220=ORIENTED_EDGE('',*,*,#564,.F.);
#221=ORIENTED_EDGE('',*,*,#487,.T.);
#222=ORIENTED_EDGE('',*,*,#565,.T.);
#223=ORIENTED_EDGE('',*,*,#562,.T.);
#224=ORIENTED_EDGE('',*,*,#526,.F.);
#225=ORIENTED_EDGE('',*,*,#556,.T.);
#226=ORIENTED_EDGE('',*,*,#566,.T.);
#227=ORIENTED_EDGE('',*,*,#485,.T.);
#228=ORIENTED_EDGE('',*,*,#495,.F.);
#229=ORIENTED_EDGE('',*,*,#564,.T.);
#230=ORIENTED_EDGE('',*,*,#567,.T.);
#231=ORIENTED_EDGE('',*,*,#522,.T.);
#232=ORIENTED_EDGE('',*,*,#552,.F.);
#233=ORIENTED_EDGE('',*,*,#524,.T.);
#234=ORIENTED_EDGE('',*,*,#568,.T.);
#235=ORIENTED_EDGE('',*,*,#554,.T.);
#236=ORIENTED_EDGE('',*,*,#451,.F.);
#237=ORIENTED_EDGE('',*,*,#569,.T.);
#238=ORIENTED_EDGE('',*,*,#570,.T.);
#239=ORIENTED_EDGE('',*,*,#571,.F.);
#240=ORIENTED_EDGE('',*,*,#572,.F.);
#241=ORIENTED_EDGE('',*,*,#573,.T.);
#242=ORIENTED_EDGE('',*,*,#574,.T.);
#243=ORIENTED_EDGE('',*,*,#575,.F.);
#244=ORIENTED_EDGE('',*,*,#576,.F.);
#245=ORIENTED_EDGE('',*,*,#577,.T.);
#246=ORIENTED_EDGE('',*,*,#578,.T.);
#247=ORIENTED_EDGE('',*,*,#579,.F.);
#248=ORIENTED_EDGE('',*,*,#580,.F.);
#249=ORIENTED_EDGE('',*,*,#581,.T.);
#250=ORIENTED_EDGE('',*,*,#582,.T.);
#251=ORIENTED_EDGE('',*,*,#583,.F.);
#252=ORIENTED_EDGE('',*,*,#584,.F.);
#253=ORIENTED_EDGE('',*,*,#486,.F.);
#254=ORIENTED_EDGE('',*,*,#566,.F.);
#255=ORIENTED_EDGE('',*,*,#555,.F.);
#256=ORIENTED_EDGE('',*,*,#568,.F.);
#257=ORIENTED_EDGE('',*,*,#523,.T.);
#258=ORIENTED_EDGE('',*,*,#567,.F.);
#259=ORIENTED_EDGE('',*,*,#563,.T.);
#260=ORIENTED_EDGE('',*,*,#565,.F.);
#261=ORIENTED_EDGE('',*,*,#453,.F.);
#262=ORIENTED_EDGE('',*,*,#553,.T.);
#263=ORIENTED_EDGE('',*,*,#585,.F.);
#264=ORIENTED_EDGE('',*,*,#531,.F.);
#265=ORIENTED_EDGE('',*,*,#533,.T.);
#266=ORIENTED_EDGE('',*,*,#586,.T.);
#267=ORIENTED_EDGE('',*,*,#557,.F.);
#268=ORIENTED_EDGE('',*,*,#493,.T.);
#269=ORIENTED_EDGE('',*,*,#585,.T.);
#270=ORIENTED_EDGE('',*,*,#558,.T.);
#271=ORIENTED_EDGE('',*,*,#586,.F.);
#272=ORIENTED_EDGE('',*,*,#532,.F.);
#273=ORIENTED_EDGE('',*,*,#543,.T.);
#274=ORIENTED_EDGE('',*,*,#587,.F.);
#275=ORIENTED_EDGE('',*,*,#560,.F.);
#276=ORIENTED_EDGE('',*,*,#588,.T.);
#277=ORIENTED_EDGE('',*,*,#537,.T.);
#278=ORIENTED_EDGE('',*,*,#588,.F.);
#279=ORIENTED_EDGE('',*,*,#559,.F.);
#280=ORIENTED_EDGE('',*,*,#550,.F.);
#281=ORIENTED_EDGE('',*,*,#528,.T.);
#282=ORIENTED_EDGE('',*,*,#561,.T.);
#283=ORIENTED_EDGE('',*,*,#587,.T.);
#284=ORIENTED_EDGE('',*,*,#542,.F.);
#285=ORIENTED_EDGE('',*,*,#589,.T.);
#286=ORIENTED_EDGE('',*,*,#515,.T.);
#287=ORIENTED_EDGE('',*,*,#447,.T.);
#288=ORIENTED_EDGE('',*,*,#509,.F.);
#289=ORIENTED_EDGE('',*,*,#590,.F.);
#290=ORIENTED_EDGE('',*,*,#591,.T.);
#291=ORIENTED_EDGE('',*,*,#499,.F.);
#292=ORIENTED_EDGE('',*,*,#517,.F.);
#293=ORIENTED_EDGE('',*,*,#508,.F.);
#294=ORIENTED_EDGE('',*,*,#592,.T.);
#295=ORIENTED_EDGE('',*,*,#590,.T.);
#296=ORIENTED_EDGE('',*,*,#516,.T.);
#297=ORIENTED_EDGE('',*,*,#589,.F.);
#298=ORIENTED_EDGE('',*,*,#593,.F.);
#299=ORIENTED_EDGE('',*,*,#594,.T.);
#300=ORIENTED_EDGE('',*,*,#518,.T.);
#301=ORIENTED_EDGE('',*,*,#497,.T.);
#302=ORIENTED_EDGE('',*,*,#505,.T.);
#303=ORIENTED_EDGE('',*,*,#548,.F.);
#304=ORIENTED_EDGE('',*,*,#520,.F.);
#305=ORIENTED_EDGE('',*,*,#595,.F.);
#306=ORIENTED_EDGE('',*,*,#506,.F.);
#307=ORIENTED_EDGE('',*,*,#595,.T.);
#308=ORIENTED_EDGE('',*,*,#519,.T.);
#309=ORIENTED_EDGE('',*,*,#594,.F.);
#310=ORIENTED_EDGE('',*,*,#596,.F.);
#311=ORIENTED_EDGE('',*,*,#496,.T.);
#312=ORIENTED_EDGE('',*,*,#591,.F.);
#313=ORIENTED_EDGE('',*,*,#597,.T.);
#314=ORIENTED_EDGE('',*,*,#593,.T.);
#315=ORIENTED_EDGE('',*,*,#507,.T.);
#316=ORIENTED_EDGE('',*,*,#596,.T.);
#317=ORIENTED_EDGE('',*,*,#597,.F.);
#318=ORIENTED_EDGE('',*,*,#592,.F.);
#319=ORIENTED_EDGE('',*,*,#474,.T.);
#320=ORIENTED_EDGE('',*,*,#490,.T.);
#321=ORIENTED_EDGE('',*,*,#483,.F.);
#322=ORIENTED_EDGE('',*,*,#598,.T.);
#323=ORIENTED_EDGE('',*,*,#458,.T.);
#324=ORIENTED_EDGE('',*,*,#599,.T.);
#325=ORIENTED_EDGE('',*,*,#465,.T.);
#326=ORIENTED_EDGE('',*,*,#598,.F.);
#327=ORIENTED_EDGE('',*,*,#482,.F.);
#328=ORIENTED_EDGE('',*,*,#600,.F.);
#329=ORIENTED_EDGE('',*,*,#479,.T.);
#330=ORIENTED_EDGE('',*,*,#525,.F.);
#331=ORIENTED_EDGE('',*,*,#468,.F.);
#332=ORIENTED_EDGE('',*,*,#480,.F.);
#333=ORIENTED_EDGE('',*,*,#600,.T.);
#334=ORIENTED_EDGE('',*,*,#467,.T.);
#335=ORIENTED_EDGE('',*,*,#601,.F.);
#336=ORIENTED_EDGE('',*,*,#461,.F.);
#337=ORIENTED_EDGE('',*,*,#599,.F.);
#338=ORIENTED_EDGE('',*,*,#602,.T.);
#339=ORIENTED_EDGE('',*,*,#601,.T.);
#340=ORIENTED_EDGE('',*,*,#466,.F.);
#341=ORIENTED_EDGE('',*,*,#462,.F.);
#342=ORIENTED_EDGE('',*,*,#602,.F.);
#343=ORIENTED_EDGE('',*,*,#457,.T.);
#344=ORIENTED_EDGE('',*,*,#489,.F.);
#345=ORIENTED_EDGE('',*,*,#445,.T.);
#346=ORIENTED_EDGE('',*,*,#514,.T.);
#347=ORIENTED_EDGE('',*,*,#449,.T.);
#348=ORIENTED_EDGE('',*,*,#500,.F.);
#349=ORIENTED_EDGE('',*,*,#582,.F.);
#350=ORIENTED_EDGE('',*,*,#603,.T.);
#351=ORIENTED_EDGE('',*,*,#604,.F.);
#352=ORIENTED_EDGE('',*,*,#605,.F.);
#353=ORIENTED_EDGE('',*,*,#606,.F.);
#354=ORIENTED_EDGE('',*,*,#583,.T.);
#355=ORIENTED_EDGE('',*,*,#605,.T.);
#356=ORIENTED_EDGE('',*,*,#607,.T.);
#357=ORIENTED_EDGE('',*,*,#608,.F.);
#358=ORIENTED_EDGE('',*,*,#584,.T.);
#359=ORIENTED_EDGE('',*,*,#606,.T.);
#360=ORIENTED_EDGE('',*,*,#609,.T.);
#361=ORIENTED_EDGE('',*,*,#581,.F.);
#362=ORIENTED_EDGE('',*,*,#608,.T.);
#363=ORIENTED_EDGE('',*,*,#610,.F.);
#364=ORIENTED_EDGE('',*,*,#603,.F.);
#365=ORIENTED_EDGE('',*,*,#604,.T.);
#366=ORIENTED_EDGE('',*,*,#610,.T.);
#367=ORIENTED_EDGE('',*,*,#609,.F.);
#368=ORIENTED_EDGE('',*,*,#607,.F.);
#369=ORIENTED_EDGE('',*,*,#578,.F.);
#370=ORIENTED_EDGE('',*,*,#611,.T.);
#371=ORIENTED_EDGE('',*,*,#612,.F.);
#372=ORIENTED_EDGE('',*,*,#613,.F.);
#373=ORIENTED_EDGE('',*,*,#614,.F.);
#374=ORIENTED_EDGE('',*,*,#579,.T.);
#375=ORIENTED_EDGE('',*,*,#613,.T.);
#376=ORIENTED_EDGE('',*,*,#615,.T.);
#377=ORIENTED_EDGE('',*,*,#616,.F.);
#378=ORIENTED_EDGE('',*,*,#580,.T.);
#379=ORIENTED_EDGE('',*,*,#614,.T.);
#380=ORIENTED_EDGE('',*,*,#617,.T.);
#381=ORIENTED_EDGE('',*,*,#577,.F.);
#382=ORIENTED_EDGE('',*,*,#616,.T.);
#383=ORIENTED_EDGE('',*,*,#618,.F.);
#384=ORIENTED_EDGE('',*,*,#611,.F.);
#385=ORIENTED_EDGE('',*,*,#612,.T.);
#386=ORIENTED_EDGE('',*,*,#618,.T.);
#387=ORIENTED_EDGE('',*,*,#617,.F.);
#388=ORIENTED_EDGE('',*,*,#615,.F.);
#389=ORIENTED_EDGE('',*,*,#574,.F.);
#390=ORIENTED_EDGE('',*,*,#619,.T.);
#391=ORIENTED_EDGE('',*,*,#620,.F.);
#392=ORIENTED_EDGE('',*,*,#621,.F.);
#393=ORIENTED_EDGE('',*,*,#622,.F.);
#394=ORIENTED_EDGE('',*,*,#575,.T.);
#395=ORIENTED_EDGE('',*,*,#621,.T.);
#396=ORIENTED_EDGE('',*,*,#623,.T.);
#397=ORIENTED_EDGE('',*,*,#624,.F.);
#398=ORIENTED_EDGE('',*,*,#576,.T.);
#399=ORIENTED_EDGE('',*,*,#622,.T.);
#400=ORIENTED_EDGE('',*,*,#625,.T.);
#401=ORIENTED_EDGE('',*,*,#573,.F.);
#402=ORIENTED_EDGE('',*,*,#624,.T.);
#403=ORIENTED_EDGE('',*,*,#626,.F.);
#404=ORIENTED_EDGE('',*,*,#619,.F.);
#405=ORIENTED_EDGE('',*,*,#620,.T.);
#406=ORIENTED_EDGE('',*,*,#626,.T.);
#407=ORIENTED_EDGE('',*,*,#625,.F.);
#408=ORIENTED_EDGE('',*,*,#623,.F.);
#409=ORIENTED_EDGE('',*,*,#570,.F.);
#410=ORIENTED_EDGE('',*,*,#627,.T.);
#411=ORIENTED_EDGE('',*,*,#628,.F.);
#412=ORIENTED_EDGE('',*,*,#629,.F.);
#413=ORIENTED_EDGE('',*,*,#630,.F.);
#414=ORIENTED_EDGE('',*,*,#571,.T.);
#415=ORIENTED_EDGE('',*,*,#629,.T.);
#416=ORIENTED_EDGE('',*,*,#631,.T.);
#417=ORIENTED_EDGE('',*,*,#632,.F.);
#418=ORIENTED_EDGE('',*,*,#572,.T.);
#419=ORIENTED_EDGE('',*,*,#630,.T.);
#420=ORIENTED_EDGE('',*,*,#633,.T.);
#421=ORIENTED_EDGE('',*,*,#569,.F.);
#422=ORIENTED_EDGE('',*,*,#632,.T.);
#423=ORIENTED_EDGE('',*,*,#634,.F.);
#424=ORIENTED_EDGE('',*,*,#627,.F.);
#425=ORIENTED_EDGE('',*,*,#628,.T.);
#426=ORIENTED_EDGE('',*,*,#634,.T.);
#427=ORIENTED_EDGE('',*,*,#633,.F.);
#428=ORIENTED_EDGE('',*,*,#631,.F.);
#429=ORIENTED_EDGE('',*,*,#635,.T.);
#430=ORIENTED_EDGE('',*,*,#512,.T.);
#431=ORIENTED_EDGE('',*,*,#636,.F.);
#432=ORIENTED_EDGE('',*,*,#510,.T.);
#433=ORIENTED_EDGE('',*,*,#511,.F.);
#434=ORIENTED_EDGE('',*,*,#636,.T.);
#435=ORIENTED_EDGE('',*,*,#635,.F.);
#436=ORIENTED_EDGE('',*,*,#513,.T.);
#437=ORIENTED_EDGE('',*,*,#478,.F.);
#438=ORIENTED_EDGE('',*,*,#637,.T.);
#439=ORIENTED_EDGE('',*,*,#476,.F.);
#440=ORIENTED_EDGE('',*,*,#638,.F.);
#441=ORIENTED_EDGE('',*,*,#638,.T.);
#442=ORIENTED_EDGE('',*,*,#475,.T.);
#443=ORIENTED_EDGE('',*,*,#477,.F.);
#444=ORIENTED_EDGE('',*,*,#637,.F.);
#445=EDGE_CURVE('',#639,#640,#767,.F.);
#446=EDGE_CURVE('',#639,#641,#768,.T.);
#447=EDGE_CURVE('',#642,#641,#769,.T.);
#448=EDGE_CURVE('',#642,#640,#770,.T.);
#449=EDGE_CURVE('',#643,#644,#771,.T.);
#450=EDGE_CURVE('',#643,#645,#772,.T.);
#451=EDGE_CURVE('',#645,#646,#27,.T.);
#452=EDGE_CURVE('',#647,#646,#773,.T.);
#453=EDGE_CURVE('',#647,#648,#774,.T.);
#454=EDGE_CURVE('',#649,#648,#775,.T.);
#455=EDGE_CURVE('',#649,#650,#28,.F.);
#456=EDGE_CURVE('',#650,#644,#776,.T.);
#457=EDGE_CURVE('',#651,#652,#777,.T.);
#458=EDGE_CURVE('',#653,#651,#778,.T.);
#459=EDGE_CURVE('',#653,#654,#779,.T.);
#460=EDGE_CURVE('',#652,#654,#780,.T.);
#461=EDGE_CURVE('',#655,#656,#781,.T.);
#462=EDGE_CURVE('',#656,#657,#782,.T.);
#463=EDGE_CURVE('',#657,#658,#783,.T.);
#464=EDGE_CURVE('',#655,#658,#784,.T.);
#465=EDGE_CURVE('',#659,#660,#29,.F.);
#466=EDGE_CURVE('',#659,#661,#785,.T.);
#467=EDGE_CURVE('',#662,#661,#30,.F.);
#468=EDGE_CURVE('',#662,#663,#786,.T.);
#469=EDGE_CURVE('',#663,#664,#787,.T.);
#470=EDGE_CURVE('',#664,#665,#788,.F.);
#471=EDGE_CURVE('',#666,#665,#789,.T.);
#472=EDGE_CURVE('',#666,#667,#790,.T.);
#473=EDGE_CURVE('',#667,#668,#791,.T.);
#474=EDGE_CURVE('',#660,#668,#792,.T.);
#475=EDGE_CURVE('',#669,#670,#793,.T.);
#476=EDGE_CURVE('',#669,#671,#794,.T.);
#477=EDGE_CURVE('',#671,#672,#795,.T.);
#478=EDGE_CURVE('',#672,#670,#796,.F.);
#479=EDGE_CURVE('',#673,#674,#797,.T.);
#480=EDGE_CURVE('',#673,#655,#31,.F.);
#481=EDGE_CURVE('',#658,#654,#798,.T.);
#482=EDGE_CURVE('',#653,#675,#32,.F.);
#483=EDGE_CURVE('',#675,#676,#799,.T.);
#484=EDGE_CURVE('',#676,#677,#800,.T.);
#485=EDGE_CURVE('',#678,#677,#801,.T.);
#486=EDGE_CURVE('',#678,#679,#802,.T.);
#487=EDGE_CURVE('',#680,#679,#803,.F.);
#488=EDGE_CURVE('',#680,#674,#804,.T.);
#489=EDGE_CURVE('',#657,#652,#805,.T.);
#490=EDGE_CURVE('',#668,#676,#806,.T.);
#491=EDGE_CURVE('',#667,#681,#33,.F.);
#492=EDGE_CURVE('',#682,#681,#807,.T.);
#493=EDGE_CURVE('',#683,#682,#808,.T.);
#494=EDGE_CURVE('',#684,#683,#809,.T.);
#495=EDGE_CURVE('',#684,#677,#34,.T.);
#496=EDGE_CURVE('',#685,#686,#810,.T.);
#497=EDGE_CURVE('',#687,#685,#811,.T.);
#498=EDGE_CURVE('',#687,#688,#812,.T.);
#499=EDGE_CURVE('',#688,#686,#813,.T.);
#500=EDGE_CURVE('',#639,#644,#35,.F.);
#501=EDGE_CURVE('',#650,#689,#814,.F.);
#502=EDGE_CURVE('',#689,#690,#815,.T.);
#503=EDGE_CURVE('',#690,#691,#816,.T.);
#504=EDGE_CURVE('',#692,#691,#817,.T.);
#505=EDGE_CURVE('',#693,#692,#818,.T.);
#506=EDGE_CURVE('',#693,#694,#36,.F.);
#507=EDGE_CURVE('',#695,#694,#819,.T.);
#508=EDGE_CURVE('',#695,#696,#37,.F.);
#509=EDGE_CURVE('',#696,#641,#820,.T.);
#510=EDGE_CURVE('',#697,#698,#821,.T.);
#511=EDGE_CURVE('',#697,#699,#822,.T.);
#512=EDGE_CURVE('',#700,#699,#823,.F.);
#513=EDGE_CURVE('',#698,#700,#824,.T.);
#514=EDGE_CURVE('',#640,#643,#38,.F.);
#515=EDGE_CURVE('',#701,#642,#825,.T.);
#516=EDGE_CURVE('',#702,#701,#39,.F.);
#517=EDGE_CURVE('',#702,#688,#826,.T.);
#518=EDGE_CURVE('',#703,#687,#827,.T.);
#519=EDGE_CURVE('',#704,#703,#40,.F.);
#520=EDGE_CURVE('',#704,#705,#828,.T.);
#521=EDGE_CURVE('',#706,#705,#829,.T.);
#522=EDGE_CURVE('',#707,#706,#830,.T.);
#523=EDGE_CURVE('',#708,#707,#831,.T.);
#524=EDGE_CURVE('',#645,#708,#832,.F.);
#525=EDGE_CURVE('',#663,#674,#833,.T.);
#526=EDGE_CURVE('',#680,#709,#41,.T.);
#527=EDGE_CURVE('',#709,#710,#834,.T.);
#528=EDGE_CURVE('',#711,#710,#835,.T.);
#529=EDGE_CURVE('',#711,#712,#836,.T.);
#530=EDGE_CURVE('',#712,#664,#42,.F.);
#531=EDGE_CURVE('',#648,#713,#837,.T.);
#532=EDGE_CURVE('',#713,#714,#838,.T.);
#533=EDGE_CURVE('',#682,#714,#839,.T.);
#534=EDGE_CURVE('',#681,#715,#840,.F.);
#535=EDGE_CURVE('',#716,#715,#841,.T.);
#536=EDGE_CURVE('',#716,#649,#842,.T.);
#537=EDGE_CURVE('',#717,#718,#843,.T.);
#538=EDGE_CURVE('',#719,#717,#844,.T.);
#539=EDGE_CURVE('',#719,#720,#845,.F.);
#540=EDGE_CURVE('',#720,#721,#846,.T.);
#541=EDGE_CURVE('',#721,#712,#847,.T.);
#542=EDGE_CURVE('',#711,#722,#848,.T.);
#543=EDGE_CURVE('',#718,#722,#849,.T.);
#544=EDGE_CURVE('',#665,#721,#43,.T.);
#545=EDGE_CURVE('',#720,#690,#44,.T.);
#546=EDGE_CURVE('',#689,#716,#45,.T.);
#547=EDGE_CURVE('',#715,#666,#46,.T.);
#548=EDGE_CURVE('',#705,#692,#850,.T.);
#549=EDGE_CURVE('',#691,#719,#47,.F.);
#550=EDGE_CURVE('',#717,#723,#851,.T.);
#551=EDGE_CURVE('',#723,#724,#852,.T.);
#552=EDGE_CURVE('',#724,#706,#48,.T.);
#553=EDGE_CURVE('',#647,#725,#853,.T.);
#554=EDGE_CURVE('',#726,#646,#854,.T.);
#555=EDGE_CURVE('',#726,#727,#855,.T.);
#556=EDGE_CURVE('',#684,#727,#856,.F.);
#557=EDGE_CURVE('',#683,#728,#857,.T.);
#558=EDGE_CURVE('',#725,#728,#858,.T.);
#559=EDGE_CURVE('',#723,#729,#859,.T.);
#560=EDGE_CURVE('',#729,#730,#860,.T.);
#561=EDGE_CURVE('',#710,#730,#861,.T.);
#562=EDGE_CURVE('',#731,#709,#862,.T.);
#563=EDGE_CURVE('',#732,#731,#863,.T.);
#564=EDGE_CURVE('',#724,#732,#864,.F.);
#565=EDGE_CURVE('',#679,#731,#49,.T.);
#566=EDGE_CURVE('',#727,#678,#50,.T.);
#567=EDGE_CURVE('',#732,#707,#51,.T.);
#568=EDGE_CURVE('',#708,#726,#52,.T.);
#569=EDGE_CURVE('',#733,#734,#865,.T.);
#570=EDGE_CURVE('',#734,#735,#866,.T.);
#571=EDGE_CURVE('',#736,#735,#867,.T.);
#572=EDGE_CURVE('',#733,#736,#868,.T.);
#573=EDGE_CURVE('',#737,#738,#869,.T.);
#574=EDGE_CURVE('',#738,#739,#870,.T.);
#575=EDGE_CURVE('',#740,#739,#871,.T.);
#576=EDGE_CURVE('',#737,#740,#872,.T.);
#577=EDGE_CURVE('',#741,#742,#873,.T.);
#578=EDGE_CURVE('',#742,#743,#874,.T.);
#579=EDGE_CURVE('',#744,#743,#875,.T.);
#580=EDGE_CURVE('',#741,#744,#876,.T.);
#581=EDGE_CURVE('',#745,#746,#877,.T.);
#582=EDGE_CURVE('',#746,#747,#878,.T.);
#583=EDGE_CURVE('',#748,#747,#879,.T.);
#584=EDGE_CURVE('',#745,#748,#880,.T.);
#585=EDGE_CURVE('',#713,#725,#881,.T.);
#586=EDGE_CURVE('',#714,#728,#882,.T.);
#587=EDGE_CURVE('',#730,#722,#883,.T.);
#588=EDGE_CURVE('',#729,#718,#884,.T.);
#589=EDGE_CURVE('',#696,#701,#885,.T.);
#590=EDGE_CURVE('',#749,#702,#886,.T.);
#591=EDGE_CURVE('',#749,#686,#887,.T.);
#592=EDGE_CURVE('',#695,#749,#888,.T.);
#593=EDGE_CURVE('',#750,#685,#889,.T.);
#594=EDGE_CURVE('',#750,#703,#890,.T.);
#595=EDGE_CURVE('',#693,#704,#891,.T.);
#596=EDGE_CURVE('',#694,#750,#892,.T.);
#597=EDGE_CURVE('',#749,#750,#893,.T.);
#598=EDGE_CURVE('',#675,#660,#894,.T.);
#599=EDGE_CURVE('',#651,#659,#895,.T.);
#600=EDGE_CURVE('',#673,#662,#896,.T.);
#601=EDGE_CURVE('',#656,#661,#897,.T.);
#602=EDGE_CURVE('',#651,#656,#898,.T.);
#603=EDGE_CURVE('',#746,#751,#899,.T.);
#604=EDGE_CURVE('',#752,#751,#900,.T.);
#605=EDGE_CURVE('',#747,#752,#901,.T.);
#606=EDGE_CURVE('',#748,#753,#902,.T.);
#607=EDGE_CURVE('',#752,#753,#903,.T.);
#608=EDGE_CURVE('',#745,#754,#904,.T.);
#609=EDGE_CURVE('',#753,#754,#905,.T.);
#610=EDGE_CURVE('',#751,#754,#906,.T.);
#611=EDGE_CURVE('',#742,#755,#907,.T.);
#612=EDGE_CURVE('',#756,#755,#908,.T.);
#613=EDGE_CURVE('',#743,#756,#909,.T.);
#614=EDGE_CURVE('',#744,#757,#910,.T.);
#615=EDGE_CURVE('',#756,#757,#911,.T.);
#616=EDGE_CURVE('',#741,#758,#912,.T.);
#617=EDGE_CURVE('',#757,#758,#913,.T.);
#618=EDGE_CURVE('',#755,#758,#914,.T.);
#619=EDGE_CURVE('',#738,#759,#915,.T.);
#620=EDGE_CURVE('',#760,#759,#916,.T.);
#621=EDGE_CURVE('',#739,#760,#917,.T.);
#622=EDGE_CURVE('',#740,#761,#918,.T.);
#623=EDGE_CURVE('',#760,#761,#919,.T.);
#624=EDGE_CURVE('',#737,#762,#920,.T.);
#625=EDGE_CURVE('',#761,#762,#921,.T.);
#626=EDGE_CURVE('',#759,#762,#922,.T.);
#627=EDGE_CURVE('',#734,#763,#923,.T.);
#628=EDGE_CURVE('',#764,#763,#924,.T.);
#629=EDGE_CURVE('',#735,#764,#925,.T.);
#630=EDGE_CURVE('',#736,#765,#926,.T.);
#631=EDGE_CURVE('',#764,#765,#927,.T.);
#632=EDGE_CURVE('',#733,#766,#928,.T.);
#633=EDGE_CURVE('',#765,#766,#929,.T.);
#634=EDGE_CURVE('',#763,#766,#930,.T.);
#635=EDGE_CURVE('',#698,#700,#53,.T.);
#636=EDGE_CURVE('',#697,#699,#54,.T.);
#637=EDGE_CURVE('',#672,#671,#55,.T.);
#638=EDGE_CURVE('',#670,#669,#56,.T.);
#639=VERTEX_POINT('',#1882);
#640=VERTEX_POINT('',#1883);
#641=VERTEX_POINT('',#1885);
#642=VERTEX_POINT('',#1887);
#643=VERTEX_POINT('',#1891);
#644=VERTEX_POINT('',#1892);
#645=VERTEX_POINT('',#1894);
#646=VERTEX_POINT('',#1896);
#647=VERTEX_POINT('',#1898);
#648=VERTEX_POINT('',#1900);
#649=VERTEX_POINT('',#1902);
#650=VERTEX_POINT('',#1904);
#651=VERTEX_POINT('',#1908);
#652=VERTEX_POINT('',#1909);
#653=VERTEX_POINT('',#1911);
#654=VERTEX_POINT('',#1913);
#655=VERTEX_POINT('',#1917);
#656=VERTEX_POINT('',#1918);
#657=VERTEX_POINT('',#1920);
#658=VERTEX_POINT('',#1922);
#659=VERTEX_POINT('',#1926);
#660=VERTEX_POINT('',#1927);
#661=VERTEX_POINT('',#1929);
#662=VERTEX_POINT('',#1931);
#663=VERTEX_POINT('',#1933);
#664=VERTEX_POINT('',#1935);
#665=VERTEX_POINT('',#1937);
#666=VERTEX_POINT('',#1939);
#667=VERTEX_POINT('',#1941);
#668=VERTEX_POINT('',#1943);
#669=VERTEX_POINT('',#1947);
#670=VERTEX_POINT('',#1948);
#671=VERTEX_POINT('',#1950);
#672=VERTEX_POINT('',#1952);
#673=VERTEX_POINT('',#1955);
#674=VERTEX_POINT('',#1956);
#675=VERTEX_POINT('',#1960);
#676=VERTEX_POINT('',#1962);
#677=VERTEX_POINT('',#1964);
#678=VERTEX_POINT('',#1966);
#679=VERTEX_POINT('',#1968);
#680=VERTEX_POINT('',#1970);
#681=VERTEX_POINT('',#1977);
#682=VERTEX_POINT('',#1979);
#683=VERTEX_POINT('',#1981);
#684=VERTEX_POINT('',#1983);
#685=VERTEX_POINT('',#1987);
#686=VERTEX_POINT('',#1988);
#687=VERTEX_POINT('',#1990);
#688=VERTEX_POINT('',#1992);
#689=VERTEX_POINT('',#1997);
#690=VERTEX_POINT('',#1999);
#691=VERTEX_POINT('',#2001);
#692=VERTEX_POINT('',#2003);
#693=VERTEX_POINT('',#2005);
#694=VERTEX_POINT('',#2007);
#695=VERTEX_POINT('',#2009);
#696=VERTEX_POINT('',#2011);
#697=VERTEX_POINT('',#2015);
#698=VERTEX_POINT('',#2016);
#699=VERTEX_POINT('',#2018);
#700=VERTEX_POINT('',#2020);
#701=VERTEX_POINT('',#2024);
#702=VERTEX_POINT('',#2026);
#703=VERTEX_POINT('',#2029);
#704=VERTEX_POINT('',#2031);
#705=VERTEX_POINT('',#2033);
#706=VERTEX_POINT('',#2035);
#707=VERTEX_POINT('',#2037);
#708=VERTEX_POINT('',#2039);
#709=VERTEX_POINT('',#2044);
#710=VERTEX_POINT('',#2046);
#711=VERTEX_POINT('',#2048);
#712=VERTEX_POINT('',#2050);
#713=VERTEX_POINT('',#2054);
#714=VERTEX_POINT('',#2056);
#715=VERTEX_POINT('',#2059);
#716=VERTEX_POINT('',#2061);
#717=VERTEX_POINT('',#2065);
#718=VERTEX_POINT('',#2066);
#719=VERTEX_POINT('',#2068);
#720=VERTEX_POINT('',#2070);
#721=VERTEX_POINT('',#2072);
#722=VERTEX_POINT('',#2075);
#723=VERTEX_POINT('',#2086);
#724=VERTEX_POINT('',#2088);
#725=VERTEX_POINT('',#2096);
#726=VERTEX_POINT('',#2098);
#727=VERTEX_POINT('',#2100);
#728=VERTEX_POINT('',#2103);
#729=VERTEX_POINT('',#2107);
#730=VERTEX_POINT('',#2109);
#731=VERTEX_POINT('',#2112);
#732=VERTEX_POINT('',#2114);
#733=VERTEX_POINT('',#2126);
#734=VERTEX_POINT('',#2127);
#735=VERTEX_POINT('',#2129);
#736=VERTEX_POINT('',#2131);
#737=VERTEX_POINT('',#2134);
#738=VERTEX_POINT('',#2135);
#739=VERTEX_POINT('',#2137);
#740=VERTEX_POINT('',#2139);
#741=VERTEX_POINT('',#2142);
#742=VERTEX_POINT('',#2143);
#743=VERTEX_POINT('',#2145);
#744=VERTEX_POINT('',#2147);
#745=VERTEX_POINT('',#2150);
#746=VERTEX_POINT('',#2151);
#747=VERTEX_POINT('',#2153);
#748=VERTEX_POINT('',#2155);
#749=VERTEX_POINT('',#2171);
#750=VERTEX_POINT('',#2177);
#751=VERTEX_POINT('',#2200);
#752=VERTEX_POINT('',#2202);
#753=VERTEX_POINT('',#2206);
#754=VERTEX_POINT('',#2210);
#755=VERTEX_POINT('',#2217);
#756=VERTEX_POINT('',#2219);
#757=VERTEX_POINT('',#2223);
#758=VERTEX_POINT('',#2227);
#759=VERTEX_POINT('',#2234);
#760=VERTEX_POINT('',#2236);
#761=VERTEX_POINT('',#2240);
#762=VERTEX_POINT('',#2244);
#763=VERTEX_POINT('',#2251);
#764=VERTEX_POINT('',#2253);
#765=VERTEX_POINT('',#2257);
#766=VERTEX_POINT('',#2261);
#767=LINE('',#1881,#931);
#768=LINE('',#1884,#932);
#769=LINE('',#1886,#933);
#770=LINE('',#1888,#934);
#771=LINE('',#1890,#935);
#772=LINE('',#1893,#936);
#773=LINE('',#1897,#937);
#774=LINE('',#1899,#938);
#775=LINE('',#1901,#939);
#776=LINE('',#1905,#940);
#777=LINE('',#1907,#941);
#778=LINE('',#1910,#942);
#779=LINE('',#1912,#943);
#780=LINE('',#1914,#944);
#781=LINE('',#1916,#945);
#782=LINE('',#1919,#946);
#783=LINE('',#1921,#947);
#784=LINE('',#1923,#948);
#785=LINE('',#1928,#949);
#786=LINE('',#1932,#950);
#787=LINE('',#1934,#951);
#788=LINE('',#1936,#952);
#789=LINE('',#1938,#953);
#790=LINE('',#1940,#954);
#791=LINE('',#1942,#955);
#792=LINE('',#1944,#956);
#793=LINE('',#1946,#957);
#794=LINE('',#1949,#958);
#795=LINE('',#1951,#959);
#796=LINE('',#1953,#960);
#797=LINE('',#1954,#961);
#798=LINE('',#1958,#962);
#799=LINE('',#1961,#963);
#800=LINE('',#1963,#964);
#801=LINE('',#1965,#965);
#802=LINE('',#1967,#966);
#803=LINE('',#1969,#967);
#804=LINE('',#1971,#968);
#805=LINE('',#1973,#969);
#806=LINE('',#1975,#970);
#807=LINE('',#1978,#971);
#808=LINE('',#1980,#972);
#809=LINE('',#1982,#973);
#810=LINE('',#1986,#974);
#811=LINE('',#1989,#975);
#812=LINE('',#1991,#976);
#813=LINE('',#1993,#977);
#814=LINE('',#1996,#978);
#815=LINE('',#1998,#979);
#816=LINE('',#2000,#980);
#817=LINE('',#2002,#981);
#818=LINE('',#2004,#982);
#819=LINE('',#2008,#983);
#820=LINE('',#2012,#984);
#821=LINE('',#2014,#985);
#822=LINE('',#2017,#986);
#823=LINE('',#2019,#987);
#824=LINE('',#2021,#988);
#825=LINE('',#2023,#989);
#826=LINE('',#2027,#990);
#827=LINE('',#2028,#991);
#828=LINE('',#2032,#992);
#829=LINE('',#2034,#993);
#830=LINE('',#2036,#994);
#831=LINE('',#2038,#995);
#832=LINE('',#2040,#996);
#833=LINE('',#2042,#997);
#834=LINE('',#2045,#998);
#835=LINE('',#2047,#999);
#836=LINE('',#2049,#1000);
#837=LINE('',#2053,#1001);
#838=LINE('',#2055,#1002);
#839=LINE('',#2057,#1003);
#840=LINE('',#2058,#1004);
#841=LINE('',#2060,#1005);
#842=LINE('',#2062,#1006);
#843=LINE('',#2064,#1007);
#844=LINE('',#2067,#1008);
#845=LINE('',#2069,#1009);
#846=LINE('',#2071,#1010);
#847=LINE('',#2073,#1011);
#848=LINE('',#2074,#1012);
#849=LINE('',#2076,#1013);
#850=LINE('',#2083,#1014);
#851=LINE('',#2085,#1015);
#852=LINE('',#2087,#1016);
#853=LINE('',#2095,#1017);
#854=LINE('',#2097,#1018);
#855=LINE('',#2099,#1019);
#856=LINE('',#2101,#1020);
#857=LINE('',#2102,#1021);
#858=LINE('',#2104,#1022);
#859=LINE('',#2106,#1023);
#860=LINE('',#2108,#1024);
#861=LINE('',#2110,#1025);
#862=LINE('',#2111,#1026);
#863=LINE('',#2113,#1027);
#864=LINE('',#2115,#1028);
#865=LINE('',#2125,#1029);
#866=LINE('',#2128,#1030);
#867=LINE('',#2130,#1031);
#868=LINE('',#2132,#1032);
#869=LINE('',#2133,#1033);
#870=LINE('',#2136,#1034);
#871=LINE('',#2138,#1035);
#872=LINE('',#2140,#1036);
#873=LINE('',#2141,#1037);
#874=LINE('',#2144,#1038);
#875=LINE('',#2146,#1039);
#876=LINE('',#2148,#1040);
#877=LINE('',#2149,#1041);
#878=LINE('',#2152,#1042);
#879=LINE('',#2154,#1043);
#880=LINE('',#2156,#1044);
#881=LINE('',#2158,#1045);
#882=LINE('',#2160,#1046);
#883=LINE('',#2163,#1047);
#884=LINE('',#2164,#1048);
#885=LINE('',#2168,#1049);
#886=LINE('',#2170,#1050);
#887=LINE('',#2172,#1051);
#888=LINE('',#2174,#1052);
#889=LINE('',#2176,#1053);
#890=LINE('',#2178,#1054);
#891=LINE('',#2180,#1055);
#892=LINE('',#2182,#1056);
#893=LINE('',#2184,#1057);
#894=LINE('',#2187,#1058);
#895=LINE('',#2189,#1059);
#896=LINE('',#2191,#1060);
#897=LINE('',#2193,#1061);
#898=LINE('',#2195,#1062);
#899=LINE('',#2199,#1063);
#900=LINE('',#2201,#1064);
#901=LINE('',#2203,#1065);
#902=LINE('',#2205,#1066);
#903=LINE('',#2207,#1067);
#904=LINE('',#2209,#1068);
#905=LINE('',#2211,#1069);
#906=LINE('',#2213,#1070);
#907=LINE('',#2216,#1071);
#908=LINE('',#2218,#1072);
#909=LINE('',#2220,#1073);
#910=LINE('',#2222,#1074);
#911=LINE('',#2224,#1075);
#912=LINE('',#2226,#1076);
#913=LINE('',#2228,#1077);
#914=LINE('',#2230,#1078);
#915=LINE('',#2233,#1079);
#916=LINE('',#2235,#1080);
#917=LINE('',#2237,#1081);
#918=LINE('',#2239,#1082);
#919=LINE('',#2241,#1083);
#920=LINE('',#2243,#1084);
#921=LINE('',#2245,#1085);
#922=LINE('',#2247,#1086);
#923=LINE('',#2250,#1087);
#924=LINE('',#2252,#1088);
#925=LINE('',#2254,#1089);
#926=LINE('',#2256,#1090);
#927=LINE('',#2258,#1091);
#928=LINE('',#2260,#1092);
#929=LINE('',#2262,#1093);
#930=LINE('',#2264,#1094);
#931=VECTOR('',#1509,1.);
#932=VECTOR('',#1510,1.);
#933=VECTOR('',#1511,1.);
#934=VECTOR('',#1512,1.);
#935=VECTOR('',#1515,1.);
#936=VECTOR('',#1516,1.);
#937=VECTOR('',#1519,1.);
#938=VECTOR('',#1520,1.);
#939=VECTOR('',#1521,1.);
#940=VECTOR('',#1524,1.);
#941=VECTOR('',#1527,1.);
#942=VECTOR('',#1528,1.);
#943=VECTOR('',#1529,1.);
#944=VECTOR('',#1530,1.);
#945=VECTOR('',#1533,1.);
#946=VECTOR('',#1534,1.);
#947=VECTOR('',#1535,1.);
#948=VECTOR('',#1536,1.);
#949=VECTOR('',#1541,1.);
#950=VECTOR('',#1544,1.);
#951=VECTOR('',#1545,1.);
#952=VECTOR('',#1546,1.);
#953=VECTOR('',#1547,1.);
#954=VECTOR('',#1548,1.);
#955=VECTOR('',#1549,1.);
#956=VECTOR('',#1550,1.);
#957=VECTOR('',#1553,1.);
#958=VECTOR('',#1554,1.);
#959=VECTOR('',#1555,1.);
#960=VECTOR('',#1556,1.);
#961=VECTOR('',#1557,1.);
#962=VECTOR('',#1560,1.);
#963=VECTOR('',#1563,1.);
#964=VECTOR('',#1564,1.);
#965=VECTOR('',#1565,1.);
#966=VECTOR('',#1566,1.);
#967=VECTOR('',#1567,1.);
#968=VECTOR('',#1568,1.);
#969=VECTOR('',#1571,1.);
#970=VECTOR('',#1574,1.);
#971=VECTOR('',#1577,1.);
#972=VECTOR('',#1578,1.);
#973=VECTOR('',#1579,1.);
#974=VECTOR('',#1584,1.);
#975=VECTOR('',#1585,1.);
#976=VECTOR('',#1586,1.);
#977=VECTOR('',#1587,1.);
#978=VECTOR('',#1592,1.);
#979=VECTOR('',#1593,1.);
#980=VECTOR('',#1594,1.);
#981=VECTOR('',#1595,1.);
#982=VECTOR('',#1596,1.);
#983=VECTOR('',#1599,1.);
#984=VECTOR('',#1602,1.);
#985=VECTOR('',#1605,1.);
#986=VECTOR('',#1606,1.);
#987=VECTOR('',#1607,1.);
#988=VECTOR('',#1608,1.);
#989=VECTOR('',#1611,1.);
#990=VECTOR('',#1614,1.);
#991=VECTOR('',#1615,1.);
#992=VECTOR('',#1618,1.);
#993=VECTOR('',#1619,1.);
#994=VECTOR('',#1620,1.);
#995=VECTOR('',#1621,1.);
#996=VECTOR('',#1622,1.);
#997=VECTOR('',#1625,1.);
#998=VECTOR('',#1628,1.);
#999=VECTOR('',#1629,1.);
#1000=VECTOR('',#1630,1.);
#1001=VECTOR('',#1635,1.);
#1002=VECTOR('',#1636,1.);
#1003=VECTOR('',#1637,1.);
#1004=VECTOR('',#1638,1.);
#1005=VECTOR('',#1639,1.);
#1006=VECTOR('',#1640,1.);
#1007=VECTOR('',#1643,1.);
#1008=VECTOR('',#1644,1.);
#1009=VECTOR('',#1645,1.);
#1010=VECTOR('',#1646,1.);
#1011=VECTOR('',#1647,1.);
#1012=VECTOR('',#1648,1.);
#1013=VECTOR('',#1649,1.);
#1014=VECTOR('',#1662,1.);
#1015=VECTOR('',#1665,1.);
#1016=VECTOR('',#1666,1.);
#1017=VECTOR('',#1679,1.);
#1018=VECTOR('',#1680,1.);
#1019=VECTOR('',#1681,1.);
#1020=VECTOR('',#1682,1.);
#1021=VECTOR('',#1683,1.);
#1022=VECTOR('',#1684,1.);
#1023=VECTOR('',#1687,1.);
#1024=VECTOR('',#1688,1.);
#1025=VECTOR('',#1689,1.);
#1026=VECTOR('',#1690,1.);
#1027=VECTOR('',#1691,1.);
#1028=VECTOR('',#1692,1.);
#1029=VECTOR('',#1711,1.);
#1030=VECTOR('',#1712,1.);
#1031=VECTOR('',#1713,1.);
#1032=VECTOR('',#1714,1.);
#1033=VECTOR('',#1715,1.);
#1034=VECTOR('',#1716,1.);
#1035=VECTOR('',#1717,1.);
#1036=VECTOR('',#1718,1.);
#1037=VECTOR('',#1719,1.);
#1038=VECTOR('',#1720,1.);
#1039=VECTOR('',#1721,1.);
#1040=VECTOR('',#1722,1.);
#1041=VECTOR('',#1723,1.);
#1042=VECTOR('',#1724,1.);
#1043=VECTOR('',#1725,1.);
#1044=VECTOR('',#1726,1.);
#1045=VECTOR('',#1729,1.);
#1046=VECTOR('',#1732,1.);
#1047=VECTOR('',#1737,1.);
#1048=VECTOR('',#1738,1.);
#1049=VECTOR('',#1745,1.);
#1050=VECTOR('',#1748,1.);
#1051=VECTOR('',#1749,1.);
#1052=VECTOR('',#1752,1.);
#1053=VECTOR('',#1755,1.);
#1054=VECTOR('',#1756,1.);
#1055=VECTOR('',#1759,1.);
#1056=VECTOR('',#1762,1.);
#1057=VECTOR('',#1765,1.);
#1058=VECTOR('',#1770,1.);
#1059=VECTOR('',#1773,1.);
#1060=VECTOR('',#1776,1.);
#1061=VECTOR('',#1779,1.);
#1062=VECTOR('',#1782,1.);
#1063=VECTOR('',#1789,1.);
#1064=VECTOR('',#1790,1.);
#1065=VECTOR('',#1791,1.);
#1066=VECTOR('',#1794,1.);
#1067=VECTOR('',#1795,1.);
#1068=VECTOR('',#1798,1.);
#1069=VECTOR('',#1799,1.);
#1070=VECTOR('',#1802,1.);
#1071=VECTOR('',#1807,1.);
#1072=VECTOR('',#1808,1.);
#1073=VECTOR('',#1809,1.);
#1074=VECTOR('',#1812,1.);
#1075=VECTOR('',#1813,1.);
#1076=VECTOR('',#1816,1.);
#1077=VECTOR('',#1817,1.);
#1078=VECTOR('',#1820,1.);
#1079=VECTOR('',#1825,1.);
#1080=VECTOR('',#1826,1.);
#1081=VECTOR('',#1827,1.);
#1082=VECTOR('',#1830,1.);
#1083=VECTOR('',#1831,1.);
#1084=VECTOR('',#1834,1.);
#1085=VECTOR('',#1835,1.);
#1086=VECTOR('',#1838,1.);
#1087=VECTOR('',#1843,1.);
#1088=VECTOR('',#1844,1.);
#1089=VECTOR('',#1845,1.);
#1090=VECTOR('',#1848,1.);
#1091=VECTOR('',#1849,1.);
#1092=VECTOR('',#1852,1.);
#1093=VECTOR('',#1853,1.);
#1094=VECTOR('',#1856,1.);
#1095=EDGE_LOOP('',(#57,#58,#59,#60));
#1096=EDGE_LOOP('',(#61,#62,#63,#64,#65,#66,#67,#68));
#1097=EDGE_LOOP('',(#69,#70,#71,#72));
#1098=EDGE_LOOP('',(#73,#74,#75,#76));
#1099=EDGE_LOOP('',(#77,#78,#79,#80,#81,#82,#83,#84,#85,#86));
#1100=EDGE_LOOP('',(#87,#88,#89,#90));
#1101=EDGE_LOOP('',(#91,#92,#93,#94,#95,#96,#97,#98,#99,#100,#101,#102));
#1102=EDGE_LOOP('',(#103,#104,#105,#106));
#1103=EDGE_LOOP('',(#107,#108,#109,#110,#111,#112,#113,#114));
#1104=EDGE_LOOP('',(#115,#116,#117,#118));
#1105=EDGE_LOOP('',(#119,#120,#121,#122,#123,#124,#125,#126,#127,#128,#129,
#130));
#1106=EDGE_LOOP('',(#131,#132,#133,#134));
#1107=EDGE_LOOP('',(#135,#136,#137,#138,#139,#140,#141,#142,#143,#144,#145,
#146,#147,#148));
#1108=EDGE_LOOP('',(#149,#150,#151,#152,#153,#154,#155,#156));
#1109=EDGE_LOOP('',(#157,#158,#159,#160,#161,#162,#163,#164));
#1110=EDGE_LOOP('',(#165,#166,#167,#168,#169,#170,#171,#172));
#1111=EDGE_LOOP('',(#173,#174,#175,#176,#177,#178,#179,#180));
#1112=EDGE_LOOP('',(#181,#182,#183,#184,#185,#186,#187,#188));
#1113=EDGE_LOOP('',(#189,#190,#191,#192));
#1114=EDGE_LOOP('',(#193,#194,#195,#196));
#1115=EDGE_LOOP('',(#197,#198,#199,#200));
#1116=EDGE_LOOP('',(#201,#202,#203,#204));
#1117=EDGE_LOOP('',(#205,#206,#207,#208,#209,#210,#211,#212));
#1118=EDGE_LOOP('',(#213,#214,#215,#216,#217,#218,#219,#220));
#1119=EDGE_LOOP('',(#221,#222,#223,#224));
#1120=EDGE_LOOP('',(#225,#226,#227,#228));
#1121=EDGE_LOOP('',(#229,#230,#231,#232));
#1122=EDGE_LOOP('',(#233,#234,#235,#236));
#1123=EDGE_LOOP('',(#237,#238,#239,#240));
#1124=EDGE_LOOP('',(#241,#242,#243,#244));
#1125=EDGE_LOOP('',(#245,#246,#247,#248));
#1126=EDGE_LOOP('',(#249,#250,#251,#252));
#1127=EDGE_LOOP('',(#253,#254,#255,#256,#257,#258,#259,#260));
#1128=EDGE_LOOP('',(#261,#262,#263,#264));
#1129=EDGE_LOOP('',(#265,#266,#267,#268));
#1130=EDGE_LOOP('',(#269,#270,#271,#272));
#1131=EDGE_LOOP('',(#273,#274,#275,#276));
#1132=EDGE_LOOP('',(#277,#278,#279,#280));
#1133=EDGE_LOOP('',(#281,#282,#283,#284));
#1134=EDGE_LOOP('',(#285,#286,#287,#288));
#1135=EDGE_LOOP('',(#289,#290,#291,#292));
#1136=EDGE_LOOP('',(#293,#294,#295,#296,#297));
#1137=EDGE_LOOP('',(#298,#299,#300,#301));
#1138=EDGE_LOOP('',(#302,#303,#304,#305));
#1139=EDGE_LOOP('',(#306,#307,#308,#309,#310));
#1140=EDGE_LOOP('',(#311,#312,#313,#314));
#1141=EDGE_LOOP('',(#315,#316,#317,#318));
#1142=EDGE_LOOP('',(#319,#320,#321,#322));
#1143=EDGE_LOOP('',(#323,#324,#325,#326,#327));
#1144=EDGE_LOOP('',(#328,#329,#330,#331));
#1145=EDGE_LOOP('',(#332,#333,#334,#335,#336));
#1146=EDGE_LOOP('',(#337,#338,#339,#340));
#1147=EDGE_LOOP('',(#341,#342,#343,#344));
#1148=EDGE_LOOP('',(#345,#346,#347,#348));
#1149=EDGE_LOOP('',(#349,#350,#351,#352));
#1150=EDGE_LOOP('',(#353,#354,#355,#356));
#1151=EDGE_LOOP('',(#357,#358,#359,#360));
#1152=EDGE_LOOP('',(#361,#362,#363,#364));
#1153=EDGE_LOOP('',(#365,#366,#367,#368));
#1154=EDGE_LOOP('',(#369,#370,#371,#372));
#1155=EDGE_LOOP('',(#373,#374,#375,#376));
#1156=EDGE_LOOP('',(#377,#378,#379,#380));
#1157=EDGE_LOOP('',(#381,#382,#383,#384));
#1158=EDGE_LOOP('',(#385,#386,#387,#388));
#1159=EDGE_LOOP('',(#389,#390,#391,#392));
#1160=EDGE_LOOP('',(#393,#394,#395,#396));
#1161=EDGE_LOOP('',(#397,#398,#399,#400));
#1162=EDGE_LOOP('',(#401,#402,#403,#404));
#1163=EDGE_LOOP('',(#405,#406,#407,#408));
#1164=EDGE_LOOP('',(#409,#410,#411,#412));
#1165=EDGE_LOOP('',(#413,#414,#415,#416));
#1166=EDGE_LOOP('',(#417,#418,#419,#420));
#1167=EDGE_LOOP('',(#421,#422,#423,#424));
#1168=EDGE_LOOP('',(#425,#426,#427,#428));
#1169=EDGE_LOOP('',(#429,#430,#431,#432));
#1170=EDGE_LOOP('',(#433,#434));
#1171=EDGE_LOOP('',(#435,#436));
#1172=EDGE_LOOP('',(#437,#438,#439,#440));
#1173=EDGE_LOOP('',(#441,#442));
#1174=EDGE_LOOP('',(#443,#444));
#1175=FACE_BOUND('',#1095,.T.);
#1176=FACE_BOUND('',#1096,.T.);
#1177=FACE_BOUND('',#1097,.T.);
#1178=FACE_BOUND('',#1098,.T.);
#1179=FACE_BOUND('',#1099,.T.);
#1180=FACE_BOUND('',#1100,.T.);
#1181=FACE_BOUND('',#1101,.T.);
#1182=FACE_BOUND('',#1102,.T.);
#1183=FACE_BOUND('',#1103,.T.);
#1184=FACE_BOUND('',#1104,.T.);
#1185=FACE_BOUND('',#1105,.T.);
#1186=FACE_BOUND('',#1106,.T.);
#1187=FACE_BOUND('',#1107,.T.);
#1188=FACE_BOUND('',#1108,.T.);
#1189=FACE_BOUND('',#1109,.T.);
#1190=FACE_BOUND('',#1110,.T.);
#1191=FACE_BOUND('',#1111,.T.);
#1192=FACE_BOUND('',#1112,.T.);
#1193=FACE_BOUND('',#1113,.T.);
#1194=FACE_BOUND('',#1114,.T.);
#1195=FACE_BOUND('',#1115,.T.);
#1196=FACE_BOUND('',#1116,.T.);
#1197=FACE_BOUND('',#1117,.T.);
#1198=FACE_BOUND('',#1118,.T.);
#1199=FACE_BOUND('',#1119,.T.);
#1200=FACE_BOUND('',#1120,.T.);
#1201=FACE_BOUND('',#1121,.T.);
#1202=FACE_BOUND('',#1122,.T.);
#1203=FACE_BOUND('',#1123,.T.);
#1204=FACE_BOUND('',#1124,.T.);
#1205=FACE_BOUND('',#1125,.T.);
#1206=FACE_BOUND('',#1126,.T.);
#1207=FACE_BOUND('',#1127,.T.);
#1208=FACE_BOUND('',#1128,.T.);
#1209=FACE_BOUND('',#1129,.T.);
#1210=FACE_BOUND('',#1130,.T.);
#1211=FACE_BOUND('',#1131,.T.);
#1212=FACE_BOUND('',#1132,.T.);
#1213=FACE_BOUND('',#1133,.T.);
#1214=FACE_BOUND('',#1134,.T.);
#1215=FACE_BOUND('',#1135,.T.);
#1216=FACE_BOUND('',#1136,.T.);
#1217=FACE_BOUND('',#1137,.T.);
#1218=FACE_BOUND('',#1138,.T.);
#1219=FACE_BOUND('',#1139,.T.);
#1220=FACE_BOUND('',#1140,.T.);
#1221=FACE_BOUND('',#1141,.T.);
#1222=FACE_BOUND('',#1142,.T.);
#1223=FACE_BOUND('',#1143,.T.);
#1224=FACE_BOUND('',#1144,.T.);
#1225=FACE_BOUND('',#1145,.T.);
#1226=FACE_BOUND('',#1146,.T.);
#1227=FACE_BOUND('',#1147,.T.);
#1228=FACE_BOUND('',#1148,.T.);
#1229=FACE_BOUND('',#1149,.T.);
#1230=FACE_BOUND('',#1150,.T.);
#1231=FACE_BOUND('',#1151,.T.);
#1232=FACE_BOUND('',#1152,.T.);
#1233=FACE_BOUND('',#1153,.T.);
#1234=FACE_BOUND('',#1154,.T.);
#1235=FACE_BOUND('',#1155,.T.);
#1236=FACE_BOUND('',#1156,.T.);
#1237=FACE_BOUND('',#1157,.T.);
#1238=FACE_BOUND('',#1158,.T.);
#1239=FACE_BOUND('',#1159,.T.);
#1240=FACE_BOUND('',#1160,.T.);
#1241=FACE_BOUND('',#1161,.T.);
#1242=FACE_BOUND('',#1162,.T.);
#1243=FACE_BOUND('',#1163,.T.);
#1244=FACE_BOUND('',#1164,.T.);
#1245=FACE_BOUND('',#1165,.T.);
#1246=FACE_BOUND('',#1166,.T.);
#1247=FACE_BOUND('',#1167,.T.);
#1248=FACE_BOUND('',#1168,.T.);
#1249=FACE_BOUND('',#1169,.T.);
#1250=FACE_BOUND('',#1170,.T.);
#1251=FACE_BOUND('',#1171,.T.);
#1252=FACE_BOUND('',#1172,.T.);
#1253=FACE_BOUND('',#1173,.T.);
#1254=FACE_BOUND('',#1174,.T.);
#1255=PLANE('',#1401);
#1256=PLANE('',#1402);
#1257=PLANE('',#1405);
#1258=PLANE('',#1406);
#1259=PLANE('',#1407);
#1260=PLANE('',#1410);
#1261=PLANE('',#1413);
#1262=PLANE('',#1414);
#1263=PLANE('',#1417);
#1264=PLANE('',#1418);
#1265=PLANE('',#1422);
#1266=PLANE('',#1426);
#1267=PLANE('',#1429);
#1268=PLANE('',#1430);
#1269=PLANE('',#1431);
#1270=PLANE('',#1436);
#1271=PLANE('',#1443);
#1272=PLANE('',#1444);
#1273=PLANE('',#1453);
#1274=PLANE('',#1454);
#1275=PLANE('',#1455);
#1276=PLANE('',#1456);
#1277=PLANE('',#1457);
#1278=PLANE('',#1458);
#1279=PLANE('',#1459);
#1280=PLANE('',#1460);
#1281=PLANE('',#1461);
#1282=PLANE('',#1463);
#1283=PLANE('',#1464);
#1284=PLANE('',#1466);
#1285=PLANE('',#1467);
#1286=PLANE('',#1468);
#1287=PLANE('',#1470);
#1288=PLANE('',#1472);
#1289=PLANE('',#1473);
#1290=PLANE('',#1475);
#1291=PLANE('',#1476);
#1292=PLANE('',#1477);
#1293=PLANE('',#1478);
#1294=PLANE('',#1479);
#1295=PLANE('',#1480);
#1296=PLANE('',#1481);
#1297=PLANE('',#1482);
#1298=PLANE('',#1483);
#1299=PLANE('',#1484);
#1300=PLANE('',#1485);
#1301=PLANE('',#1486);
#1302=PLANE('',#1487);
#1303=PLANE('',#1488);
#1304=PLANE('',#1489);
#1305=PLANE('',#1490);
#1306=PLANE('',#1491);
#1307=PLANE('',#1492);
#1308=PLANE('',#1493);
#1309=PLANE('',#1494);
#1310=PLANE('',#1498);
#1311=PLANE('',#1499);
#1312=PLANE('',#1503);
#1313=PLANE('',#1504);
#1314=ADVANCED_FACE('',(#1175),#1255,.F.);
#1315=ADVANCED_FACE('',(#1176),#1256,.F.);
#1316=ADVANCED_FACE('',(#1177),#1257,.F.);
#1317=ADVANCED_FACE('',(#1178),#1258,.T.);
#1318=ADVANCED_FACE('',(#1179),#1259,.F.);
#1319=ADVANCED_FACE('',(#1180,#1181),#1260,.T.);
#1320=ADVANCED_FACE('',(#1182),#1261,.F.);
#1321=ADVANCED_FACE('',(#1183),#1262,.F.);
#1322=ADVANCED_FACE('',(#1184),#1263,.F.);
#1323=ADVANCED_FACE('',(#1185),#1264,.T.);
#1324=ADVANCED_FACE('',(#1186,#1187),#1265,.F.);
#1325=ADVANCED_FACE('',(#1188),#1266,.F.);
#1326=ADVANCED_FACE('',(#1189),#1267,.F.);
#1327=ADVANCED_FACE('',(#1190),#1268,.T.);
#1328=ADVANCED_FACE('',(#1191),#1269,.T.);
#1329=ADVANCED_FACE('',(#1192),#1270,.F.);
#1330=ADVANCED_FACE('',(#1193),#12,.T.);
#1331=ADVANCED_FACE('',(#1194),#13,.T.);
#1332=ADVANCED_FACE('',(#1195),#14,.T.);
#1333=ADVANCED_FACE('',(#1196),#15,.T.);
#1334=ADVANCED_FACE('',(#1197),#1271,.T.);
#1335=ADVANCED_FACE('',(#1198),#1272,.F.);
#1336=ADVANCED_FACE('',(#1199),#16,.F.);
#1337=ADVANCED_FACE('',(#1200),#17,.F.);
#1338=ADVANCED_FACE('',(#1201),#18,.F.);
#1339=ADVANCED_FACE('',(#1202),#19,.F.);
#1340=ADVANCED_FACE('',(#1203,#1204,#1205,#1206,#1207),#1273,.F.);
#1341=ADVANCED_FACE('',(#1208),#1274,.F.);
#1342=ADVANCED_FACE('',(#1209),#1275,.T.);
#1343=ADVANCED_FACE('',(#1210),#1276,.F.);
#1344=ADVANCED_FACE('',(#1211),#1277,.F.);
#1345=ADVANCED_FACE('',(#1212),#1278,.F.);
#1346=ADVANCED_FACE('',(#1213),#1279,.T.);
#1347=ADVANCED_FACE('',(#1214),#1280,.T.);
#1348=ADVANCED_FACE('',(#1215),#1281,.F.);
#1349=ADVANCED_FACE('',(#1216),#20,.F.);
#1350=ADVANCED_FACE('',(#1217),#1282,.T.);
#1351=ADVANCED_FACE('',(#1218),#1283,.F.);
#1352=ADVANCED_FACE('',(#1219),#21,.F.);
#1353=ADVANCED_FACE('',(#1220),#1284,.T.);
#1354=ADVANCED_FACE('',(#1221),#1285,.F.);
#1355=ADVANCED_FACE('',(#1222),#1286,.T.);
#1356=ADVANCED_FACE('',(#1223),#22,.F.);
#1357=ADVANCED_FACE('',(#1224),#1287,.F.);
#1358=ADVANCED_FACE('',(#1225),#23,.F.);
#1359=ADVANCED_FACE('',(#1226),#1288,.F.);
#1360=ADVANCED_FACE('',(#1227),#1289,.F.);
#1361=ADVANCED_FACE('',(#1228),#24,.F.);
#1362=ADVANCED_FACE('',(#1229),#1290,.T.);
#1363=ADVANCED_FACE('',(#1230),#1291,.F.);
#1364=ADVANCED_FACE('',(#1231),#1292,.F.);
#1365=ADVANCED_FACE('',(#1232),#1293,.T.);
#1366=ADVANCED_FACE('',(#1233),#1294,.F.);
#1367=ADVANCED_FACE('',(#1234),#1295,.T.);
#1368=ADVANCED_FACE('',(#1235),#1296,.F.);
#1369=ADVANCED_FACE('',(#1236),#1297,.F.);
#1370=ADVANCED_FACE('',(#1237),#1298,.T.);
#1371=ADVANCED_FACE('',(#1238),#1299,.F.);
#1372=ADVANCED_FACE('',(#1239),#1300,.T.);
#1373=ADVANCED_FACE('',(#1240),#1301,.F.);
#1374=ADVANCED_FACE('',(#1241),#1302,.F.);
#1375=ADVANCED_FACE('',(#1242),#1303,.T.);
#1376=ADVANCED_FACE('',(#1243),#1304,.F.);
#1377=ADVANCED_FACE('',(#1244),#1305,.T.);
#1378=ADVANCED_FACE('',(#1245),#1306,.F.);
#1379=ADVANCED_FACE('',(#1246),#1307,.F.);
#1380=ADVANCED_FACE('',(#1247),#1308,.T.);
#1381=ADVANCED_FACE('',(#1248),#1309,.F.);
#1382=ADVANCED_FACE('',(#1249),#25,.T.);
#1383=ADVANCED_FACE('',(#1250),#1310,.T.);
#1384=ADVANCED_FACE('',(#1251),#1311,.F.);
#1385=ADVANCED_FACE('',(#1252),#26,.T.);
#1386=ADVANCED_FACE('',(#1253),#1312,.T.);
#1387=ADVANCED_FACE('',(#1254),#1313,.F.);
#1388=CLOSED_SHELL('',(#1314,#1315,#1316,#1317,#1318,#1319,#1320,#1321,
#1322,#1323,#1324,#1325,#1326,#1327,#1328,#1329,#1330,#1331,#1332,#1333,
#1334,#1335,#1336,#1337,#1338,#1339,#1340,#1341,#1342,#1343,#1344,#1345,
#1346,#1347,#1348,#1349,#1350,#1351,#1352,#1353,#1354,#1355,#1356,#1357,
#1358,#1359,#1360,#1361,#1362,#1363,#1364,#1365,#1366,#1367,#1368,#1369,
#1370,#1371,#1372,#1373,#1374,#1375,#1376,#1377,#1378,#1379,#1380,#1381,
#1382,#1383,#1384,#1385,#1386,#1387));
#1389=STYLED_ITEM('',(#1390),#1397);
#1390=PRESENTATION_STYLE_ASSIGNMENT((#1391));
#1391=SURFACE_STYLE_USAGE(.BOTH.,#1392);
#1392=SURFACE_SIDE_STYLE('',(#1393));
#1393=SURFACE_STYLE_FILL_AREA(#1394);
#1394=FILL_AREA_STYLE('',(#1395));
#1395=FILL_AREA_STYLE_COLOUR('',#1396);
#1396=COLOUR_RGB('',0.890196078431373,0.909803921568627,0.909803921568627);
#1397=MANIFOLD_SOLID_BREP(
'12 Lift-off lid - light snaps and carrier retention',#1388);
#1398=SHAPE_DEFINITION_REPRESENTATION(#2282,#1399);
#1399=SHAPE_REPRESENTATION(
'12 Lift-off lid - light snaps and carrier retention',(#1400),#2277);
#1400=AXIS2_PLACEMENT_3D('',#1879,#1505,#1506);
#1401=AXIS2_PLACEMENT_3D('',#1880,#1507,#1508);
#1402=AXIS2_PLACEMENT_3D('',#1889,#1513,#1514);
#1403=AXIS2_PLACEMENT_3D('',#1895,#1517,#1518);
#1404=AXIS2_PLACEMENT_3D('',#1903,#1522,#1523);
#1405=AXIS2_PLACEMENT_3D('',#1906,#1525,#1526);
#1406=AXIS2_PLACEMENT_3D('',#1915,#1531,#1532);
#1407=AXIS2_PLACEMENT_3D('',#1924,#1537,#1538);
#1408=AXIS2_PLACEMENT_3D('',#1925,#1539,#1540);
#1409=AXIS2_PLACEMENT_3D('',#1930,#1542,#1543);
#1410=AXIS2_PLACEMENT_3D('',#1945,#1551,#1552);
#1411=AXIS2_PLACEMENT_3D('',#1957,#1558,#1559);
#1412=AXIS2_PLACEMENT_3D('',#1959,#1561,#1562);
#1413=AXIS2_PLACEMENT_3D('',#1972,#1569,#1570);
#1414=AXIS2_PLACEMENT_3D('',#1974,#1572,#1573);
#1415=AXIS2_PLACEMENT_3D('',#1976,#1575,#1576);
#1416=AXIS2_PLACEMENT_3D('',#1984,#1580,#1581);
#1417=AXIS2_PLACEMENT_3D('',#1985,#1582,#1583);
#1418=AXIS2_PLACEMENT_3D('',#1994,#1588,#1589);
#1419=AXIS2_PLACEMENT_3D('',#1995,#1590,#1591);
#1420=AXIS2_PLACEMENT_3D('',#2006,#1597,#1598);
#1421=AXIS2_PLACEMENT_3D('',#2010,#1600,#1601);
#1422=AXIS2_PLACEMENT_3D('',#2013,#1603,#1604);
#1423=AXIS2_PLACEMENT_3D('',#2022,#1609,#1610);
#1424=AXIS2_PLACEMENT_3D('',#2025,#1612,#1613);
#1425=AXIS2_PLACEMENT_3D('',#2030,#1616,#1617);
#1426=AXIS2_PLACEMENT_3D('',#2041,#1623,#1624);
#1427=AXIS2_PLACEMENT_3D('',#2043,#1626,#1627);
#1428=AXIS2_PLACEMENT_3D('',#2051,#1631,#1632);
#1429=AXIS2_PLACEMENT_3D('',#2052,#1633,#1634);
#1430=AXIS2_PLACEMENT_3D('',#2063,#1641,#1642);
#1431=AXIS2_PLACEMENT_3D('',#2077,#1650,#1651);
#1432=AXIS2_PLACEMENT_3D('',#2078,#1652,#1653);
#1433=AXIS2_PLACEMENT_3D('',#2079,#1654,#1655);
#1434=AXIS2_PLACEMENT_3D('',#2080,#1656,#1657);
#1435=AXIS2_PLACEMENT_3D('',#2081,#1658,#1659);
#1436=AXIS2_PLACEMENT_3D('',#2082,#1660,#1661);
#1437=AXIS2_PLACEMENT_3D('',#2084,#1663,#1664);
#1438=AXIS2_PLACEMENT_3D('',#2089,#1667,#1668);
#1439=AXIS2_PLACEMENT_3D('',#2090,#1669,#1670);
#1440=AXIS2_PLACEMENT_3D('',#2091,#1671,#1672);
#1441=AXIS2_PLACEMENT_3D('',#2092,#1673,#1674);
#1442=AXIS2_PLACEMENT_3D('',#2093,#1675,#1676);
#1443=AXIS2_PLACEMENT_3D('',#2094,#1677,#1678);
#1444=AXIS2_PLACEMENT_3D('',#2105,#1685,#1686);
#1445=AXIS2_PLACEMENT_3D('',#2116,#1693,#1694);
#1446=AXIS2_PLACEMENT_3D('',#2117,#1695,#1696);
#1447=AXIS2_PLACEMENT_3D('',#2118,#1697,#1698);
#1448=AXIS2_PLACEMENT_3D('',#2119,#1699,#1700);
#1449=AXIS2_PLACEMENT_3D('',#2120,#1701,#1702);
#1450=AXIS2_PLACEMENT_3D('',#2121,#1703,#1704);
#1451=AXIS2_PLACEMENT_3D('',#2122,#1705,#1706);
#1452=AXIS2_PLACEMENT_3D('',#2123,#1707,#1708);
#1453=AXIS2_PLACEMENT_3D('',#2124,#1709,#1710);
#1454=AXIS2_PLACEMENT_3D('',#2157,#1727,#1728);
#1455=AXIS2_PLACEMENT_3D('',#2159,#1730,#1731);
#1456=AXIS2_PLACEMENT_3D('',#2161,#1733,#1734);
#1457=AXIS2_PLACEMENT_3D('',#2162,#1735,#1736);
#1458=AXIS2_PLACEMENT_3D('',#2165,#1739,#1740);
#1459=AXIS2_PLACEMENT_3D('',#2166,#1741,#1742);
#1460=AXIS2_PLACEMENT_3D('',#2167,#1743,#1744);
#1461=AXIS2_PLACEMENT_3D('',#2169,#1746,#1747);
#1462=AXIS2_PLACEMENT_3D('',#2173,#1750,#1751);
#1463=AXIS2_PLACEMENT_3D('',#2175,#1753,#1754);
#1464=AXIS2_PLACEMENT_3D('',#2179,#1757,#1758);
#1465=AXIS2_PLACEMENT_3D('',#2181,#1760,#1761);
#1466=AXIS2_PLACEMENT_3D('',#2183,#1763,#1764);
#1467=AXIS2_PLACEMENT_3D('',#2185,#1766,#1767);
#1468=AXIS2_PLACEMENT_3D('',#2186,#1768,#1769);
#1469=AXIS2_PLACEMENT_3D('',#2188,#1771,#1772);
#1470=AXIS2_PLACEMENT_3D('',#2190,#1774,#1775);
#1471=AXIS2_PLACEMENT_3D('',#2192,#1777,#1778);
#1472=AXIS2_PLACEMENT_3D('',#2194,#1780,#1781);
#1473=AXIS2_PLACEMENT_3D('',#2196,#1783,#1784);
#1474=AXIS2_PLACEMENT_3D('',#2197,#1785,#1786);
#1475=AXIS2_PLACEMENT_3D('',#2198,#1787,#1788);
#1476=AXIS2_PLACEMENT_3D('',#2204,#1792,#1793);
#1477=AXIS2_PLACEMENT_3D('',#2208,#1796,#1797);
#1478=AXIS2_PLACEMENT_3D('',#2212,#1800,#1801);
#1479=AXIS2_PLACEMENT_3D('',#2214,#1803,#1804);
#1480=AXIS2_PLACEMENT_3D('',#2215,#1805,#1806);
#1481=AXIS2_PLACEMENT_3D('',#2221,#1810,#1811);
#1482=AXIS2_PLACEMENT_3D('',#2225,#1814,#1815);
#1483=AXIS2_PLACEMENT_3D('',#2229,#1818,#1819);
#1484=AXIS2_PLACEMENT_3D('',#2231,#1821,#1822);
#1485=AXIS2_PLACEMENT_3D('',#2232,#1823,#1824);
#1486=AXIS2_PLACEMENT_3D('',#2238,#1828,#1829);
#1487=AXIS2_PLACEMENT_3D('',#2242,#1832,#1833);
#1488=AXIS2_PLACEMENT_3D('',#2246,#1836,#1837);
#1489=AXIS2_PLACEMENT_3D('',#2248,#1839,#1840);
#1490=AXIS2_PLACEMENT_3D('',#2249,#1841,#1842);
#1491=AXIS2_PLACEMENT_3D('',#2255,#1846,#1847);
#1492=AXIS2_PLACEMENT_3D('',#2259,#1850,#1851);
#1493=AXIS2_PLACEMENT_3D('',#2263,#1854,#1855);
#1494=AXIS2_PLACEMENT_3D('',#2265,#1857,#1858);
#1495=AXIS2_PLACEMENT_3D('',#2266,#1859,#1860);
#1496=AXIS2_PLACEMENT_3D('',#2267,#1861,#1862);
#1497=AXIS2_PLACEMENT_3D('',#2268,#1863,#1864);
#1498=AXIS2_PLACEMENT_3D('',#2269,#1865,#1866);
#1499=AXIS2_PLACEMENT_3D('',#2270,#1867,#1868);
#1500=AXIS2_PLACEMENT_3D('',#2271,#1869,#1870);
#1501=AXIS2_PLACEMENT_3D('',#2272,#1871,#1872);
#1502=AXIS2_PLACEMENT_3D('',#2273,#1873,#1874);
#1503=AXIS2_PLACEMENT_3D('',#2274,#1875,#1876);
#1504=AXIS2_PLACEMENT_3D('',#2275,#1877,#1878);
#1505=DIRECTION('',(0.,0.,1.));
#1506=DIRECTION('',(1.,0.,0.));
#1507=DIRECTION('',(0.,0.,1.));
#1508=DIRECTION('',(1.,0.,0.));
#1509=DIRECTION('',(-1.,0.,0.));
#1510=DIRECTION('',(0.,1.,0.));
#1511=DIRECTION('',(-1.,0.,0.));
#1512=DIRECTION('',(0.,-1.,0.));
#1513=DIRECTION('',(0.,0.,1.));
#1514=DIRECTION('',(1.,0.,0.));
#1515=DIRECTION('',(-1.,0.,0.));
#1516=DIRECTION('',(0.,-1.,0.));
#1517=DIRECTION('',(0.,0.,1.));
#1518=DIRECTION('',(1.,0.,0.));
#1519=DIRECTION('',(-1.,0.,0.));
#1520=DIRECTION('',(0.,-1.,0.));
#1521=DIRECTION('',(1.,0.,0.));
#1522=DIRECTION('',(0.,0.,1.));
#1523=DIRECTION('',(1.,0.,0.));
#1524=DIRECTION('',(0.,1.,0.));
#1525=DIRECTION('',(0.,1.,0.));
#1526=DIRECTION('',(0.,0.,1.));
#1527=DIRECTION('',(0.,0.,-1.));
#1528=DIRECTION('',(1.,0.,0.));
#1529=DIRECTION('',(0.,0.,-1.));
#1530=DIRECTION('',(-1.,0.,0.));
#1531=DIRECTION('',(0.,1.,0.));
#1532=DIRECTION('',(0.,0.,1.));
#1533=DIRECTION('',(1.,0.,0.));
#1534=DIRECTION('',(0.,0.,-1.));
#1535=DIRECTION('',(-1.,0.,0.));
#1536=DIRECTION('',(0.,0.,-1.));
#1537=DIRECTION('',(-1.,0.,0.));
#1538=DIRECTION('',(0.,0.,1.));
#1539=DIRECTION('',(-1.,0.,0.));
#1540=DIRECTION('',(0.,0.,1.));
#1541=DIRECTION('',(0.,1.,0.));
#1542=DIRECTION('',(-1.,0.,0.));
#1543=DIRECTION('',(0.,0.,1.));
#1544=DIRECTION('',(0.,0.,-1.));
#1545=DIRECTION('',(0.,1.,0.));
#1546=DIRECTION('',(0.,0.,-1.));
#1547=DIRECTION('',(0.,1.,0.));
#1548=DIRECTION('',(0.,0.,-1.));
#1549=DIRECTION('',(0.,1.,0.));
#1550=DIRECTION('',(0.,0.,-1.));
#1551=DIRECTION('',(-1.,0.,0.));
#1552=DIRECTION('',(0.,0.,1.));
#1553=DIRECTION('',(0.,0.,-1.));
#1554=DIRECTION('',(0.,-1.,0.));
#1555=DIRECTION('',(0.,0.,-1.));
#1556=DIRECTION('',(0.,-1.,0.));
#1557=DIRECTION('',(0.,0.,-1.));
#1558=DIRECTION('',(-1.,0.,0.));
#1559=DIRECTION('',(0.,0.,1.));
#1560=DIRECTION('',(0.,-1.,0.));
#1561=DIRECTION('',(-1.,0.,0.));
#1562=DIRECTION('',(0.,0.,1.));
#1563=DIRECTION('',(0.,0.,-1.));
#1564=DIRECTION('',(0.,-1.,0.));
#1565=DIRECTION('',(0.,0.,-1.));
#1566=DIRECTION('',(0.,1.,0.));
#1567=DIRECTION('',(0.,0.,-1.));
#1568=DIRECTION('',(0.,-1.,0.));
#1569=DIRECTION('',(0.,0.,1.));
#1570=DIRECTION('',(1.,0.,0.));
#1571=DIRECTION('',(0.,-1.,0.));
#1572=DIRECTION('',(0.,0.,1.));
#1573=DIRECTION('',(1.,0.,0.));
#1574=DIRECTION('',(-1.,0.,0.));
#1575=DIRECTION('',(0.,0.,1.));
#1576=DIRECTION('',(1.,0.,0.));
#1577=DIRECTION('',(1.,0.,0.));
#1578=DIRECTION('',(0.,-1.,0.));
#1579=DIRECTION('',(-1.,0.,0.));
#1580=DIRECTION('',(0.,0.,1.));
#1581=DIRECTION('',(1.,0.,0.));
#1582=DIRECTION('',(0.,0.,1.));
#1583=DIRECTION('',(1.,0.,0.));
#1584=DIRECTION('',(0.,-1.,0.));
#1585=DIRECTION('',(-1.,0.,0.));
#1586=DIRECTION('',(0.,-1.,0.));
#1587=DIRECTION('',(-1.,0.,0.));
#1588=DIRECTION('',(-1.,0.,0.));
#1589=DIRECTION('',(0.,0.,1.));
#1590=DIRECTION('',(-1.,0.,0.));
#1591=DIRECTION('',(0.,0.,1.));
#1592=DIRECTION('',(0.,0.,-1.));
#1593=DIRECTION('',(0.,1.,0.));
#1594=DIRECTION('',(0.,0.,-1.));
#1595=DIRECTION('',(0.,1.,0.));
#1596=DIRECTION('',(0.,0.,-1.));
#1597=DIRECTION('',(-1.,0.,0.));
#1598=DIRECTION('',(0.,0.,1.));
#1599=DIRECTION('',(0.,1.,0.));
#1600=DIRECTION('',(-1.,0.,0.));
#1601=DIRECTION('',(0.,0.,1.));
#1602=DIRECTION('',(0.,0.,-1.));
#1603=DIRECTION('',(-1.,0.,0.));
#1604=DIRECTION('',(0.,0.,1.));
#1605=DIRECTION('',(0.,-1.,0.));
#1606=DIRECTION('',(0.,0.,-1.));
#1607=DIRECTION('',(0.,-1.,0.));
#1608=DIRECTION('',(0.,0.,-1.));
#1609=DIRECTION('',(-1.,0.,0.));
#1610=DIRECTION('',(0.,0.,1.));
#1611=DIRECTION('',(0.,0.,-1.));
#1612=DIRECTION('',(-1.,0.,0.));
#1613=DIRECTION('',(0.,0.,1.));
#1614=DIRECTION('',(0.,0.,-1.));
#1615=DIRECTION('',(0.,0.,-1.));
#1616=DIRECTION('',(-1.,0.,0.));
#1617=DIRECTION('',(0.,0.,1.));
#1618=DIRECTION('',(0.,0.,-1.));
#1619=DIRECTION('',(0.,-1.,0.));
#1620=DIRECTION('',(0.,0.,-1.));
#1621=DIRECTION('',(0.,1.,0.));
#1622=DIRECTION('',(0.,0.,-1.));
#1623=DIRECTION('',(0.,0.,1.));
#1624=DIRECTION('',(1.,0.,0.));
#1625=DIRECTION('',(-1.,0.,0.));
#1626=DIRECTION('',(0.,0.,1.));
#1627=DIRECTION('',(1.,0.,0.));
#1628=DIRECTION('',(-1.,0.,0.));
#1629=DIRECTION('',(0.,-1.,0.));
#1630=DIRECTION('',(1.,0.,0.));
#1631=DIRECTION('',(0.,0.,1.));
#1632=DIRECTION('',(1.,0.,0.));
#1633=DIRECTION('',(0.,1.,0.));
#1634=DIRECTION('',(0.,0.,1.));
#1635=DIRECTION('',(0.,0.,1.));
#1636=DIRECTION('',(1.,0.,0.));
#1637=DIRECTION('',(0.,0.,1.));
#1638=DIRECTION('',(0.,0.,-1.));
#1639=DIRECTION('',(1.,0.,0.));
#1640=DIRECTION('',(0.,0.,-1.));
#1641=DIRECTION('',(0.,1.,0.));
#1642=DIRECTION('',(0.,0.,1.));
#1643=DIRECTION('',(0.,0.,1.));
#1644=DIRECTION('',(1.,0.,0.));
#1645=DIRECTION('',(0.,0.,-1.));
#1646=DIRECTION('',(1.,0.,0.));
#1647=DIRECTION('',(0.,0.,-1.));
#1648=DIRECTION('',(0.,0.,1.));
#1649=DIRECTION('',(1.,0.,0.));
#1650=DIRECTION('',(0.,0.,1.));
#1651=DIRECTION('',(1.,0.,0.));
#1652=DIRECTION('',(0.,0.,1.));
#1653=DIRECTION('',(1.,0.,0.));
#1654=DIRECTION('',(0.,0.,1.));
#1655=DIRECTION('',(1.,0.,0.));
#1656=DIRECTION('',(0.,0.,1.));
#1657=DIRECTION('',(1.,0.,0.));
#1658=DIRECTION('',(0.,0.,1.));
#1659=DIRECTION('',(1.,0.,0.));
#1660=DIRECTION('',(0.,0.,1.));
#1661=DIRECTION('',(1.,0.,0.));
#1662=DIRECTION('',(-1.,0.,0.));
#1663=DIRECTION('',(0.,0.,1.));
#1664=DIRECTION('',(1.,0.,0.));
#1665=DIRECTION('',(0.,-1.,0.));
#1666=DIRECTION('',(-1.,0.,0.));
#1667=DIRECTION('',(0.,0.,1.));
#1668=DIRECTION('',(1.,0.,0.));
#1669=DIRECTION('',(0.,0.,1.));
#1670=DIRECTION('',(1.,0.,0.));
#1671=DIRECTION('',(0.,0.,-1.));
#1672=DIRECTION('',(-1.,0.,0.));
#1673=DIRECTION('',(0.,0.,-1.));
#1674=DIRECTION('',(-1.,0.,0.));
#1675=DIRECTION('',(0.,0.,1.));
#1676=DIRECTION('',(1.,0.,0.));
#1677=DIRECTION('',(0.,1.,0.));
#1678=DIRECTION('',(0.,0.,1.));
#1679=DIRECTION('',(0.,0.,1.));
#1680=DIRECTION('',(0.,0.,-1.));
#1681=DIRECTION('',(1.,0.,0.));
#1682=DIRECTION('',(0.,0.,-1.));
#1683=DIRECTION('',(0.,0.,1.));
#1684=DIRECTION('',(1.,0.,0.));
#1685=DIRECTION('',(0.,1.,0.));
#1686=DIRECTION('',(0.,0.,1.));
#1687=DIRECTION('',(0.,0.,1.));
#1688=DIRECTION('',(1.,0.,0.));
#1689=DIRECTION('',(0.,0.,1.));
#1690=DIRECTION('',(0.,0.,-1.));
#1691=DIRECTION('',(1.,0.,0.));
#1692=DIRECTION('',(0.,0.,-1.));
#1693=DIRECTION('',(0.,0.,1.));
#1694=DIRECTION('',(1.,0.,0.));
#1695=DIRECTION('',(0.,0.,1.));
#1696=DIRECTION('',(1.,0.,0.));
#1697=DIRECTION('',(0.,0.,-1.));
#1698=DIRECTION('',(-1.,0.,0.));
#1699=DIRECTION('',(0.,0.,1.));
#1700=DIRECTION('',(1.,0.,0.));
#1701=DIRECTION('',(0.,0.,-1.));
#1702=DIRECTION('',(-1.,0.,0.));
#1703=DIRECTION('',(0.,0.,1.));
#1704=DIRECTION('',(1.,0.,0.));
#1705=DIRECTION('',(0.,0.,1.));
#1706=DIRECTION('',(1.,0.,0.));
#1707=DIRECTION('',(0.,0.,1.));
#1708=DIRECTION('',(1.,0.,0.));
#1709=DIRECTION('',(0.,0.,1.));
#1710=DIRECTION('',(1.,0.,0.));
#1711=DIRECTION('',(-1.,0.,0.));
#1712=DIRECTION('',(0.,-1.,0.));
#1713=DIRECTION('',(-1.,0.,0.));
#1714=DIRECTION('',(0.,-1.,0.));
#1715=DIRECTION('',(-1.,0.,0.));
#1716=DIRECTION('',(0.,-1.,0.));
#1717=DIRECTION('',(-1.,0.,0.));
#1718=DIRECTION('',(0.,-1.,0.));
#1719=DIRECTION('',(-1.,0.,0.));
#1720=DIRECTION('',(0.,-1.,0.));
#1721=DIRECTION('',(-1.,0.,0.));
#1722=DIRECTION('',(0.,-1.,0.));
#1723=DIRECTION('',(-1.,0.,0.));
#1724=DIRECTION('',(0.,-1.,0.));
#1725=DIRECTION('',(-1.,0.,0.));
#1726=DIRECTION('',(0.,-1.,0.));
#1727=DIRECTION('',(-1.,0.,0.));
#1728=DIRECTION('',(0.,0.,1.));
#1729=DIRECTION('',(0.,1.,0.));
#1730=DIRECTION('',(-1.,0.,0.));
#1731=DIRECTION('',(0.,0.,1.));
#1732=DIRECTION('',(0.,1.,0.));
#1733=DIRECTION('',(0.,0.,1.));
#1734=DIRECTION('',(1.,0.,0.));
#1735=DIRECTION('',(0.,0.,1.));
#1736=DIRECTION('',(1.,0.,0.));
#1737=DIRECTION('',(0.,1.,0.));
#1738=DIRECTION('',(0.,1.,0.));
#1739=DIRECTION('',(-1.,0.,0.));
#1740=DIRECTION('',(0.,0.,1.));
#1741=DIRECTION('',(-1.,0.,0.));
#1742=DIRECTION('',(0.,0.,1.));
#1743=DIRECTION('',(0.,1.,0.));
#1744=DIRECTION('',(0.,0.,1.));
#1745=DIRECTION('',(1.,0.,0.));
#1746=DIRECTION('',(0.,1.,0.));
#1747=DIRECTION('',(0.,0.,1.));
#1748=DIRECTION('',(1.,0.,0.));
#1749=DIRECTION('',(0.,0.,-1.));
#1750=DIRECTION('',(-1.,0.,0.));
#1751=DIRECTION('',(0.,0.,1.));
#1752=DIRECTION('',(1.,0.,0.));
#1753=DIRECTION('',(0.,1.,0.));
#1754=DIRECTION('',(0.,0.,1.));
#1755=DIRECTION('',(0.,0.,-1.));
#1756=DIRECTION('',(1.,0.,0.));
#1757=DIRECTION('',(0.,1.,0.));
#1758=DIRECTION('',(0.,0.,1.));
#1759=DIRECTION('',(1.,0.,0.));
#1760=DIRECTION('',(-1.,0.,0.));
#1761=DIRECTION('',(0.,0.,1.));
#1762=DIRECTION('',(1.,0.,0.));
#1763=DIRECTION('',(-1.,0.,0.));
#1764=DIRECTION('',(0.,0.,1.));
#1765=DIRECTION('',(0.,1.,0.));
#1766=DIRECTION('',(0.,0.,1.));
#1767=DIRECTION('',(1.,0.,0.));
#1768=DIRECTION('',(0.,1.,0.));
#1769=DIRECTION('',(0.,0.,1.));
#1770=DIRECTION('',(1.,0.,0.));
#1771=DIRECTION('',(-1.,0.,0.));
#1772=DIRECTION('',(0.,0.,1.));
#1773=DIRECTION('',(1.,0.,0.));
#1774=DIRECTION('',(0.,1.,0.));
#1775=DIRECTION('',(0.,0.,1.));
#1776=DIRECTION('',(1.,0.,0.));
#1777=DIRECTION('',(-1.,0.,0.));
#1778=DIRECTION('',(0.,0.,1.));
#1779=DIRECTION('',(1.,0.,0.));
#1780=DIRECTION('',(0.,0.,1.));
#1781=DIRECTION('',(1.,0.,0.));
#1782=DIRECTION('',(0.,1.,0.));
#1783=DIRECTION('',(-1.,0.,0.));
#1784=DIRECTION('',(0.,0.,1.));
#1785=DIRECTION('',(-1.,0.,0.));
#1786=DIRECTION('',(0.,0.,1.));
#1787=DIRECTION('',(-1.,0.,0.));
#1788=DIRECTION('',(0.,0.,1.));
#1789=DIRECTION('',(0.,0.,-1.));
#1790=DIRECTION('',(0.,1.,0.));
#1791=DIRECTION('',(0.,0.,-1.));
#1792=DIRECTION('',(0.,1.,0.));
#1793=DIRECTION('',(0.,0.,1.));
#1794=DIRECTION('',(0.,0.,-1.));
#1795=DIRECTION('',(1.,0.,0.));
#1796=DIRECTION('',(-1.,0.,0.));
#1797=DIRECTION('',(0.,0.,1.));
#1798=DIRECTION('',(0.,0.,-1.));
#1799=DIRECTION('',(0.,1.,0.));
#1800=DIRECTION('',(0.,1.,0.));
#1801=DIRECTION('',(0.,0.,1.));
#1802=DIRECTION('',(1.,0.,0.));
#1803=DIRECTION('',(0.,0.,1.));
#1804=DIRECTION('',(1.,0.,0.));
#1805=DIRECTION('',(-1.,0.,0.));
#1806=DIRECTION('',(0.,0.,1.));
#1807=DIRECTION('',(0.,0.,-1.));
#1808=DIRECTION('',(0.,1.,0.));
#1809=DIRECTION('',(0.,0.,-1.));
#1810=DIRECTION('',(0.,1.,0.));
#1811=DIRECTION('',(0.,0.,1.));
#1812=DIRECTION('',(0.,0.,-1.));
#1813=DIRECTION('',(1.,0.,0.));
#1814=DIRECTION('',(-1.,0.,0.));
#1815=DIRECTION('',(0.,0.,1.));
#1816=DIRECTION('',(0.,0.,-1.));
#1817=DIRECTION('',(0.,1.,0.));
#1818=DIRECTION('',(0.,1.,0.));
#1819=DIRECTION('',(0.,0.,1.));
#1820=DIRECTION('',(1.,0.,0.));
#1821=DIRECTION('',(0.,0.,1.));
#1822=DIRECTION('',(1.,0.,0.));
#1823=DIRECTION('',(-1.,0.,0.));
#1824=DIRECTION('',(0.,0.,1.));
#1825=DIRECTION('',(0.,0.,-1.));
#1826=DIRECTION('',(0.,1.,0.));
#1827=DIRECTION('',(0.,0.,-1.));
#1828=DIRECTION('',(0.,1.,0.));
#1829=DIRECTION('',(0.,0.,1.));
#1830=DIRECTION('',(0.,0.,-1.));
#1831=DIRECTION('',(1.,0.,0.));
#1832=DIRECTION('',(-1.,0.,0.));
#1833=DIRECTION('',(0.,0.,1.));
#1834=DIRECTION('',(0.,0.,-1.));
#1835=DIRECTION('',(0.,1.,0.));
#1836=DIRECTION('',(0.,1.,0.));
#1837=DIRECTION('',(0.,0.,1.));
#1838=DIRECTION('',(1.,0.,0.));
#1839=DIRECTION('',(0.,0.,1.));
#1840=DIRECTION('',(1.,0.,0.));
#1841=DIRECTION('',(-1.,0.,0.));
#1842=DIRECTION('',(0.,0.,1.));
#1843=DIRECTION('',(0.,0.,-1.));
#1844=DIRECTION('',(0.,1.,0.));
#1845=DIRECTION('',(0.,0.,-1.));
#1846=DIRECTION('',(0.,1.,0.));
#1847=DIRECTION('',(0.,0.,1.));
#1848=DIRECTION('',(0.,0.,-1.));
#1849=DIRECTION('',(1.,0.,0.));
#1850=DIRECTION('',(-1.,0.,0.));
#1851=DIRECTION('',(0.,0.,1.));
#1852=DIRECTION('',(0.,0.,-1.));
#1853=DIRECTION('',(0.,1.,0.));
#1854=DIRECTION('',(0.,1.,0.));
#1855=DIRECTION('',(0.,0.,1.));
#1856=DIRECTION('',(1.,0.,0.));
#1857=DIRECTION('',(0.,0.,1.));
#1858=DIRECTION('',(1.,0.,0.));
#1859=DIRECTION('',(0.,-1.,0.));
#1860=DIRECTION('',(0.,0.,-1.));
#1861=DIRECTION('',(0.,1.,0.));
#1862=DIRECTION('',(0.,0.,1.));
#1863=DIRECTION('',(0.,1.,0.));
#1864=DIRECTION('',(0.,0.,1.));
#1865=DIRECTION('',(0.,1.,0.));
#1866=DIRECTION('',(0.,0.,1.));
#1867=DIRECTION('',(0.,1.,0.));
#1868=DIRECTION('',(0.,0.,1.));
#1869=DIRECTION('',(0.,-1.,0.));
#1870=DIRECTION('',(0.,0.,-1.));
#1871=DIRECTION('',(0.,1.,0.));
#1872=DIRECTION('',(0.,0.,1.));
#1873=DIRECTION('',(0.,1.,0.));
#1874=DIRECTION('',(0.,0.,1.));
#1875=DIRECTION('',(0.,1.,0.));
#1876=DIRECTION('',(0.,0.,1.));
#1877=DIRECTION('',(0.,1.,0.));
#1878=DIRECTION('',(0.,0.,1.));
#1879=CARTESIAN_POINT('',(0.,0.,0.));
#1880=CARTESIAN_POINT('',(0.,0.035,0.0036));
#1881=CARTESIAN_POINT('',(-0.02795,0.012,0.0036));
#1882=CARTESIAN_POINT('',(-0.03005,0.012,0.0036));
#1883=CARTESIAN_POINT('',(-0.02805,0.012,0.0036));
#1884=CARTESIAN_POINT('',(-0.03005,0.035,0.0036));
#1885=CARTESIAN_POINT('',(-0.03005,0.0292,0.0036));
#1886=CARTESIAN_POINT('',(0.,0.0292,0.0036));
#1887=CARTESIAN_POINT('',(-0.02805,0.0292,0.0036));
#1888=CARTESIAN_POINT('',(-0.02805,0.035,0.0036));
#1889=CARTESIAN_POINT('',(0.,0.035,0.0036));
#1890=CARTESIAN_POINT('',(-0.02795,0.004,0.0036));
#1891=CARTESIAN_POINT('',(-0.02805,0.004,0.0036));
#1892=CARTESIAN_POINT('',(-0.03005,0.004,0.0036));
#1893=CARTESIAN_POINT('',(-0.02805,0.035,0.0036));
#1894=CARTESIAN_POINT('',(-0.02805,0.00025,0.0036));
#1895=CARTESIAN_POINT('',(-0.02475,0.00025,0.0036));
#1896=CARTESIAN_POINT('',(-0.02475,-0.00305,0.0036));
#1897=CARTESIAN_POINT('',(0.,-0.00305,0.0036));
#1898=CARTESIAN_POINT('',(-0.0215,-0.00305,0.0036));
#1899=CARTESIAN_POINT('',(-0.0215,0.035,0.0036));
#1900=CARTESIAN_POINT('',(-0.0215,-0.00505,0.0036));
#1901=CARTESIAN_POINT('',(0.,-0.00505,0.0036));
#1902=CARTESIAN_POINT('',(-0.02475,-0.00505,0.0036));
#1903=CARTESIAN_POINT('',(-0.02475,0.00025,0.0036));
#1904=CARTESIAN_POINT('',(-0.03005,0.00025,0.0036));
#1905=CARTESIAN_POINT('',(-0.03005,0.035,0.0036));
#1906=CARTESIAN_POINT('',(0.0295,0.03,0.0171));
#1907=CARTESIAN_POINT('',(0.02925,0.03,0.0171));
#1908=CARTESIAN_POINT('',(0.02925,0.03,0.0171));
#1909=CARTESIAN_POINT('',(0.02925,0.03,0.0036));
#1910=CARTESIAN_POINT('',(0.0295,0.03,0.0171));
#1911=CARTESIAN_POINT('',(0.02805,0.03,0.0171));
#1912=CARTESIAN_POINT('',(0.02805,0.03,0.0211));
#1913=CARTESIAN_POINT('',(0.02805,0.03,0.0036));
#1914=CARTESIAN_POINT('',(0.,0.03,0.0036));
#1915=CARTESIAN_POINT('',(0.0295,0.04,0.0171));
#1916=CARTESIAN_POINT('',(0.0295,0.04,0.0171));
#1917=CARTESIAN_POINT('',(0.02805,0.04,0.0171));
#1918=CARTESIAN_POINT('',(0.02925,0.04,0.0171));
#1919=CARTESIAN_POINT('',(0.02925,0.04,0.0171));
#1920=CARTESIAN_POINT('',(0.02925,0.04,0.0036));
#1921=CARTESIAN_POINT('',(0.,0.04,0.0036));
#1922=CARTESIAN_POINT('',(0.02805,0.04,0.0036));
#1923=CARTESIAN_POINT('',(0.02805,0.04,0.0211));
#1924=CARTESIAN_POINT('',(0.03005,0.035,0.0231));
#1925=CARTESIAN_POINT('',(0.03005,0.0296,0.0171));
#1926=CARTESIAN_POINT('',(0.03005,0.03,0.0171));
#1927=CARTESIAN_POINT('',(0.03005,0.0292,0.0171));
#1928=CARTESIAN_POINT('',(0.03005,0.035,0.0171));
#1929=CARTESIAN_POINT('',(0.03005,0.04,0.0171));
#1930=CARTESIAN_POINT('',(0.03005,0.0404,0.0171));
#1931=CARTESIAN_POINT('',(0.03005,0.0408,0.0171));
#1932=CARTESIAN_POINT('',(0.03005,0.0408,0.0231));
#1933=CARTESIAN_POINT('',(0.03005,0.0408,0.0036));
#1934=CARTESIAN_POINT('',(0.03005,0.035,0.0036));
#1935=CARTESIAN_POINT('',(0.03005,0.06975,0.0036));
#1936=CARTESIAN_POINT('',(0.03005,0.06975,0.0231));
#1937=CARTESIAN_POINT('',(0.03005,0.06975,0.0231));
#1938=CARTESIAN_POINT('',(0.03005,0.035,0.0231));
#1939=CARTESIAN_POINT('',(0.03005,0.00025,0.0231));
#1940=CARTESIAN_POINT('',(0.03005,0.00025,0.0231));
#1941=CARTESIAN_POINT('',(0.03005,0.00025,0.0036));
#1942=CARTESIAN_POINT('',(0.03005,0.035,0.0036));
#1943=CARTESIAN_POINT('',(0.03005,0.0292,0.0036));
#1944=CARTESIAN_POINT('',(0.03005,0.0292,0.0231));
#1945=CARTESIAN_POINT('',(0.02805,0.035,0.0211));
#1946=CARTESIAN_POINT('',(0.02805,0.039,0.0211));
#1947=CARTESIAN_POINT('',(0.02805,0.039,0.00709282032302755));
#1948=CARTESIAN_POINT('',(0.02805,0.039,0.00570717967697245));
#1949=CARTESIAN_POINT('',(0.02805,0.039,0.00709282032302755));
#1950=CARTESIAN_POINT('',(0.02805,0.031,0.00709282032302755));
#1951=CARTESIAN_POINT('',(0.02805,0.031,0.0211));
#1952=CARTESIAN_POINT('',(0.02805,0.031,0.00570717967697245));
#1953=CARTESIAN_POINT('',(0.02805,0.039,0.00570717967697245));
#1954=CARTESIAN_POINT('',(0.02805,0.0408,0.0211));
#1955=CARTESIAN_POINT('',(0.02805,0.0408,0.0171));
#1956=CARTESIAN_POINT('',(0.02805,0.0408,0.0036));
#1957=CARTESIAN_POINT('',(0.02805,0.0404,0.0171));
#1958=CARTESIAN_POINT('',(0.02805,0.035,0.0036));
#1959=CARTESIAN_POINT('',(0.02805,0.0296,0.0171));
#1960=CARTESIAN_POINT('',(0.02805,0.0292,0.0171));
#1961=CARTESIAN_POINT('',(0.02805,0.0292,0.0211));
#1962=CARTESIAN_POINT('',(0.02805,0.0292,0.0036));
#1963=CARTESIAN_POINT('',(0.02805,0.035,0.0036));
#1964=CARTESIAN_POINT('',(0.02805,0.00025,0.0036));
#1965=CARTESIAN_POINT('',(0.02805,0.00025,0.0211));
#1966=CARTESIAN_POINT('',(0.02805,0.00025,0.0211));
#1967=CARTESIAN_POINT('',(0.02805,0.035,0.0211));
#1968=CARTESIAN_POINT('',(0.02805,0.06975,0.0211));
#1969=CARTESIAN_POINT('',(0.02805,0.06975,0.0211));
#1970=CARTESIAN_POINT('',(0.02805,0.06975,0.0036));
#1971=CARTESIAN_POINT('',(0.02805,0.035,0.0036));
#1972=CARTESIAN_POINT('',(0.,0.035,0.0036));
#1973=CARTESIAN_POINT('',(0.02925,0.035,0.0036));
#1974=CARTESIAN_POINT('',(0.,0.035,0.0036));
#1975=CARTESIAN_POINT('',(0.,0.0292,0.0036));
#1976=CARTESIAN_POINT('',(0.02475,0.00025,0.0036));
#1977=CARTESIAN_POINT('',(0.02475,-0.00505,0.0036));
#1978=CARTESIAN_POINT('',(0.,-0.00505,0.0036));
#1979=CARTESIAN_POINT('',(0.0215,-0.00505,0.0036));
#1980=CARTESIAN_POINT('',(0.0215,0.035,0.0036));
#1981=CARTESIAN_POINT('',(0.0215,-0.00305,0.0036));
#1982=CARTESIAN_POINT('',(0.,-0.00305,0.0036));
#1983=CARTESIAN_POINT('',(0.02475,-0.00305,0.0036));
#1984=CARTESIAN_POINT('',(0.02475,0.00025,0.0036));
#1985=CARTESIAN_POINT('',(0.,0.035,0.0036));
#1986=CARTESIAN_POINT('',(-0.02925,0.035,0.0036));
#1987=CARTESIAN_POINT('',(-0.02925,0.04,0.0036));
#1988=CARTESIAN_POINT('',(-0.02925,0.03,0.0036));
#1989=CARTESIAN_POINT('',(0.,0.04,0.0036));
#1990=CARTESIAN_POINT('',(-0.02805,0.04,0.0036));
#1991=CARTESIAN_POINT('',(-0.02805,0.035,0.0036));
#1992=CARTESIAN_POINT('',(-0.02805,0.03,0.0036));
#1993=CARTESIAN_POINT('',(0.,0.03,0.0036));
#1994=CARTESIAN_POINT('',(-0.03005,0.035,0.0231));
#1995=CARTESIAN_POINT('',(-0.03005,0.008,0.0036));
#1996=CARTESIAN_POINT('',(-0.03005,0.00025,0.0231));
#1997=CARTESIAN_POINT('',(-0.03005,0.00025,0.0231));
#1998=CARTESIAN_POINT('',(-0.03005,0.035,0.0231));
#1999=CARTESIAN_POINT('',(-0.03005,0.06975,0.0231));
#2000=CARTESIAN_POINT('',(-0.03005,0.06975,0.0231));
#2001=CARTESIAN_POINT('',(-0.03005,0.06975,0.0036));
#2002=CARTESIAN_POINT('',(-0.03005,0.035,0.0036));
#2003=CARTESIAN_POINT('',(-0.03005,0.0408,0.0036));
#2004=CARTESIAN_POINT('',(-0.03005,0.0408,0.0231));
#2005=CARTESIAN_POINT('',(-0.03005,0.0408,0.0171));
#2006=CARTESIAN_POINT('',(-0.03005,0.0404,0.0171));
#2007=CARTESIAN_POINT('',(-0.03005,0.04,0.0171));
#2008=CARTESIAN_POINT('',(-0.03005,0.035,0.0171));
#2009=CARTESIAN_POINT('',(-0.03005,0.03,0.0171));
#2010=CARTESIAN_POINT('',(-0.03005,0.0296,0.0171));
#2011=CARTESIAN_POINT('',(-0.03005,0.0292,0.0171));
#2012=CARTESIAN_POINT('',(-0.03005,0.0292,0.0231));
#2013=CARTESIAN_POINT('',(-0.02805,0.035,0.0211));
#2014=CARTESIAN_POINT('',(-0.02805,0.039,0.00709282032302755));
#2015=CARTESIAN_POINT('',(-0.02805,0.039,0.00709282032302755));
#2016=CARTESIAN_POINT('',(-0.02805,0.031,0.00709282032302755));
#2017=CARTESIAN_POINT('',(-0.02805,0.039,0.0211));
#2018=CARTESIAN_POINT('',(-0.02805,0.039,0.00570717967697245));
#2019=CARTESIAN_POINT('',(-0.02805,0.039,0.00570717967697245));
#2020=CARTESIAN_POINT('',(-0.02805,0.031,0.00570717967697245));
#2021=CARTESIAN_POINT('',(-0.02805,0.031,0.0211));
#2022=CARTESIAN_POINT('',(-0.02805,0.008,0.0036));
#2023=CARTESIAN_POINT('',(-0.02805,0.0292,0.0211));
#2024=CARTESIAN_POINT('',(-0.02805,0.0292,0.0171));
#2025=CARTESIAN_POINT('',(-0.02805,0.0296,0.0171));
#2026=CARTESIAN_POINT('',(-0.02805,0.03,0.0171));
#2027=CARTESIAN_POINT('',(-0.02805,0.03,0.0211));
#2028=CARTESIAN_POINT('',(-0.02805,0.04,0.0211));
#2029=CARTESIAN_POINT('',(-0.02805,0.04,0.0171));
#2030=CARTESIAN_POINT('',(-0.02805,0.0404,0.0171));
#2031=CARTESIAN_POINT('',(-0.02805,0.0408,0.0171));
#2032=CARTESIAN_POINT('',(-0.02805,0.0408,0.0211));
#2033=CARTESIAN_POINT('',(-0.02805,0.0408,0.0036));
#2034=CARTESIAN_POINT('',(-0.02805,0.035,0.0036));
#2035=CARTESIAN_POINT('',(-0.02805,0.06975,0.0036));
#2036=CARTESIAN_POINT('',(-0.02805,0.06975,0.0211));
#2037=CARTESIAN_POINT('',(-0.02805,0.06975,0.0211));
#2038=CARTESIAN_POINT('',(-0.02805,0.035,0.0211));
#2039=CARTESIAN_POINT('',(-0.02805,0.00025,0.0211));
#2040=CARTESIAN_POINT('',(-0.02805,0.00025,0.0211));
#2041=CARTESIAN_POINT('',(0.,0.035,0.0036));
#2042=CARTESIAN_POINT('',(0.,0.0408,0.0036));
#2043=CARTESIAN_POINT('',(0.02475,0.06975,0.0036));
#2044=CARTESIAN_POINT('',(0.02475,0.07305,0.0036));
#2045=CARTESIAN_POINT('',(0.,0.07305,0.0036));
#2046=CARTESIAN_POINT('',(0.0063,0.07305,0.0036));
#2047=CARTESIAN_POINT('',(0.0063,0.035,0.0036));
#2048=CARTESIAN_POINT('',(0.0063,0.07505,0.0036));
#2049=CARTESIAN_POINT('',(0.,0.07505,0.0036));
#2050=CARTESIAN_POINT('',(0.02475,0.07505,0.0036));
#2051=CARTESIAN_POINT('',(0.02475,0.06975,0.0036));
#2052=CARTESIAN_POINT('',(0.,-0.00505,0.0231));
#2053=CARTESIAN_POINT('',(-0.0215,-0.00505,0.0231));
#2054=CARTESIAN_POINT('',(-0.0215,-0.00505,0.0116));
#2055=CARTESIAN_POINT('',(0.,-0.00505,0.0116));
#2056=CARTESIAN_POINT('',(0.0215,-0.00505,0.0116));
#2057=CARTESIAN_POINT('',(0.0215,-0.00505,0.0231));
#2058=CARTESIAN_POINT('',(0.02475,-0.00505,0.0231));
#2059=CARTESIAN_POINT('',(0.02475,-0.00505,0.0231));
#2060=CARTESIAN_POINT('',(0.,-0.00505,0.0231));
#2061=CARTESIAN_POINT('',(-0.02475,-0.00505,0.0231));
#2062=CARTESIAN_POINT('',(-0.02475,-0.00505,0.0036));
#2063=CARTESIAN_POINT('',(0.,0.07505,0.0231));
#2064=CARTESIAN_POINT('',(-0.0063,0.07505,0.0231));
#2065=CARTESIAN_POINT('',(-0.0063,0.07505,0.0036));
#2066=CARTESIAN_POINT('',(-0.0063,0.07505,0.0174));
#2067=CARTESIAN_POINT('',(0.,0.07505,0.0036));
#2068=CARTESIAN_POINT('',(-0.02475,0.07505,0.0036));
#2069=CARTESIAN_POINT('',(-0.02475,0.07505,0.0231));
#2070=CARTESIAN_POINT('',(-0.02475,0.07505,0.0231));
#2071=CARTESIAN_POINT('',(0.,0.07505,0.0231));
#2072=CARTESIAN_POINT('',(0.02475,0.07505,0.0231));
#2073=CARTESIAN_POINT('',(0.02475,0.07505,0.0036));
#2074=CARTESIAN_POINT('',(0.0063,0.07505,0.0231));
#2075=CARTESIAN_POINT('',(0.0063,0.07505,0.0174));
#2076=CARTESIAN_POINT('',(0.,0.07505,0.0174));
#2077=CARTESIAN_POINT('',(0.,0.035,0.0231));
#2078=CARTESIAN_POINT('',(0.02475,0.06975,0.0231));
#2079=CARTESIAN_POINT('',(-0.02475,0.06975,0.0231));
#2080=CARTESIAN_POINT('',(-0.02475,0.00025,0.0231));
#2081=CARTESIAN_POINT('',(0.02475,0.00025,0.0231));
#2082=CARTESIAN_POINT('',(0.,0.035,0.0036));
#2083=CARTESIAN_POINT('',(0.,0.0408,0.0036));
#2084=CARTESIAN_POINT('',(-0.02475,0.06975,0.0036));
#2085=CARTESIAN_POINT('',(-0.0063,0.035,0.0036));
#2086=CARTESIAN_POINT('',(-0.0063,0.07305,0.0036));
#2087=CARTESIAN_POINT('',(0.,0.07305,0.0036));
#2088=CARTESIAN_POINT('',(-0.02475,0.07305,0.0036));
#2089=CARTESIAN_POINT('',(-0.02475,0.06975,0.0036));
#2090=CARTESIAN_POINT('',(0.02475,0.06975,0.0231));
#2091=CARTESIAN_POINT('',(0.02475,0.00025,0.0231));
#2092=CARTESIAN_POINT('',(-0.02475,0.06975,0.0231));
#2093=CARTESIAN_POINT('',(-0.02475,0.00025,0.0231));
#2094=CARTESIAN_POINT('',(0.,-0.00305,0.0211));
#2095=CARTESIAN_POINT('',(-0.0215,-0.00305,0.0211));
#2096=CARTESIAN_POINT('',(-0.0215,-0.00305,0.0116));
#2097=CARTESIAN_POINT('',(-0.02475,-0.00305,0.0026));
#2098=CARTESIAN_POINT('',(-0.02475,-0.00305,0.0211));
#2099=CARTESIAN_POINT('',(0.,-0.00305,0.0211));
#2100=CARTESIAN_POINT('',(0.02475,-0.00305,0.0211));
#2101=CARTESIAN_POINT('',(0.02475,-0.00305,0.0211));
#2102=CARTESIAN_POINT('',(0.0215,-0.00305,0.0211));
#2103=CARTESIAN_POINT('',(0.0215,-0.00305,0.0116));
#2104=CARTESIAN_POINT('',(0.,-0.00305,0.0116));
#2105=CARTESIAN_POINT('',(0.,0.07305,0.0211));
#2106=CARTESIAN_POINT('',(-0.0063,0.07305,0.0211));
#2107=CARTESIAN_POINT('',(-0.0063,0.07305,0.0174));
#2108=CARTESIAN_POINT('',(0.,0.07305,0.0174));
#2109=CARTESIAN_POINT('',(0.0063,0.07305,0.0174));
#2110=CARTESIAN_POINT('',(0.0063,0.07305,0.0211));
#2111=CARTESIAN_POINT('',(0.02475,0.07305,0.0026));
#2112=CARTESIAN_POINT('',(0.02475,0.07305,0.0211));
#2113=CARTESIAN_POINT('',(0.,0.07305,0.0211));
#2114=CARTESIAN_POINT('',(-0.02475,0.07305,0.0211));
#2115=CARTESIAN_POINT('',(-0.02475,0.07305,0.0211));
#2116=CARTESIAN_POINT('',(0.02475,0.06975,0.0211));
#2117=CARTESIAN_POINT('',(0.02475,0.06975,0.0211));
#2118=CARTESIAN_POINT('',(0.02475,0.00025,0.0211));
#2119=CARTESIAN_POINT('',(0.02475,0.00025,0.0211));
#2120=CARTESIAN_POINT('',(-0.02475,0.06975,0.0211));
#2121=CARTESIAN_POINT('',(-0.02475,0.06975,0.0211));
#2122=CARTESIAN_POINT('',(-0.02475,0.00025,0.0211));
#2123=CARTESIAN_POINT('',(-0.02475,0.00025,0.0211));
#2124=CARTESIAN_POINT('',(0.,0.035,0.0211));
#2125=CARTESIAN_POINT('',(0.,0.064,0.0211));
#2126=CARTESIAN_POINT('',(0.023,0.064,0.0211));
#2127=CARTESIAN_POINT('',(0.02,0.064,0.0211));
#2128=CARTESIAN_POINT('',(0.02,0.035,0.0211));
#2129=CARTESIAN_POINT('',(0.02,0.06,0.0211));
#2130=CARTESIAN_POINT('',(0.,0.06,0.0211));
#2131=CARTESIAN_POINT('',(0.023,0.06,0.0211));
#2132=CARTESIAN_POINT('',(0.023,0.035,0.0211));
#2133=CARTESIAN_POINT('',(0.,0.029,0.0211));
#2134=CARTESIAN_POINT('',(-0.02,0.029,0.0211));
#2135=CARTESIAN_POINT('',(-0.023,0.029,0.0211));
#2136=CARTESIAN_POINT('',(-0.023,0.035,0.0211));
#2137=CARTESIAN_POINT('',(-0.023,0.025,0.0211));
#2138=CARTESIAN_POINT('',(0.,0.025,0.0211));
#2139=CARTESIAN_POINT('',(-0.02,0.025,0.0211));
#2140=CARTESIAN_POINT('',(-0.02,0.035,0.0211));
#2141=CARTESIAN_POINT('',(0.,0.064,0.0211));
#2142=CARTESIAN_POINT('',(-0.02,0.064,0.0211));
#2143=CARTESIAN_POINT('',(-0.023,0.064,0.0211));
#2144=CARTESIAN_POINT('',(-0.023,0.035,0.0211));
#2145=CARTESIAN_POINT('',(-0.023,0.06,0.0211));
#2146=CARTESIAN_POINT('',(0.,0.06,0.0211));
#2147=CARTESIAN_POINT('',(-0.02,0.06,0.0211));
#2148=CARTESIAN_POINT('',(-0.02,0.035,0.0211));
#2149=CARTESIAN_POINT('',(0.,0.029,0.0211));
#2150=CARTESIAN_POINT('',(0.023,0.029,0.0211));
#2151=CARTESIAN_POINT('',(0.02,0.029,0.0211));
#2152=CARTESIAN_POINT('',(0.02,0.035,0.0211));
#2153=CARTESIAN_POINT('',(0.02,0.025,0.0211));
#2154=CARTESIAN_POINT('',(0.,0.025,0.0211));
#2155=CARTESIAN_POINT('',(0.023,0.025,0.0211));
#2156=CARTESIAN_POINT('',(0.023,0.035,0.0211));
#2157=CARTESIAN_POINT('',(-0.0215,-0.002525,0.0116));
#2158=CARTESIAN_POINT('',(-0.0215,-0.002525,0.0116));
#2159=CARTESIAN_POINT('',(0.0215,-0.002525,0.0116));
#2160=CARTESIAN_POINT('',(0.0215,-0.002525,0.0116));
#2161=CARTESIAN_POINT('',(0.,-0.002525,0.0116));
#2162=CARTESIAN_POINT('',(0.,0.072775,0.0174));
#2163=CARTESIAN_POINT('',(0.0063,0.072775,0.0174));
#2164=CARTESIAN_POINT('',(-0.0063,0.072775,0.0174));
#2165=CARTESIAN_POINT('',(-0.0063,0.072775,0.0174));
#2166=CARTESIAN_POINT('',(0.0063,0.072775,0.0174));
#2167=CARTESIAN_POINT('',(-0.0295,0.0292,0.0171));
#2168=CARTESIAN_POINT('',(-0.0295,0.0292,0.0171));
#2169=CARTESIAN_POINT('',(-0.0295,0.03,0.0171));
#2170=CARTESIAN_POINT('',(-0.0295,0.03,0.0171));
#2171=CARTESIAN_POINT('',(-0.02925,0.03,0.0171));
#2172=CARTESIAN_POINT('',(-0.02925,0.03,0.0171));
#2173=CARTESIAN_POINT('',(-0.02795,0.0296,0.0171));
#2174=CARTESIAN_POINT('',(-0.0295,0.03,0.0171));
#2175=CARTESIAN_POINT('',(-0.0295,0.04,0.0171));
#2176=CARTESIAN_POINT('',(-0.02925,0.04,0.0171));
#2177=CARTESIAN_POINT('',(-0.02925,0.04,0.0171));
#2178=CARTESIAN_POINT('',(-0.0295,0.04,0.0171));
#2179=CARTESIAN_POINT('',(-0.0295,0.0408,0.0171));
#2180=CARTESIAN_POINT('',(-0.0295,0.0408,0.0171));
#2181=CARTESIAN_POINT('',(-0.02795,0.0404,0.0171));
#2182=CARTESIAN_POINT('',(-0.0295,0.04,0.0171));
#2183=CARTESIAN_POINT('',(-0.02925,0.035,0.0171));
#2184=CARTESIAN_POINT('',(-0.02925,0.035,0.0171));
#2185=CARTESIAN_POINT('',(-0.03015,0.035,0.0171));
#2186=CARTESIAN_POINT('',(0.0295,0.0292,0.0171));
#2187=CARTESIAN_POINT('',(0.0295,0.0292,0.0171));
#2188=CARTESIAN_POINT('',(0.03105,0.0296,0.0171));
#2189=CARTESIAN_POINT('',(0.03015,0.03,0.0171));
#2190=CARTESIAN_POINT('',(0.0295,0.0408,0.0171));
#2191=CARTESIAN_POINT('',(0.0295,0.0408,0.0171));
#2192=CARTESIAN_POINT('',(0.03105,0.0404,0.0171));
#2193=CARTESIAN_POINT('',(0.03015,0.04,0.0171));
#2194=CARTESIAN_POINT('',(0.03015,0.035,0.0171));
#2195=CARTESIAN_POINT('',(0.02925,0.035,0.0171));
#2196=CARTESIAN_POINT('',(0.02925,0.035,0.0171));
#2197=CARTESIAN_POINT('',(-0.02795,0.008,0.0036));
#2198=CARTESIAN_POINT('',(0.02,0.027,0.0212));
#2199=CARTESIAN_POINT('',(0.02,0.029,0.0212));
#2200=CARTESIAN_POINT('',(0.02,0.029,0.01215));
#2201=CARTESIAN_POINT('',(0.02,0.027,0.01215));
#2202=CARTESIAN_POINT('',(0.02,0.025,0.01215));
#2203=CARTESIAN_POINT('',(0.02,0.025,0.0212));
#2204=CARTESIAN_POINT('',(0.0215,0.025,0.0212));
#2205=CARTESIAN_POINT('',(0.023,0.025,0.0212));
#2206=CARTESIAN_POINT('',(0.023,0.025,0.01215));
#2207=CARTESIAN_POINT('',(0.0215,0.025,0.01215));
#2208=CARTESIAN_POINT('',(0.023,0.027,0.0212));
#2209=CARTESIAN_POINT('',(0.023,0.029,0.0212));
#2210=CARTESIAN_POINT('',(0.023,0.029,0.01215));
#2211=CARTESIAN_POINT('',(0.023,0.027,0.01215));
#2212=CARTESIAN_POINT('',(0.0215,0.029,0.0212));
#2213=CARTESIAN_POINT('',(0.0215,0.029,0.01215));
#2214=CARTESIAN_POINT('',(0.0215,0.027,0.01215));
#2215=CARTESIAN_POINT('',(-0.023,0.062,0.0212));
#2216=CARTESIAN_POINT('',(-0.023,0.064,0.0212));
#2217=CARTESIAN_POINT('',(-0.023,0.064,0.01215));
#2218=CARTESIAN_POINT('',(-0.023,0.062,0.01215));
#2219=CARTESIAN_POINT('',(-0.023,0.06,0.01215));
#2220=CARTESIAN_POINT('',(-0.023,0.06,0.0212));
#2221=CARTESIAN_POINT('',(-0.0215,0.06,0.0212));
#2222=CARTESIAN_POINT('',(-0.02,0.06,0.0212));
#2223=CARTESIAN_POINT('',(-0.02,0.06,0.01215));
#2224=CARTESIAN_POINT('',(-0.0215,0.06,0.01215));
#2225=CARTESIAN_POINT('',(-0.02,0.062,0.0212));
#2226=CARTESIAN_POINT('',(-0.02,0.064,0.0212));
#2227=CARTESIAN_POINT('',(-0.02,0.064,0.01215));
#2228=CARTESIAN_POINT('',(-0.02,0.062,0.01215));
#2229=CARTESIAN_POINT('',(-0.0215,0.064,0.0212));
#2230=CARTESIAN_POINT('',(-0.0215,0.064,0.01215));
#2231=CARTESIAN_POINT('',(-0.0215,0.062,0.01215));
#2232=CARTESIAN_POINT('',(-0.023,0.027,0.0212));
#2233=CARTESIAN_POINT('',(-0.023,0.029,0.0212));
#2234=CARTESIAN_POINT('',(-0.023,0.029,0.01215));
#2235=CARTESIAN_POINT('',(-0.023,0.027,0.01215));
#2236=CARTESIAN_POINT('',(-0.023,0.025,0.01215));
#2237=CARTESIAN_POINT('',(-0.023,0.025,0.0212));
#2238=CARTESIAN_POINT('',(-0.0215,0.025,0.0212));
#2239=CARTESIAN_POINT('',(-0.02,0.025,0.0212));
#2240=CARTESIAN_POINT('',(-0.02,0.025,0.01215));
#2241=CARTESIAN_POINT('',(-0.0215,0.025,0.01215));
#2242=CARTESIAN_POINT('',(-0.02,0.027,0.0212));
#2243=CARTESIAN_POINT('',(-0.02,0.029,0.0212));
#2244=CARTESIAN_POINT('',(-0.02,0.029,0.01215));
#2245=CARTESIAN_POINT('',(-0.02,0.027,0.01215));
#2246=CARTESIAN_POINT('',(-0.0215,0.029,0.0212));
#2247=CARTESIAN_POINT('',(-0.0215,0.029,0.01215));
#2248=CARTESIAN_POINT('',(-0.0215,0.027,0.01215));
#2249=CARTESIAN_POINT('',(0.02,0.062,0.0212));
#2250=CARTESIAN_POINT('',(0.02,0.064,0.0212));
#2251=CARTESIAN_POINT('',(0.02,0.064,0.01215));
#2252=CARTESIAN_POINT('',(0.02,0.062,0.01215));
#2253=CARTESIAN_POINT('',(0.02,0.06,0.01215));
#2254=CARTESIAN_POINT('',(0.02,0.06,0.0212));
#2255=CARTESIAN_POINT('',(0.0215,0.06,0.0212));
#2256=CARTESIAN_POINT('',(0.023,0.06,0.0212));
#2257=CARTESIAN_POINT('',(0.023,0.06,0.01215));
#2258=CARTESIAN_POINT('',(0.0215,0.06,0.01215));
#2259=CARTESIAN_POINT('',(0.023,0.062,0.0212));
#2260=CARTESIAN_POINT('',(0.023,0.064,0.0212));
#2261=CARTESIAN_POINT('',(0.023,0.064,0.01215));
#2262=CARTESIAN_POINT('',(0.023,0.062,0.01215));
#2263=CARTESIAN_POINT('',(0.0215,0.064,0.0212));
#2264=CARTESIAN_POINT('',(0.0215,0.064,0.01215));
#2265=CARTESIAN_POINT('',(0.0215,0.062,0.01215));
#2266=CARTESIAN_POINT('',(-0.02815,0.039,0.0064));
#2267=CARTESIAN_POINT('',(-0.02815,0.031,0.0064));
#2268=CARTESIAN_POINT('',(-0.02815,0.039,0.0064));
#2269=CARTESIAN_POINT('',(-0.02815,0.039,0.0064));
#2270=CARTESIAN_POINT('',(-0.02815,0.031,0.0064));
#2271=CARTESIAN_POINT('',(0.02815,0.039,0.0064));
#2272=CARTESIAN_POINT('',(0.02815,0.031,0.0064));
#2273=CARTESIAN_POINT('',(0.02815,0.039,0.0064));
#2274=CARTESIAN_POINT('',(0.02815,0.039,0.0064));
#2275=CARTESIAN_POINT('',(0.02815,0.031,0.0064));
#2276=MECHANICAL_DESIGN_GEOMETRIC_PRESENTATION_REPRESENTATION('',(#1389),
#2277);
#2277=(
GEOMETRIC_REPRESENTATION_CONTEXT(3)
GLOBAL_UNCERTAINTY_ASSIGNED_CONTEXT((#2278))
GLOBAL_UNIT_ASSIGNED_CONTEXT((#2281,#2280,#2279))
REPRESENTATION_CONTEXT(
'12 Lift-off lid - light snaps and carrier retention',
'TOP_LEVEL_ASSEMBLY_PART')
);
#2278=UNCERTAINTY_MEASURE_WITH_UNIT(LENGTH_MEASURE(1.E-8),#2281,
'DISTANCE_ACCURACY_VALUE','Maximum Tolerance applied to model');
#2279=(
NAMED_UNIT(*)
SI_UNIT($,.STERADIAN.)
SOLID_ANGLE_UNIT()
);
#2280=(
NAMED_UNIT(*)
PLANE_ANGLE_UNIT()
SI_UNIT($,.RADIAN.)
);
#2281=(
LENGTH_UNIT()
NAMED_UNIT(*)
SI_UNIT($,.METRE.)
);
#2282=PRODUCT_DEFINITION_SHAPE('','',#2283);
#2283=PRODUCT_DEFINITION('','',#2285,#2284);
#2284=PRODUCT_DEFINITION_CONTEXT('',#2291,'design');
#2285=PRODUCT_DEFINITION_FORMATION_WITH_SPECIFIED_SOURCE('','',#2287,
 .NOT_KNOWN.);
#2286=PRODUCT_RELATED_PRODUCT_CATEGORY('','',(#2287));
#2287=PRODUCT('12 Lift-off lid - light snaps and carrier retention',
'12 Lift-off lid - light snaps and carrier retention',
'12 Lift-off lid - light snaps and carrier retention',(#2289));
#2288=PRODUCT_CATEGORY('','');
#2289=PRODUCT_CONTEXT('',#2291,'mechanical');
#2290=APPLICATION_PROTOCOL_DEFINITION('international standard',
'ap242_managed_model_based_3d_engineering',2020,#2291);
#2291=APPLICATION_CONTEXT('managed model based 3d engineering');
ENDSEC;
END-ISO-10303-21;
